<?xml version="1.0" encoding="UTF-8"?>
<svg width="128" height="32" version="1.1" viewBox="0 0 128 32" xmlns="http://www.w3.org/2000/svg" xmlns:xlink="http://www.w3.org/1999/xlink">
    <defs>
        <linearGradient id="linearGradient3965" x1="5.9246111" x2="122.07539" y1="16" y2="16" gradientUnits="userSpaceOnUse" xlink:href="#gradient"/>
    </defs>
    <linearGradient id="gradient">
        <stop stop-color="#ffe419" offset=".44"/>
        <stop stop-opacity="0" offset=".44"/>
    </linearGradient>
    <path id="star" d="m109.65071 5.1270213c0.79688 0 2.88203 6.6774997 3.52671 7.1458997 0.64469 0.46839 7.63972 0.38802 7.88597 1.14589 0.24625 0.75788-5.46009 4.80443-5.70634 5.56231s1.99177 7.38571 1.34708 7.8541c-0.64468 0.46839-6.25654-3.7082-7.05342-3.7082s-6.40873 4.17659-7.05342 3.7082 1.59333-7.09622 1.34708-7.8541-5.952586-4.80443-5.706337-5.56231c0.246249-0.75787 7.241277-0.6775 7.885967-1.14589 0.64469-0.4684 2.72983-7.1458997 3.52671-7.1458997zm-22.825354 0c0.796879 0 2.882023 6.6774997 3.526711 7.1458897 0.644688 0.4684 7.639718 0.38803 7.885967 1.1459 0.246249 0.75788-5.46009 4.80443-5.706339 5.56231-0.246249 0.75787 1.991772 7.38571 1.347083 7.8541-0.644688 0.46839-6.256544-3.7082-7.053422-3.7082-0.796879 0-6.408735 4.17659-7.053424 3.7082-0.644688-0.46839 1.593334-7.09623 1.347084-7.8541-0.246249-0.75788-5.952588-4.80443-5.706339-5.56231 0.24625-0.75787 7.241279-0.6775 7.885967-1.1459 0.644688-0.46839 2.729833-7.1458897 3.526712-7.1458897zm-22.825356 0c0.796879 0 2.882023 6.6774997 3.526712 7.1458897 0.644688 0.4684 7.639717 0.38803 7.885966 1.1459 0.246249 0.75788-5.46009 4.80443-5.706339 5.56231-0.246249 0.75787 1.991772 7.38571 1.347084 7.8541-0.644689 0.46839-6.256544-3.7082-7.053423-3.7082s-6.408735 4.17659-7.053423 3.7082c-0.644689-0.46839 1.593333-7.09623 1.347084-7.8541-0.246249-0.75788-5.952588-4.80443-5.706339-5.56231s7.241278-0.6775 7.885967-1.1459c0.644688-0.46839 2.729833-7.1458897 3.526711-7.1458897zm-22.825355 0c0.796878 0 2.882023 6.6774997 3.526711 7.1458897 0.644688 0.4684 7.639718 0.38802 7.885967 1.1459s-5.46009 4.80443-5.706339 5.56231c-0.246249 0.75787 1.991772 7.38571 1.347083 7.8541-0.644688 0.46839-6.256544-3.7082-7.053422-3.7082-0.796879 0-6.408735 4.17659-7.053424 3.7082-0.644688-0.46839 1.593333-7.09623 1.347084-7.8541-0.246249-0.75788-5.952588-4.80443-5.706339-5.56231s7.241279-0.6775 7.885967-1.1459c0.644688-0.46839 2.729833-7.1458897 3.526712-7.1458897zm-22.825356 0c0.796879 0 2.882023 6.6774997 3.526711 7.1458897 0.644689 0.4684 7.639718 0.38802 7.885967 1.1459s-5.46009 4.80443-5.706339 5.56231c-0.246249 0.75787 1.991772 7.38571 1.347084 7.8541-0.644689 0.46839-6.256544-3.7082-7.053423-3.7082s-6.408735 4.17659-7.053423 3.7082c-0.644689-0.46839 1.593333-7.09623 1.347084-7.8541-0.246249-0.75788-5.9525888-4.80443-5.7063398-5.56231s7.2412788-0.6775 7.8859678-1.1459c0.644688-0.46839 2.729833-7.1458897 3.526711-7.1458897z" fill="url(#gradient)" stroke="url(#linearGradient3965)" stroke-opacity=".94949496" stroke-width="2"/>
</svg>
