<?xml version="1.0" encoding="UTF-8" ?>
<!DOCTYPE svg PUBLIC "-//W3C//DTD SVG 1.1//EN" "http://www.w3.org/Graphics/SVG/1.1/DTD/svg11.dtd">
<svg width="595pt" height="521pt" viewBox="0 0 595 521" version="1.1" xmlns="http://www.w3.org/2000/svg">
<g id="#00acc1ff">
<path fill="#00acc1" opacity="1.00" d=" M 521.62 0.00 L 526.69 0.00 C 530.11 6.35 534.90 12.04 536.79 19.14 C 539.16 27.88 541.45 36.86 540.85 46.00 C 541.05 56.61 540.85 67.43 537.60 77.63 C 536.28 81.61 535.94 86.57 531.99 88.98 C 520.68 96.72 510.05 105.62 497.63 111.58 C 489.11 116.11 480.09 119.54 471.09 122.95 C 451.75 127.77 432.05 132.25 412.00 131.84 C 362.00 131.82 312.00 131.87 262.00 131.82 C 254.70 131.45 247.48 132.75 240.23 133.24 C 233.47 134.38 226.56 133.23 219.83 134.64 C 198.07 137.13 176.80 144.46 158.37 156.34 C 138.73 169.35 121.93 186.68 109.95 206.99 C 98.78 226.11 92.44 247.90 90.87 269.96 C 90.47 286.18 90.28 302.63 94.46 318.43 C 96.67 329.80 101.19 340.54 105.98 351.02 C 112.10 362.72 119.82 373.56 128.66 383.35 C 134.83 389.18 140.27 395.87 147.35 400.67 C 156.95 408.16 167.29 414.84 178.61 419.42 C 192.27 425.98 207.31 428.83 222.22 430.85 C 227.37 431.55 232.58 430.77 237.72 431.46 C 242.95 432.19 248.31 432.10 253.41 433.62 C 257.44 434.62 261.00 436.86 264.91 438.17 C 263.43 430.18 264.15 422.05 263.95 413.99 C 264.24 406.42 265.13 398.79 267.50 391.57 C 268.67 387.77 269.20 383.17 272.93 380.93 C 284.44 373.03 295.28 363.97 307.99 357.97 C 316.29 353.57 325.10 350.27 333.86 346.92 C 345.88 343.91 357.99 341.18 370.24 339.31 C 377.17 338.99 384.04 337.63 391.01 337.97 C 405.66 337.94 420.33 338.16 434.97 337.89 C 451.04 335.58 467.23 333.95 483.23 331.18 C 491.63 328.26 500.42 326.65 508.85 323.80 C 514.09 321.85 519.31 319.81 524.34 317.33 C 529.05 315.01 534.08 313.34 538.56 310.55 C 545.50 306.26 553.17 303.34 560.17 299.15 C 563.93 296.86 568.21 295.74 572.34 294.31 C 575.00 293.46 577.82 292.47 580.65 293.14 C 583.18 296.73 585.38 300.56 587.68 304.32 C 591.97 311.80 592.59 320.54 595.00 328.66 L 595.00 355.28 C 593.66 363.09 592.13 370.90 589.34 378.34 C 588.43 380.63 586.20 381.92 584.33 383.34 C 578.63 387.29 573.02 391.35 567.39 395.40 C 554.45 404.40 539.85 410.63 525.13 416.08 C 505.45 420.99 485.40 425.53 465.00 425.01 C 451.34 425.10 437.67 424.83 424.03 425.12 C 407.95 427.41 391.77 429.05 375.77 431.82 C 367.36 434.74 358.57 436.35 350.14 439.20 C 340.85 442.55 331.96 446.89 323.00 451.01 C 314.82 456.07 305.84 459.66 297.57 464.55 C 293.41 466.93 288.61 467.64 284.21 469.42 C 283.24 474.86 284.31 480.42 283.70 485.89 C 282.34 494.07 278.92 502.07 272.90 507.91 C 266.82 514.97 257.76 517.90 249.32 521.00 L 216.75 521.00 C 207.50 518.50 197.77 518.58 188.44 516.47 C 179.75 514.21 170.92 512.43 162.41 509.54 C 153.04 506.12 143.44 503.19 134.73 498.23 C 126.00 494.81 118.32 489.38 110.23 484.75 C 105.23 481.91 101.04 477.91 96.35 474.62 C 88.86 469.23 81.78 463.29 75.27 456.75 C 70.97 453.71 67.60 449.73 64.30 445.68 C 55.01 436.83 47.95 426.04 40.01 416.03 C 32.14 404.14 25.52 391.48 19.54 378.55 C 17.26 373.32 15.68 367.82 13.57 362.53 C 10.17 353.96 8.47 344.86 6.12 335.98 C 4.04 326.22 3.05 316.26 1.64 306.39 C 0.66 299.95 1.40 293.44 1.18 286.97 C 1.18 285.48 0.51 284.12 0.00 282.76 L 0.00 282.24 C 2.53 276.14 0.47 269.36 1.21 262.98 C 3.54 241.52 6.77 219.85 14.73 199.66 C 20.38 182.33 29.27 166.27 38.92 150.87 C 53.50 129.60 71.17 110.47 91.19 94.22 C 98.75 88.75 105.87 82.62 114.11 78.16 C 139.26 62.31 167.71 51.84 197.05 47.18 C 208.31 45.67 219.60 43.63 231.00 44.16 C 239.01 44.05 247.02 43.99 254.97 45.14 C 296.65 45.15 338.35 45.22 380.03 45.10 C 395.62 43.09 411.22 41.11 426.78 38.85 C 430.51 38.23 433.98 36.68 437.62 35.73 C 444.88 33.84 452.24 32.19 459.19 29.29 C 466.31 26.59 473.07 23.07 480.07 20.11 C 485.94 16.98 491.64 13.51 497.72 10.78 C 502.98 8.48 507.60 4.84 513.16 3.23 C 516.05 2.35 518.87 1.25 521.62 0.00 Z" />
<path fill="#00acc1" opacity="1.00" d=" M 547.12 149.11 C 550.53 147.96 554.04 146.30 557.73 147.11 C 559.35 149.28 560.44 151.79 562.01 153.99 C 568.54 162.99 570.10 174.33 571.97 184.99 C 571.78 194.33 572.75 203.76 571.11 213.00 C 570.92 219.20 568.37 224.95 566.92 230.91 C 566.39 233.39 564.50 235.14 562.47 236.49 C 556.44 240.78 550.39 245.03 544.41 249.40 C 531.24 258.55 516.36 264.81 501.39 270.37 C 489.00 273.18 476.61 276.23 464.01 277.93 C 459.96 277.75 456.02 278.58 452.03 279.02 C 435.34 278.99 418.65 279.01 401.97 279.00 C 385.84 281.20 369.67 283.12 353.58 285.56 C 350.17 286.32 347.04 287.97 343.61 288.64 C 331.87 291.26 320.39 295.14 309.69 300.66 C 305.77 302.38 301.70 303.80 298.06 306.08 C 290.56 310.84 282.11 313.84 274.60 318.58 C 272.16 320.11 269.30 320.68 266.63 321.64 C 262.95 322.80 259.23 324.73 255.26 323.90 C 253.44 321.28 252.06 318.39 250.20 315.80 C 245.15 308.51 243.56 299.61 241.88 291.08 C 240.26 284.84 241.25 278.36 241.00 272.00 C 240.52 260.61 242.90 249.34 246.62 238.63 C 247.62 236.09 250.25 234.87 252.26 233.26 C 260.60 227.61 268.42 221.18 277.17 216.16 C 287.83 209.89 299.34 205.30 310.85 200.87 C 323.16 197.89 335.54 195.08 348.07 193.14 C 352.07 193.07 356.05 192.80 359.99 192.04 C 377.33 191.87 394.68 192.13 412.01 191.93 C 426.32 189.81 440.71 188.27 455.02 186.08 C 460.35 185.91 465.05 183.21 470.20 182.17 C 480.70 179.79 490.96 176.36 500.66 171.66 C 505.30 169.16 510.46 167.76 514.94 164.92 C 522.43 160.15 530.89 157.17 538.40 152.42 C 541.06 150.76 544.20 150.19 547.12 149.11 Z" />
</g>
</svg>
