<?xml version="1.0" encoding="UTF-8" ?>
<!DOCTYPE svg PUBLIC "-//W3C//DTD SVG 1.1//EN" "http://www.w3.org/Graphics/SVG/1.1/DTD/svg11.dtd">
<svg width="1291pt" height="1087pt" viewBox="0 0 1291 1087" version="1.1" xmlns="http://www.w3.org/2000/svg">
<g id="#00acc1ff">
<path fill="#00acc1" opacity="1.00" d=" M 1094.96 0.00 L 1096.19 0.00 C 1102.82 12.02 1110.57 23.51 1115.74 36.28 C 1126.50 66.70 1127.41 99.57 1125.24 131.45 C 1122.73 145.46 1121.38 159.88 1116.06 173.21 C 1114.59 176.51 1113.36 180.12 1110.60 182.60 C 1076.86 212.65 1037.12 235.53 995.09 251.88 C 989.20 254.11 983.37 256.53 977.25 258.08 C 939.63 268.21 900.99 275.37 861.95 276.08 C 756.29 276.50 650.63 275.57 544.98 276.37 C 538.29 276.32 531.63 276.92 524.96 277.17 C 496.44 278.53 467.82 279.66 439.59 284.26 C 386.00 292.54 335.74 317.64 294.70 352.75 C 242.67 397.30 204.61 459.35 193.24 527.28 C 185.79 569.46 185.28 613.03 193.41 655.15 C 206.06 722.40 244.23 783.64 296.05 827.82 C 342.65 867.66 401.71 893.55 463.11 897.63 C 484.04 899.10 505.25 899.23 525.76 904.19 C 553.27 911.09 576.37 932.69 585.77 959.37 C 590.49 972.98 590.80 987.61 590.47 1001.87 C 590.29 1006.43 590.42 1011.02 589.77 1015.55 C 585.86 1036.51 574.25 1056.19 557.02 1068.93 C 544.67 1077.73 530.26 1083.83 515.15 1085.68 C 510.01 1086.39 504.84 1086.73 499.66 1087.00 L 482.42 1087.00 C 470.61 1086.28 458.73 1087.01 446.96 1085.63 C 393.71 1080.66 341.17 1067.40 292.18 1045.86 C 269.58 1036.08 248.00 1024.07 227.47 1010.48 C 175.18 976.12 128.92 932.50 92.03 881.93 C 53.43 829.09 25.43 768.33 11.91 704.23 C 4.17 668.23 0.68 631.42 0.00 594.64 L 0.00 574.41 C 0.39 562.33 0.48 550.23 1.74 538.20 C 7.39 479.58 23.04 421.79 48.96 368.85 C 63.39 339.29 81.24 311.46 101.36 285.46 C 163.04 205.94 248.18 143.69 344.68 113.90 C 370.51 105.80 397.17 100.68 423.94 96.92 C 459.07 92.16 494.67 91.65 530.01 93.82 C 610.62 96.18 691.27 93.68 771.89 95.09 C 796.79 94.85 821.50 91.33 846.10 87.74 C 857.81 85.83 869.68 84.84 881.26 82.14 C 916.55 74.78 951.75 65.32 984.15 49.17 C 1021.37 33.44 1054.41 7.20 1094.96 0.00 Z" />
<path fill="#00acc1" opacity="1.00" d=" M 1149.55 315.33 C 1159.78 311.24 1170.40 307.96 1181.32 306.30 C 1186.29 313.86 1190.65 322.01 1195.14 329.95 C 1203.38 344.26 1206.91 360.68 1209.36 376.85 C 1212.12 397.14 1212.14 417.74 1210.62 438.14 C 1207.71 453.93 1206.46 470.48 1198.95 484.97 C 1197.69 487.88 1195.03 489.70 1192.75 491.73 C 1165.28 515.61 1133.92 534.80 1100.75 549.69 C 1085.59 556.29 1070.30 562.92 1054.11 566.60 C 1016.23 576.29 977.26 582.76 938.06 582.37 C 845.77 582.38 753.47 582.37 661.18 582.37 C 649.52 522.03 639.18 461.43 627.24 401.14 C 709.16 400.39 791.08 401.82 873.00 400.65 C 879.35 400.74 885.64 399.70 891.96 399.12 C 940.95 393.83 990.11 386.15 1036.67 369.51 C 1058.95 360.97 1080.46 350.52 1101.68 339.64 C 1117.69 331.63 1132.88 321.96 1149.55 315.33 Z" />
<path fill="#00acc1" opacity="1.00" d=" M 1199.21 636.18 C 1218.36 625.26 1238.84 615.90 1260.79 612.51 C 1268.68 627.08 1278.69 640.83 1283.00 657.04 C 1290.61 682.90 1291.59 710.17 1290.31 736.93 C 1290.21 745.06 1288.17 752.96 1287.02 760.97 C 1284.96 772.37 1282.79 784.33 1276.26 794.12 C 1238.98 827.81 1194.10 852.42 1146.89 869.17 C 1107.85 880.14 1067.62 887.80 1026.98 888.62 C 971.32 888.64 915.66 888.57 860.00 888.75 C 810.58 888.51 761.16 888.70 711.74 888.60 C 701.89 827.33 689.82 766.45 678.27 705.49 C 770.49 709.14 862.79 706.80 955.05 706.95 C 1002.21 702.52 1049.49 696.16 1095.00 682.60 C 1109.01 678.48 1122.77 673.53 1136.06 667.45 C 1157.57 657.99 1178.56 647.38 1199.21 636.18 Z" />
</g>
</svg>
