<?xml version="1.0" encoding="UTF-8" standalone="no"?>
<svg
   xmlns:dc="http://purl.org/dc/elements/1.1/"
   xmlns:cc="http://creativecommons.org/ns#"
   xmlns:rdf="http://www.w3.org/1999/02/22-rdf-syntax-ns#"
   xmlns:svg="http://www.w3.org/2000/svg"
   xmlns="http://www.w3.org/2000/svg"
   xmlns:sodipodi="http://sodipodi.sourceforge.net/DTD/sodipodi-0.dtd"
   xmlns:inkscape="http://www.inkscape.org/namespaces/inkscape"
   viewBox="0 0 55 69"
   version="1.1"
   x="0px"
   y="0px"
   id="svg16"
   sodipodi:docname="noun_756868_cc.svg"
   width="55"
   height="69"
   inkscape:version="0.92.2 (5c3e80d, 2017-08-06)">
  <metadata
     id="metadata22">
    <rdf:RDF>
      <cc:Work
         rdf:about="">
        <dc:format>image/svg+xml</dc:format>
        <dc:type
           rdf:resource="http://purl.org/dc/dcmitype/StillImage" />
        <dc:title>Delete 3.4</dc:title>
      </cc:Work>
    </rdf:RDF>
  </metadata>
  <defs
     id="defs20" />
  <sodipodi:namedview
     pagecolor="#ffffff"
     bordercolor="#666666"
     borderopacity="1"
     objecttolerance="10"
     gridtolerance="10"
     guidetolerance="10"
     inkscape:pageopacity="0"
     inkscape:pageshadow="2"
     inkscape:window-width="1920"
     inkscape:window-height="1017"
     id="namedview18"
     showgrid="false"
     fit-margin-top="0"
     fit-margin-left="0"
     fit-margin-right="0"
     fit-margin-bottom="0"
     inkscape:zoom="1.888"
     inkscape:cx="27.5"
     inkscape:cy="22"
     inkscape:window-x="-8"
     inkscape:window-y="-8"
     inkscape:window-maximized="1"
     inkscape:current-layer="svg16" />
  <title
     id="title2">Delete 3.4</title>
  <desc
     id="desc4">Created with Sketch.</desc>
  <g
     id="g10"
     style="fill:#aab8c2;fill-rule:evenodd;stroke:none;stroke-width:1;fill-opacity:1"
     transform="translate(-22.5,-15.5)">
    <g
       id="g8"
       style="fill:#aab8c2;fill-opacity:1">
      <path
         d="m 75,24 c 1.380712,0 2.5,1.119288 2.5,2.5 0,1.380712 -1.119288,2.5 -2.5,2.5 h -0.03512 c -0.276252,0 -0.508307,0.218908 -0.51879,0.501952 L 72.646164,78.099851 C 72.514753,81.647942 69.549076,84.5 65.999974,84.5 H 34.000025 c -3.55094,0 -6.514978,-2.857445 -6.646189,-6.400149 L 25.553914,29.501952 C 25.543646,29.224731 25.317587,29 25.035124,29 H 25 c -1.380712,0 -2.5,-1.119288 -2.5,-2.5 0,-1.380712 1.119288,-2.5 2.5,-2.5 h 12.188381 c 0.274648,0 0.559726,-0.218512 0.633624,-0.477154 l 0.81519,-2.853168 C 39.473493,17.742638 42.447134,15.5 45.491497,15.5 h 9.017006 c 3.044724,0 6.017774,2.241833 6.854302,5.169678 l 0.81519,2.853168 C 62.253288,23.786371 62.534509,24 62.811619,24 Z M 48,38 v 34 c 0,1.104569 0.895431,2 2,2 1.104569,0 2,-0.895431 2,-2 V 38 c 0,-1.104569 -0.895431,-2 -2,-2 -1.104569,0 -2,0.895431 -2,2 z m -10.999136,0.0588 1,34 c 0.03247,1.104092 0.953842,1.972811 2.057934,1.940337 1.104092,-0.03247 1.972811,-0.953841 1.940338,-2.057933 l -1,-34 c -0.03247,-1.104092 -0.953842,-1.972811 -2.057934,-1.940338 -1.104092,0.03247 -1.972811,0.953842 -1.940338,2.057934 z m 22,-0.117596 -1,34 c -0.03247,1.104092 0.836246,2.02546 1.940338,2.057933 1.104092,0.03247 2.02546,-0.836245 2.057934,-1.940337 l 1,-34 c 0.03247,-1.104092 -0.836246,-2.02546 -1.940338,-2.057934 -1.104092,-0.03247 -2.02546,0.836246 -2.057934,1.940338 z M 43.392153,24 c -0.279677,0 -0.44657,-0.209403 -0.371066,-0.473666 l 0.423728,-1.48305 C 43.667778,21.262913 44.679368,20.5 45.491497,20.5 h 9.017006 c 0.812648,0 1.823532,0.762259 2.046682,1.543284 l 0.423728,1.48305 C 57.053656,23.787932 56.890751,24 56.607847,24 Z"
         id="path6"
         inkscape:connector-curvature="0"
         style="fill:#aab8c2;fill-opacity:1" />
    </g>
  </g>
</svg>
