<?xml version="1.0" encoding="UTF-8" standalone="no"?>
<svg
   xmlns:dc="http://purl.org/dc/elements/1.1/"
   xmlns:cc="http://creativecommons.org/ns#"
   xmlns:rdf="http://www.w3.org/1999/02/22-rdf-syntax-ns#"
   xmlns:svg="http://www.w3.org/2000/svg"
   xmlns="http://www.w3.org/2000/svg"
   xmlns:sodipodi="http://sodipodi.sourceforge.net/DTD/sodipodi-0.dtd"
   xmlns:inkscape="http://www.inkscape.org/namespaces/inkscape"
   version="1.1"
   x="0px"
   y="0px"
   viewBox="0 0 69.935295 90"
   enable-background="new 0 0 100 100"
   xml:space="preserve"
   id="svg30"
   sodipodi:docname="ic-fire-alt.svg"
   width="69.935295"
   height="90"
   inkscape:version="0.92.2 (5c3e80d, 2017-08-06)"><metadata
     id="metadata36"><rdf:RDF><cc:Work
         rdf:about=""><dc:format>image/svg+xml</dc:format><dc:type
           rdf:resource="http://purl.org/dc/dcmitype/StillImage" /><dc:title /></cc:Work></rdf:RDF></metadata><defs
     id="defs34" /><sodipodi:namedview
     pagecolor="#ffffff"
     bordercolor="#666666"
     borderopacity="1"
     objecttolerance="10"
     gridtolerance="10"
     guidetolerance="10"
     inkscape:pageopacity="0"
     inkscape:pageshadow="2"
     inkscape:window-width="1366"
     inkscape:window-height="705"
     id="namedview32"
     showgrid="false"
     fit-margin-top="0"
     fit-margin-left="0"
     fit-margin-right="0"
     fit-margin-bottom="0"
     inkscape:zoom="4.288"
     inkscape:cx="-2.9611582"
     inkscape:cy="32.5"
     inkscape:window-x="-8"
     inkscape:window-y="-8"
     inkscape:window-maximized="1"
     inkscape:current-layer="svg30" /><path
     d="m 25.535297,89 c -4.9,-2.9 -8.4,-8 -8.6,-14 -0.3,-11.2 7.5,-16.7 12.1,-24.2 6.6,-10.8 4.8,-17.5 4.8,-17.5 0,0 5.5,3.1 8.7,14.6 1,3.4 1.2,6.8 0.9,10 -0.5,8.1 -4,15.4 -4,15.4 0,0 6.1,-1.3 7.8,-12.4 2.8,2.9 5.4,7.1 5.7,11.5 0.5,7.6 -4,14.6 -10.8,17.6 11.8,-2.7 20.2,-12.7 23.1,-20 3.7,-9.2 2.7,-17.4 2.1,-24.5 -0.8,-9.7 2.6,-16.9 2.6,-16.9 0,0 -6.5,1.9 -11.3,9.8 -2.2,3.6 -3.1,8.9 -3.1,8.9 0,0 0.5,-4.7 -2.6,-13.3 -3.1,-8.4 -5.9,-11.4 -7.6,-17.6 -2.2,-8.3 2.7,-16.4 2.7,-16.4 0,0 -19.4,3.6 -28.2,20.5 -7.8,15 -4.6,24 -4.6,24 0,0 -3.3,-3.1 -5,-7.4 -1.6999996,-4.3 -1.2999996,-8.2 -1.2999996,-8.2 0,0 -13.8,15.2 -7.1,34.3 4.5,13.4 13.1999996,22.2 23.6999996,25.8 z"
     id="path24"
     inkscape:connector-curvature="0"
     style="fill:#aab8c2;fill-opacity:1" /></svg>