<?xml version="1.0" encoding="UTF-8" standalone="no"?>
<svg
   xmlns:dc="http://purl.org/dc/elements/1.1/"
   xmlns:cc="http://creativecommons.org/ns#"
   xmlns:rdf="http://www.w3.org/1999/02/22-rdf-syntax-ns#"
   xmlns:svg="http://www.w3.org/2000/svg"
   xmlns="http://www.w3.org/2000/svg"
   xmlns:sodipodi="http://sodipodi.sourceforge.net/DTD/sodipodi-0.dtd"
   xmlns:inkscape="http://www.inkscape.org/namespaces/inkscape"
   version="1.1"
   x="0px"
   y="0px"
   viewBox="0 0 65.355698 90.000061"
   enable-background="new 0 0 100 100"
   xml:space="preserve"
   id="svg3763"
   sodipodi:docname="fire.svg"
   inkscape:version="0.92.2 (5c3e80d, 2017-08-06)"
   width="65.355698"
   height="90.000061"><metadata
     id="metadata3769"><rdf:RDF><cc:Work
         rdf:about=""><dc:format>image/svg+xml</dc:format><dc:type
           rdf:resource="http://purl.org/dc/dcmitype/StillImage" /><dc:title /></cc:Work></rdf:RDF></metadata><defs
     id="defs3767" /><sodipodi:namedview
     pagecolor="#ffffff"
     bordercolor="#666666"
     borderopacity="1"
     objecttolerance="10"
     gridtolerance="10"
     guidetolerance="10"
     inkscape:pageopacity="0"
     inkscape:pageshadow="2"
     inkscape:window-width="1366"
     inkscape:window-height="705"
     id="namedview3765"
     showgrid="false"
     inkscape:measure-start="-13.9925,33.5821"
     inkscape:measure-end="22.3881,27.7519"
     inkscape:zoom="4.288"
     inkscape:cx="-6.4684552"
     inkscape:cy="27.862083"
     inkscape:window-x="-8"
     inkscape:window-y="-8"
     inkscape:window-maximized="1"
     inkscape:current-layer="svg3763"
     fit-margin-top="0"
     fit-margin-left="0"
     fit-margin-right="0"
     fit-margin-bottom="0" /><path
     d="m 39.715,0 c 0,0 -5.776,3.879 -4.934,11.329 0.793,7.021 3.832,10.488 3.832,10.488 0,0 4.692,-3.166 2.183,-11.683 C 39.693,6.39 38.877,5.988 39.715,0 Z"
     id="path3753"
     inkscape:connector-curvature="0"
     style="fill:#aab8c2;fill-opacity:1" /><path
     d="m 46.902,13.322 c 0,0 0.441,2.288 -1.142,5.898 -1.586,3.608 2.197,6.776 2.197,6.776 0,0 5.722,-6.25 -1.055,-12.674 z"
     id="path3755"
     inkscape:connector-curvature="0"
     style="fill:#aab8c2;fill-opacity:1" /><path
     d="M 65.31,52.568 C 60.734,67.18 55.629,69.38 55.629,69.38 69.976,42.36 44.099,24.931 44.099,24.931 c 12.06,16.987 2.992,31.512 2.992,31.512 0,0 5.633,-12.06 -8.802,-24.733 C 22.184,16.834 30.191,4.601 30.191,4.601 16.023,9.441 15.582,22.205 18.483,27.309 26.846,41.215 23.59,47.995 23.59,47.995 23.413,44.913 21.126,42.624 13.91,37.431 6.691,32.238 11.177,22.732 11.177,22.732 6.516,25.637 2.378,35.142 8.011,41.745 18.309,54.595 9.771,61.988 9.771,61.988 13.204,47.729 0,44.56 0,44.56 10.211,52.834 0.795,58.996 2.377,68.675 5.369,91.474 31.599,89.98 31.599,89.98 c 0.747,-0.007 1.452,-0.053 2.166,-0.09 -9.865,-0.025 -12.61,-6.185 -10.173,-8.542 0,0 4.004,-3.469 -0.827,-9.497 -2.643,-3.101 -0.701,-7.56 1.486,-8.921 0,0 -2.105,4.459 1.281,6.896 3.387,2.437 4.461,3.509 4.542,4.955 0,0 1.528,-3.182 -2.396,-9.704 -1.361,-2.393 -1.155,-8.383 5.494,-10.653 0,0 -3.758,5.738 3.798,12.72 6.772,5.943 4.131,11.604 4.131,11.604 0,0 4.253,-6.814 -1.405,-14.786 0,0 12.143,8.18 5.412,20.855 0,0 -1.569,3.591 -7.495,4.726 C 67.716,85.39 65.31,52.568 65.31,52.568 Z"
     id="path3757"
     inkscape:connector-curvature="0"
     style="fill:#aab8c2;fill-opacity:1" /></svg>