<?xml version="1.0" encoding="UTF-8" ?>
<!DOCTYPE svg PUBLIC "-//W3C//DTD SVG 1.1//EN" "http://www.w3.org/Graphics/SVG/1.1/DTD/svg11.dtd">
<svg width="1001pt" height="914pt" viewBox="0 0 1001 914" version="1.1" xmlns="http://www.w3.org/2000/svg">
<g id="#aab8c2ff">
<path fill="#aab8c2" opacity="1.00" d=" M 114.69 40.78 C 153.69 14.32 200.89 0.23 248.01 0.80 C 260.41 1.28 272.84 1.81 285.16 3.49 C 326.47 8.98 366.41 24.07 401.29 46.84 C 443.73 74.46 478.81 113.88 499.29 160.34 C 525.16 103.49 572.12 57.05 628.18 29.91 C 664.80 12.12 705.22 2.27 745.91 1.12 C 767.07 0.53 788.40 2.06 809.02 7.07 C 845.98 15.86 880.55 34.14 909.01 59.25 C 929.32 77.40 947.16 98.44 960.99 121.94 C 979.58 153.15 991.72 188.06 997.48 223.89 C 999.61 238.11 1001.38 252.48 1000.60 266.88 C 997.97 368.43 970.16 468.91 922.20 558.33 C 880.79 635.69 824.56 704.86 758.32 762.31 C 683.36 827.54 596.05 878.20 502.90 912.59 C 501.38 912.96 499.80 914.17 498.23 913.33 C 414.69 881.76 335.14 838.61 265.45 782.55 C 236.49 759.05 208.85 733.87 183.52 706.47 C 155.88 676.67 130.75 644.52 108.56 610.46 C 52.99 525.24 15.69 427.52 4.39 326.19 C 2.25 308.98 0.74 291.70 0.00 274.37 L 0.00 253.89 C 1.92 207.32 15.25 161.14 39.28 121.15 C 58.26 89.37 84.11 61.66 114.69 40.78 Z" />
</g>
</svg>
