<?xml version="1.0" encoding="UTF-8" standalone="no"?>
<svg
   xmlns:dc="http://purl.org/dc/elements/1.1/"
   xmlns:cc="http://creativecommons.org/ns#"
   xmlns:rdf="http://www.w3.org/1999/02/22-rdf-syntax-ns#"
   xmlns:svg="http://www.w3.org/2000/svg"
   xmlns="http://www.w3.org/2000/svg"
   xmlns:sodipodi="http://sodipodi.sourceforge.net/DTD/sodipodi-0.dtd"
   xmlns:inkscape="http://www.inkscape.org/namespaces/inkscape"
   data-name="Layer 1"
   viewBox="0 0 313.14484 511.98999"
   x="0px"
   y="0px"
   version="1.1"
   id="svg22"
   sodipodi:docname="ic-exit.svg"
   width="313.14484"
   height="511.98999"
   inkscape:version="0.92.2 (5c3e80d, 2017-08-06)">
  <metadata
     id="metadata26">
    <rdf:RDF>
      <cc:Work
         rdf:about="">
        <dc:format>image/svg+xml</dc:format>
        <dc:type
           rdf:resource="http://purl.org/dc/dcmitype/StillImage" />
        <dc:title>l5</dc:title>
      </cc:Work>
    </rdf:RDF>
  </metadata>
  <sodipodi:namedview
     pagecolor="#ffffff"
     bordercolor="#666666"
     borderopacity="1"
     objecttolerance="10"
     gridtolerance="10"
     guidetolerance="10"
     inkscape:pageopacity="0"
     inkscape:pageshadow="2"
     inkscape:window-width="1366"
     inkscape:window-height="705"
     id="namedview24"
     showgrid="false"
     inkscape:zoom="0.26074563"
     inkscape:cx="-207.38519"
     inkscape:cy="118.70649"
     inkscape:window-x="-8"
     inkscape:window-y="-8"
     inkscape:window-maximized="1"
     inkscape:current-layer="svg22"
     fit-margin-top="0"
     fit-margin-left="0"
     fit-margin-right="0"
     fit-margin-bottom="0" />
  <defs
     id="defs4">
    <style
       id="style2">.cls-1{fill:none;}</style>
  </defs>
  <title
     id="title6">l5</title>
  <path
     class="cls-1"
     d="m 161.11,238.99 c -7.34,0.32 -10.64,3.92 -12.7,8.72 -3.26,7.6 -2.55,15 2.51,21.62 4.4,5.74 11.56,6.05 16.49,1.07 6.79,-6.85 7,-21 0,-27.75 -2,-1.95 -4.93,-2.92 -6.3,-3.66 z"
     id="path8"
     inkscape:connector-curvature="0"
     style="fill:none" />
  <path
     d="M 158.33,8.07 Q 81.94,26.83 5.48,45.32 C 1.05,46.4 0.84,48.99 0.84,52.52 Q 0.7,132.4 0.45,212.29 0.23,327.99 0,443.67 c 0,4.63 1.06,6.92 5.79,8.51 q 86.2,28.92 172.26,58.27 c 1.55,0.52 3.15,0.89 5.49,1.54 0.2,-3.72 0.51,-7 0.54,-10.23 q 0.82,-82.88 1.59,-165.76 1.46,-140.72 3,-281.44 c 0.2,-18.19 0.56,-36.37 0.85,-54.56 h -1 c -10.04,2.69 -20.06,5.58 -30.19,8.07 z m 9.08,262.32 c -4.93,5 -12.1,4.67 -16.49,-1.07 -5.07,-6.61 -5.77,-14 -2.51,-21.62 2.06,-4.8 5.36,-8.4 12.7,-8.72 1.37,0.77 4.3,1.74 6.3,3.67 6.96,6.7 6.8,20.88 0.01,27.73 z"
     id="path10"
     inkscape:connector-curvature="0"
     style="fill:#aab8c2;fill-opacity:1" />
  <path
     d="m 281.1,58.91 c 4.46,0 6.06,1.06 6,5.82 -0.22,30.38 -0.07,60.77 -0.07,91.16 v 196.02271 c 8,0 16.11,2.1639 24,1.8139 0,185.08475 2,15.91305 2,-192.52661 0.15,-18.86 0.11,-37.73 0.11,-56.59 V 38.5 c 0,-3 0,-5.36 -4.34,-5.33 -30.38,0.17 -60.77,0.09 -91.15,0.11 -0.8606,0.03623 -1.71855,0.11969 -2.57,0.25 v 25.46 h 6 c 19.97,0 39.97,0.13 60.02,-0.08 z"
     id="path14"
     inkscape:connector-curvature="0"
     style="fill:#aab8c2;fill-opacity:1"
     sodipodi:nodetypes="ccscccssccccsc" />
  <path
     d="m 307.77,345.99 c -6.78,0.27 -13.72,0.07 -20.72,0.07 v 90.93 h -76 v 26.29 c 2,0.09 3.06,0.25 4.52,0.25 30.69,0 61.35,-0.09 92,0.12 4.53,0 5.58,-1.38 5.56,-5.64 q -0.21,-53.3 0,-106.59 c 0.09,-4.2 -1.25,-5.55 -5.36,-5.43 z"
     id="path16"
     inkscape:connector-curvature="0"
     style="fill:#aab8c2;fill-opacity:1" />
</svg>
