<?xml version="1.0" encoding="UTF-8" standalone="no"?>
<svg
   xmlns:dc="http://purl.org/dc/elements/1.1/"
   xmlns:cc="http://creativecommons.org/ns#"
   xmlns:rdf="http://www.w3.org/1999/02/22-rdf-syntax-ns#"
   xmlns:svg="http://www.w3.org/2000/svg"
   xmlns="http://www.w3.org/2000/svg"
   xmlns:sodipodi="http://sodipodi.sourceforge.net/DTD/sodipodi-0.dtd"
   xmlns:inkscape="http://www.inkscape.org/namespaces/inkscape"
   width="100pt"
   height="100pt"
   viewBox="0 0 100 100"
   version="1.1"
   id="svg7"
   sodipodi:docname="ic-exit.svg"
   inkscape:version="0.92.2 (5c3e80d, 2017-08-06)">
  <metadata
     id="metadata13">
    <rdf:RDF>
      <cc:Work
         rdf:about="">
        <dc:format>image/svg+xml</dc:format>
        <dc:type
           rdf:resource="http://purl.org/dc/dcmitype/StillImage" />
      </cc:Work>
    </rdf:RDF>
  </metadata>
  <defs
     id="defs11" />
  <sodipodi:namedview
     pagecolor="#ffffff"
     bordercolor="#666666"
     borderopacity="1"
     objecttolerance="10"
     gridtolerance="10"
     guidetolerance="10"
     inkscape:pageopacity="0"
     inkscape:pageshadow="2"
     inkscape:window-width="1366"
     inkscape:window-height="705"
     id="namedview9"
     showgrid="false"
     inkscape:zoom="1.77"
     inkscape:cx="66.666667"
     inkscape:cy="66.666667"
     inkscape:window-x="-8"
     inkscape:window-y="-8"
     inkscape:window-maximized="1"
     inkscape:current-layer="svg7" />
  <g
     id="#000000ff"
     style="fill:#9bacb7;fill-opacity:1">
    <path
       opacity="1.00"
       d=" M 42.47 10.75 C 53.11 8.72 64.72 11.05 73.31 17.76 C 75.80 19.79 73.06 24.36 70.09 23.12 C 67.31 21.89 64.88 19.99 62.01 18.95 C 50.90 14.51 37.55 16.79 28.46 24.54 C 17.12 33.85 13.40 50.96 19.83 64.15 C 25.76 77.28 40.88 85.36 55.11 82.91 C 60.58 82.27 65.35 79.44 70.09 76.88 C 73.01 75.51 75.83 80.23 73.32 82.24 C 61.42 91.49 44.08 92.37 30.97 85.14 C 21.24 79.87 13.83 70.45 11.21 59.68 C 8.79 50.08 10.10 39.59 14.87 30.92 C 20.46 20.54 30.88 12.90 42.47 10.75 Z"
       id="path2"
       style="fill:#9bacb7;fill-opacity:1" />
    <path
       opacity="1.00"
       d=" M 73.76 38.18 C 72.15 35.85 74.89 32.45 77.53 33.46 C 80.44 35.08 82.43 37.91 84.86 40.15 C 87.61 43.14 90.95 45.63 93.24 49.02 C 93.96 51.32 91.72 52.88 90.39 54.36 C 86.21 58.20 82.56 62.61 78.20 66.26 C 75.67 68.14 71.81 64.39 73.72 61.83 C 76.15 58.69 79.26 56.16 81.97 53.27 C 69.95 53.16 57.92 53.46 45.91 53.14 C 42.40 52.96 42.55 46.87 46.03 46.77 C 57.98 46.50 69.95 46.76 81.90 46.66 C 79.26 43.77 76.14 41.30 73.76 38.18 Z"
       id="path4"
       style="fill:#9bacb7;fill-opacity:1" />
  </g>
</svg>
