<?xml version="1.0" encoding="UTF-8" standalone="no"?>
<svg
   xmlns:dc="http://purl.org/dc/elements/1.1/"
   xmlns:cc="http://creativecommons.org/ns#"
   xmlns:rdf="http://www.w3.org/1999/02/22-rdf-syntax-ns#"
   xmlns:svg="http://www.w3.org/2000/svg"
   xmlns="http://www.w3.org/2000/svg"
   xmlns:sodipodi="http://sodipodi.sourceforge.net/DTD/sodipodi-0.dtd"
   xmlns:inkscape="http://www.inkscape.org/namespaces/inkscape"
   version="1.1"
   x="0px"
   y="0px"
   viewBox="0 0 52.591378 54.837459"
   xml:space="preserve"
   id="svg8"
   sodipodi:docname="ic-medal-gold.svg"
   width="52.591377"
   height="54.83746"
   inkscape:version="0.92.2 (5c3e80d, 2017-08-06)"><metadata
     id="metadata14"><rdf:RDF><cc:Work
         rdf:about=""><dc:format>image/svg+xml</dc:format><dc:type
           rdf:resource="http://purl.org/dc/dcmitype/StillImage" /><dc:title></dc:title></cc:Work></rdf:RDF></metadata><defs
     id="defs12" /><sodipodi:namedview
     pagecolor="#ffffff"
     bordercolor="#666666"
     borderopacity="1"
     objecttolerance="10"
     gridtolerance="10"
     guidetolerance="10"
     inkscape:pageopacity="0"
     inkscape:pageshadow="2"
     inkscape:window-width="1366"
     inkscape:window-height="705"
     id="namedview10"
     showgrid="false"
     fit-margin-top="0"
     fit-margin-left="0"
     fit-margin-right="0"
     fit-margin-bottom="0"
     inkscape:zoom="2.36"
     inkscape:cx="62.584538"
     inkscape:cy="4.8695829"
     inkscape:window-x="-8"
     inkscape:window-y="-8"
     inkscape:window-maximized="1"
     inkscape:current-layer="svg8" /><path
     style="fill:#aab8c2;fill-opacity:1;stroke-width:0.1;stroke-miterlimit:4;stroke-dasharray:none"
     d="M 5.2448624,0.14154004 C 1.6077348,-0.74242136 -1.1109754,2.6701121 0.44994057,6.0360713 2.075545,16.35092 10.376857,26.875283 21.285878,27.713806 c 0.578288,10.877118 0.106839,14.885501 1.149364,25.640823 2.154604,3.534215 7.175357,0.09679 5.602853,-3.490229 C 28.020086,39.860636 27.63547,36.953844 27.303456,26.955993 36.74538,26.662254 49.02925,23.80274 52.420643,13.737243 53.819965,7.7978747 46.289694,5.3778537 41.809315,7.4169307 35.991457,8.8742039 30.220104,12.342513 26.229237,16.241149 23.654993,7.0422853 14.961605,-0.12311256 5.2448624,0.14154004 Z M 6.6804093,6.29779 C 14.466771,6.5422607 21.028546,14.696738 20.709706,21.741149 13.648722,20.394633 8.0767862,13.058574 6.6804093,6.29779 Z m 38.4785147,7.552735 c -1.746002,5.232367 -9.535753,7.298298 -13.416015,6.101562 2.295854,-5.274437 10.772388,-7.705009 13.416015,-6.101562 z"
     id="path2"
     inkscape:connector-curvature="0"
     sodipodi:nodetypes="cccccccccccccccc" /></svg>