<?xml version="1.0" encoding="UTF-8" standalone="no"?>
<svg
   xmlns:dc="http://purl.org/dc/elements/1.1/"
   xmlns:cc="http://creativecommons.org/ns#"
   xmlns:rdf="http://www.w3.org/1999/02/22-rdf-syntax-ns#"
   xmlns:svg="http://www.w3.org/2000/svg"
   xmlns="http://www.w3.org/2000/svg"
   xmlns:sodipodi="http://sodipodi.sourceforge.net/DTD/sodipodi-0.dtd"
   xmlns:inkscape="http://www.inkscape.org/namespaces/inkscape"
   version="1.1"
   x="0px"
   y="0px"
   viewBox="0 0 47.482422 48.026489"
   enable-background="new 0 0 52 52"
   xml:space="preserve"
   id="svg78"
   sodipodi:docname="medal-gold.svg"
   width="47.482422"
   height="48.026489"
   inkscape:version="0.92.2 (5c3e80d, 2017-08-06)"><metadata
     id="metadata84"><rdf:RDF><cc:Work
         rdf:about=""><dc:format>image/svg+xml</dc:format><dc:type
           rdf:resource="http://purl.org/dc/dcmitype/StillImage" /><dc:title /></cc:Work></rdf:RDF></metadata><defs
     id="defs82" /><sodipodi:namedview
     pagecolor="#ffffff"
     bordercolor="#666666"
     borderopacity="1"
     objecttolerance="10"
     gridtolerance="10"
     guidetolerance="10"
     inkscape:pageopacity="0"
     inkscape:pageshadow="2"
     inkscape:window-width="1366"
     inkscape:window-height="705"
     id="namedview80"
     showgrid="false"
     inkscape:measure-start="58.9366,0.485075"
     inkscape:measure-end="-6.54851,0.848881"
     fit-margin-top="0"
     fit-margin-left="0"
     fit-margin-right="0"
     fit-margin-bottom="0"
     inkscape:zoom="8.2461538"
     inkscape:cx="43.229973"
     inkscape:cy="27.214734"
     inkscape:window-x="-8"
     inkscape:window-y="-8"
     inkscape:window-maximized="1"
     inkscape:current-layer="g72" /><g
     id="g72"
     transform="translate(-2.2587891,-1.9867554)"
     style="fill:#ffcc3f;fill-opacity:0.94117647"><path
       d="m 29.194336,19.650818 c 0.614258,-0.33252 1.326172,-0.607422 2.145996,-0.607422 0.519531,0 1.012207,0.10791 1.463867,0.321289 1.249024,0.523926 1.801758,1.599121 2.085938,2.552734 0.161621,-0.01514 0.328613,-0.02441 0.500488,-0.02441 1.054626,0 1.801941,0.344361 2.312012,0.723389 L 49.741211,1.9867554 H 36.40918 L 27.448242,18.24823 c 0.753967,0.322632 1.322144,0.872009 1.746094,1.402588 z"
       id="path66"
       inkscape:connector-curvature="0"
       style="fill:#aab8c2;fill-opacity:1" /><path
       d="m 16.730469,21.893005 c 0.18457,0 0.365234,0.0098 0.541992,0.02588 0.288086,-0.951172 0.860352,-2.063476 2.182617,-2.619629 0.40332,-0.178222 0.876953,-0.275879 1.375488,-0.275879 0.822754,0 1.532227,0.276856 2.127442,0.598633 0.403015,-0.497131 0.930237,-1.009094 1.617554,-1.330505 L 15.59082,1.9867554 H 2.2587891 L 14.341492,22.691956 c 0.645508,-0.511963 1.458374,-0.798951 2.388977,-0.798951 z"
       id="path68"
       inkscape:connector-curvature="0"
       style="fill:#aab8c2;fill-opacity:1" /><path
       d="m 40.490479,34.043274 c -1.059998,-0.780029 -1.619996,-1.359985 -1.759949,-1.559998 0.07996,-0.200012 0.319946,-0.570007 0.46997,-0.799988 0.51001,-0.770019 1.080018,-1.640014 0.700013,-2.530029 -0.369995,-0.880005 -1.369995,-1.080017 -2.26001,-1.25 -0.229981,-0.03998 -0.570007,-0.109985 -0.780029,-0.179993 0.01001,-0.220031 0.08002,-0.570007 0.130005,-0.799987 0.170043,-0.880005 0.369995,-1.880005 -0.309998,-2.559998 -0.309998,-0.309997 -0.73999,-0.470032 -1.289978,-0.470032 -0.409973,0 -0.840027,0.09003 -1.26001,0.170044 -0.26001,0.04999 -0.529968,0.09998 -0.779968,0.119995 -0.06,-0.210022 -0.119995,-0.540039 -0.170044,-0.760009 -0.159973,-0.880005 -0.349976,-1.880005 -1.229981,-2.25 -0.190002,-0.09003 -0.390014,-0.130005 -0.609985,-0.130005 -0.679993,0 -1.320007,0.419983 -1.940002,0.820007 -0.210022,0.139954 -0.54004,0.349976 -0.75,0.450012 -0.150025,-0.170044 -0.369996,-0.5 -0.52002,-0.710022 -0.51001,-0.770019 -1.099976,-1.640014 -2.070007,-1.640014 -0.969971,0 -1.549988,0.869995 -2.059998,1.630005 -0.140014,0.210022 -0.359985,0.530029 -0.51001,0.690002 -0.199951,-0.09003 -0.519958,-0.299988 -0.72998,-0.440002 -0.619995,-0.400025 -1.25,-0.820008 -1.929993,-0.820008 -0.220032,0 -0.419983,0.04004 -0.599975,0.119995 -0.880005,0.369995 -1.080017,1.369995 -1.25,2.26001 -0.05005,0.229981 -0.110047,0.580017 -0.180054,0.780029 -0.219971,-0.01001 -0.509949,-0.07001 -0.799988,-0.119995 -0.419983,-0.09003 -0.849975,-0.170044 -1.269958,-0.170044 -0.54004,0 -0.980042,0.160035 -1.290039,0.470032 -0.679993,0.669983 -0.479981,1.669983 -0.309998,2.549988 0.04999,0.219971 0.109985,0.559997 0.130005,0.779968 -0.210022,0.06 -0.539978,0.130005 -0.77002,0.170044 -0.880005,0.169983 -1.880005,0.359985 -2.25,1.229981 -0.380005,0.890014 0.190003,1.770019 0.700012,2.549987 0.140015,0.220032 0.350037,0.549988 0.440003,0.75 -0.159973,0.160035 -0.48999,0.380005 -0.700012,0.52002 -0.769959,0.520019 -1.639954,1.099975 -1.639954,2.070007 0,0.969971 0.859986,1.549988 1.630005,2.070007 0.199951,0.139954 0.519958,0.349976 0.689941,0.5 -0.09998,0.199952 -0.309997,0.519959 -0.439941,0.729981 -0.51001,0.770019 -1.080017,1.650024 -0.700012,2.539978 0.369995,0.880005 1.369995,1.070007 2.26001,1.25 0.22998,0.04004 0.569946,0.110046 0.779968,0.179993 -0.01001,0.210022 -0.08002,0.560058 -0.130005,0.790039 -0.169983,0.890014 -0.369995,1.890014 0.309998,2.570007 0.309997,0.309998 0.73999,0.469971 1.290039,0.469971 0.409973,0 0.839966,-0.08997 1.25,-0.169983 0.269958,-0.04999 0.539978,-0.109986 0.779968,-0.119995 0.07001,0.209961 0.130005,0.539978 0.169983,0.76001 0.170044,0.880005 0.360046,1.880005 1.240051,2.25 0.189942,0.07996 0.389954,0.119995 0.599976,0.119995 0.690002,0 1.330017,-0.410035 1.950012,-0.809998 0.209961,-0.140015 0.539978,-0.360046 0.75,-0.450012 0.149963,0.169983 0.369995,0.48999 0.51001,0.700012 0.519958,0.769959 1.109985,1.649963 2.079956,1.649963 0.970032,0 1.549988,-0.869995 2.059998,-1.630004 0.140014,-0.209961 0.360046,-0.529969 0.510009,-0.699952 0.200012,0.09998 0.52002,0.309998 0.729981,0.449952 0.620056,0.400024 1.25,0.820007 1.930053,0.820007 0.219971,0 0.419983,-0.03998 0.599976,-0.119995 0.880005,-0.369995 1.080017,-1.380005 1.25,-2.26001 0.04999,-0.229981 0.109986,-0.579956 0.179993,-0.789978 0.220032,0.02002 0.51001,0.07001 0.799988,0.130005 0.420044,0.08002 0.850036,0.169983 1.270019,0.169983 0.539978,0 0.979981,-0.159973 1.289978,-0.469971 0.670044,-0.679993 0.480042,-1.670044 0.309998,-2.549988 -0.04999,-0.220031 -0.109986,-0.560058 -0.130005,-0.780029 0.210022,-0.06 0.540039,-0.130005 0.770019,-0.169983 0.880005,-0.170044 1.869995,-0.360046 2.25,-1.230041 0.380005,-0.899964 -0.190002,-1.779969 -0.700012,-2.559998 -0.149963,-0.229981 -0.380005,-0.589966 -0.459961,-0.789978 0.169983,-0.26001 0.729981,-0.840027 1.769959,-1.599976 0.300048,-0.230041 0.470031,-0.580017 0.470031,-0.950012 0,-0.369995 -0.179992,-0.720031 -0.470031,-0.940002 z m -9.559998,1.919983 1.160034,6.780029 -6.090027,-3.200012 -6.089966,3.200012 1.159974,-6.780029 -4.929993,-4.799988 6.809997,-0.98999 3.049988,-6.179993 3.049988,6.179993 6.809998,0.98999 z"
       id="path70"
       inkscape:connector-curvature="0"
       style="fill:#ffcc33;fill-opacity:1" /></g></svg>