<?xml version="1.0" encoding="UTF-8" standalone="no"?>
<svg
   xmlns:dc="http://purl.org/dc/elements/1.1/"
   xmlns:cc="http://creativecommons.org/ns#"
   xmlns:rdf="http://www.w3.org/1999/02/22-rdf-syntax-ns#"
   xmlns:svg="http://www.w3.org/2000/svg"
   xmlns="http://www.w3.org/2000/svg"
   xmlns:sodipodi="http://sodipodi.sourceforge.net/DTD/sodipodi-0.dtd"
   xmlns:inkscape="http://www.inkscape.org/namespaces/inkscape"
   version="1.1"
   x="0px"
   y="0px"
   viewBox="0 0 39.016953 59.900002"
   xml:space="preserve"
   id="svg8"
   sodipodi:docname="noun_1143673_cc.svg"
   width="39.016953"
   height="59.900002"
   inkscape:version="0.92.2 (5c3e80d, 2017-08-06)"><metadata
     id="metadata14"><rdf:RDF><cc:Work
         rdf:about=""><dc:format>image/svg+xml</dc:format><dc:type
           rdf:resource="http://purl.org/dc/dcmitype/StillImage" /><dc:title></dc:title></cc:Work></rdf:RDF></metadata><defs
     id="defs12" /><sodipodi:namedview
     pagecolor="#ffffff"
     bordercolor="#666666"
     borderopacity="1"
     objecttolerance="10"
     gridtolerance="10"
     guidetolerance="10"
     inkscape:pageopacity="0"
     inkscape:pageshadow="2"
     inkscape:window-width="1920"
     inkscape:window-height="1017"
     id="namedview10"
     showgrid="false"
     fit-margin-top="0"
     fit-margin-left="0"
     fit-margin-right="0"
     fit-margin-bottom="0"
     inkscape:zoom="1.888"
     inkscape:cx="19.508476"
     inkscape:cy="17.5"
     inkscape:window-x="-8"
     inkscape:window-y="-8"
     inkscape:window-maximized="1"
     inkscape:current-layer="svg8" /><path
     d="m 39.008476,39.9 c 0.1,0.9 -0.7,1.8 -1.6,1.8 h -15.7 v 16 c 0,1.2 -1,2.2 -2.2,2.2 -1.2,0 -2.2,-1 -2.2,-2.2 v -16 H 1.6084759 c -0.90000005,0 -1.70000005,-0.8 -1.60000005,-1.8 0.6,-6.2 4.00000005,-11.6 9.10000005,-14.8 V 11.6 c -2.7,-2.5 -4.6,-5.9 -5.1,-9.7 -0.1,-1 0.7,-1.9 1.7,-1.9 H 33.308476 c 1,0 1.9,0.9 1.7,1.9 -0.5,3.9 -2.3,7.3 -5.1,9.7 v 13.5 c 5.1,3.2 8.5,8.5 9.1,14.8 z"
     id="path2"
     inkscape:connector-curvature="0"
     style="fill:#aab8c2;fill-opacity:1" /></svg>