<?xml version="1.0" encoding="UTF-8" standalone="no"?>
<svg
   xmlns:dc="http://purl.org/dc/elements/1.1/"
   xmlns:cc="http://creativecommons.org/ns#"
   xmlns:rdf="http://www.w3.org/1999/02/22-rdf-syntax-ns#"
   xmlns:svg="http://www.w3.org/2000/svg"
   xmlns="http://www.w3.org/2000/svg"
   xmlns:sodipodi="http://sodipodi.sourceforge.net/DTD/sodipodi-0.dtd"
   xmlns:inkscape="http://www.inkscape.org/namespaces/inkscape"
   version="1.1"
   x="0px"
   y="0px"
   viewBox="0 0 70.000671 171.94669"
   enable-background="new 0 0 100 100"
   xml:space="preserve"
   id="svg8"
   sodipodi:docname="ic-share-2.svg"
   width="70.000671"
   height="171.94669"
   inkscape:version="0.92.2 (5c3e80d, 2017-08-06)"><metadata
     id="metadata14"><rdf:RDF><cc:Work
         rdf:about=""><dc:format>image/svg+xml</dc:format><dc:type
           rdf:resource="http://purl.org/dc/dcmitype/StillImage" /><dc:title></dc:title></cc:Work></rdf:RDF></metadata><defs
     id="defs12" /><sodipodi:namedview
     pagecolor="#ffffff"
     bordercolor="#666666"
     borderopacity="1"
     objecttolerance="10"
     gridtolerance="10"
     guidetolerance="10"
     inkscape:pageopacity="0"
     inkscape:pageshadow="2"
     inkscape:window-width="1920"
     inkscape:window-height="1017"
     id="namedview10"
     showgrid="false"
     fit-margin-top="0"
     fit-margin-left="0"
     fit-margin-right="0"
     fit-margin-bottom="4.5"
     inkscape:zoom="5.3400704"
     inkscape:cx="-58.529523"
     inkscape:cy="72.869054"
     inkscape:window-x="-8"
     inkscape:window-y="-8"
     inkscape:window-maximized="1"
     inkscape:current-layer="svg8"
     inkscape:measure-start="-1.56833,37.4059"
     inkscape:measure-end="-0.0234079,38.0847"
     scale-x="1" /><path
     d="m 57.100673,25.800004 c 7.1,0 12.9,-5.8 12.9,-12.9 0,-7.100007 -5.8,-12.900004 -12.9,-12.900004 -7.1,0 -12.9,5.799997 -12.9,12.900004 0,1.4 0.2,2.7 0.6,3.9 l -22.3,12.9 c -2.4,-2.6 -5.8,-4.2 -9.5,-4.2 -7.1999999,0 -12.99999994894,5.8 -12.99999994894,12.9 0,7.1 5.80000004894,12.9 12.89999994894,12.9 3.8,0 7.2,-1.6 9.5,-4.2 l 22.3,12.9 c -0.4,1.2 -0.6,2.6 -0.6,3.9 0,7.1 5.8,12.9 12.9,12.9 7.1,0 12.9,-5.8 12.9,-12.9 0,-7.1 -5.8,-12.9 -12.9,-12.9 -3.8,0 -7.2,1.6 -9.5,4.2 l -22.3,-12.9 c 0.4,-1.2 0.6,-2.6 0.6,-3.9 0,-1.4 -0.2,-2.7 -0.6,-3.9 l 22.3,-12.9 c 2.4,2.6 5.8,4.2 9.6,4.2 z"
     id="path2"
     inkscape:connector-curvature="0"
     style="fill:#aab8c2;fill-opacity:1" /><path
     style="fill:#00acc1;fill-opacity:1"
     inkscape:connector-curvature="0"
     id="path2-8"
     d="m 57.1,116.44667 c 7.1,0 12.9,-5.8 12.9,-12.9 0,-7.100005 -5.8,-12.900005 -12.9,-12.900005 -7.1,0 -12.9,5.8 -12.9,12.900005 0,1.4 0.2,2.7 0.6,3.9 l -22.3,12.9 c -2.4,-2.6 -5.8,-4.2 -9.5,-4.2 -7.2,0 -13,5.8 -13,12.90001 0,7.1 5.8,12.9 12.9,12.9 3.8,0 7.2,-1.6 9.5,-4.2 l 22.3,12.9 c -0.4,1.2 -0.6,2.6 -0.6,3.9 0,7.1 5.8,12.9 12.9,12.9 7.1,0 12.9,-5.8 12.9,-12.9 0,-7.1 -5.8,-12.9 -12.9,-12.9 -3.8,0 -7.2,1.6 -9.5,4.2 l -22.3,-12.9 c 0.4,-1.2 0.6,-2.6 0.6,-3.9 0,-1.40001 -0.2,-2.70001 -0.6,-3.90001 l 22.3,-12.9 c 2.4,2.6 5.8,4.2 9.6,4.2 z" /></svg>