<?xml version="1.0" encoding="utf-8"?>
<!-- Generated by IcoMoon.io -->
<svg version="1.1" xmlns="http://www.w3.org/2000/svg" xmlns:xlink="http://www.w3.org/1999/xlink" width="88" height="136" viewBox="0 0 88 136">
<svg id="icon-logo" width="19" height="16" viewBox="0 0 19 16" x="0" y="0">
<path fill="#00acc1" d="M16.117 0h0.018c0.098 0.177 0.212 0.346 0.288 0.534 0.158 0.448 0.172 0.932 0.14 1.401-0.037 0.206-0.057 0.418-0.135 0.615-0.022 0.049-0.040 0.102-0.080 0.138-0.497 0.442-1.082 0.779-1.7 1.020-0.087 0.033-0.173 0.068-0.263 0.091-0.554 0.149-1.123 0.255-1.697 0.265-1.555 0.006-3.111-0.008-4.666 0.004-0.098-0.001-0.197 0.008-0.295 0.012-0.42 0.020-0.841 0.037-1.257 0.104-0.789 0.122-1.529 0.491-2.133 1.008-0.766 0.656-1.326 1.569-1.493 2.569-0.11 0.621-0.117 1.262 0.002 1.882 0.186 0.99 0.748 1.891 1.511 2.542 0.686 0.586 1.555 0.967 2.459 1.028 0.308 0.022 0.62 0.024 0.922 0.097 0.405 0.102 0.745 0.419 0.883 0.812 0.069 0.2 0.074 0.416 0.069 0.626-0.003 0.067-0.001 0.135-0.010 0.201-0.058 0.309-0.228 0.598-0.482 0.786-0.182 0.13-0.394 0.219-0.616 0.247-0.076 0.010-0.152 0.015-0.228 0.019h-0.254c-0.174-0.011-0.349 0-0.522-0.020-0.784-0.073-1.557-0.268-2.278-0.585-0.333-0.144-0.65-0.321-0.953-0.521-0.77-0.506-1.451-1.148-1.994-1.892-0.568-0.778-0.98-1.672-1.179-2.616-0.114-0.53-0.165-1.072-0.175-1.613v-0.298c0.006-0.178 0.007-0.356 0.026-0.533 0.083-0.863 0.314-1.713 0.695-2.493 0.212-0.435 0.475-0.845 0.771-1.227 0.908-1.17 2.161-2.087 3.582-2.525 0.38-0.119 0.773-0.195 1.167-0.25 0.517-0.070 1.041-0.078 1.561-0.046 1.187 0.035 2.374-0.002 3.56 0.019 0.367-0.004 0.73-0.055 1.092-0.108 0.172-0.028 0.347-0.043 0.518-0.082 0.519-0.108 1.038-0.248 1.514-0.485 0.548-0.232 1.034-0.618 1.631-0.724z"></path>
<path fill="#00acc1" d="M16.921 4.641c0.151-0.060 0.307-0.108 0.468-0.133 0.073 0.111 0.137 0.231 0.203 0.348 0.121 0.211 0.173 0.452 0.209 0.69 0.041 0.299 0.041 0.602 0.019 0.902-0.043 0.232-0.061 0.476-0.172 0.689-0.019 0.043-0.058 0.070-0.091 0.099-0.404 0.351-0.866 0.634-1.354 0.853-0.223 0.097-0.448 0.195-0.687 0.249-0.558 0.143-1.131 0.238-1.708 0.232-1.358 0-2.717 0-4.076 0-0.172-0.888-0.324-1.78-0.5-2.668 1.206-0.011 2.412 0.010 3.617-0.007 0.093 0.001 0.186-0.014 0.279-0.023 0.721-0.078 1.445-0.191 2.13-0.436 0.328-0.126 0.645-0.28 0.957-0.44 0.236-0.118 0.459-0.26 0.705-0.358z"></path>
<path fill="#00acc1" d="M17.652 9.364c0.282-0.161 0.583-0.299 0.906-0.348 0.116 0.214 0.263 0.417 0.327 0.655 0.112 0.381 0.126 0.782 0.108 1.176-0.001 0.12-0.032 0.236-0.048 0.354-0.030 0.168-0.062 0.344-0.158 0.488-0.549 0.496-1.209 0.858-1.904 1.105-0.575 0.161-1.167 0.274-1.765 0.286-0.819 0-1.639-0.001-2.458 0.002-0.727-0.004-1.455-0.001-2.182-0.002-0.145-0.902-0.323-1.798-0.493-2.695 1.357 0.054 2.716 0.019 4.074 0.021 0.694-0.065 1.39-0.159 2.060-0.358 0.206-0.061 0.409-0.133 0.604-0.223 0.317-0.139 0.626-0.295 0.93-0.46z"></path>
</svg>
<svg id="icon-soc-facebook" width="16" height="16" viewBox="0 0 16 16" x="24" y="0">
<path fill="#3b5998" d="M16 8c0 4.418-3.582 8-8 8s-8-3.582-8-8c0-4.418 3.582-8 8-8s8 3.582 8 8z"></path>
<path fill="#fff" d="M10.011 8.313h-1.428v5.23h-2.163v-5.23h-1.029v-1.838h1.029v-1.189c0-0.851 0.404-2.182 2.182-2.182l1.602 0.007v1.784h-1.162c-0.191 0-0.459 0.095-0.459 0.501v1.082h1.616l-0.189 1.836z"></path>
</svg>
<svg id="icon-soc-twitter" width="16" height="16" viewBox="0 0 16 16" x="48" y="0">
<path fill="#55acee" d="M16 8c0 4.418-3.582 8-8 8s-8-3.582-8-8c0-4.418 3.582-8 8-8s8 3.582 8 8z"></path>
<path fill="#f1f2f2" d="M12.9 5.749c-0.343 0.152-0.712 0.255-1.098 0.301 0.395-0.237 0.698-0.611 0.841-1.058-0.37 0.219-0.779 0.378-1.214 0.464-0.349-0.371-0.846-0.604-1.396-0.604-1.056 0-1.912 0.856-1.912 1.912 0 0.15 0.017 0.296 0.050 0.436-1.589-0.080-2.998-0.841-3.941-1.998-0.165 0.282-0.259 0.611-0.259 0.961 0 0.663 0.338 1.249 0.851 1.592-0.313-0.010-0.608-0.096-0.866-0.239-0 0.008-0 0.016-0 0.024 0 0.927 0.659 1.699 1.534 1.875-0.16 0.044-0.33 0.067-0.504 0.067-0.123 0-0.243-0.012-0.36-0.034 0.243 0.76 0.949 1.312 1.786 1.328-0.655 0.513-1.479 0.819-2.375 0.819-0.154 0-0.307-0.009-0.456-0.027 0.846 0.543 1.851 0.859 2.931 0.859 3.517 0 5.441-2.914 5.441-5.441 0-0.083-0.002-0.165-0.006-0.247 0.374-0.27 0.698-0.606 0.954-0.99v0z"></path>
</svg>
<svg id="icon-soc-tumblr" width="16" height="16" viewBox="0 0 16 16" x="72" y="0">
<path fill="#32506d" d="M7.428 0.020c-1.91 0.142-3.652 0.927-5.020 2.264-1.799 1.755-2.662 4.24-2.343 6.736 0.398 3.121 2.599 5.721 5.623 6.64 2.338 0.712 4.939 0.289 6.921-1.121 2.435-1.735 3.702-4.613 3.326-7.559-0.398-3.121-2.599-5.721-5.623-6.64-0.9-0.275-1.949-0.391-2.883-0.321zM8.387 4.572v1.29h2.397v1.604h-2.398l0.007 1.718c0.006 1.453 0.011 1.742 0.035 1.86 0.055 0.267 0.179 0.435 0.437 0.588 0.179 0.107 0.321 0.155 0.54 0.184 0.47 0.065 1.117-0.12 1.67-0.476l0.041-0.026v1.608l-0.16 0.081c-0.418 0.208-0.907 0.363-1.418 0.446-0.289 0.046-0.975 0.055-1.279 0.017-0.583-0.074-1.071-0.26-1.473-0.562-0.177-0.135-0.413-0.382-0.498-0.524-0.087-0.146-0.183-0.395-0.229-0.592-0.039-0.162-0.039-0.214-0.044-2.245l-0.007-2.078h-1.123v-1.447l0.144-0.053c0.424-0.155 0.879-0.459 1.149-0.769 0.323-0.367 0.514-0.745 0.643-1.268 0.044-0.179 0.111-0.551 0.111-0.627 0-0.015 0.203-0.020 0.728-0.020h0.728z"></path>
</svg>
<svg id="icon-soc-pinterest" width="16" height="16" viewBox="0 0 16 16" x="0" y="24">
<path fill="#cb2027" d="M16 8c0 4.418-3.582 8-8 8s-8-3.582-8-8c0-4.418 3.582-8 8-8s8 3.582 8 8z"></path>
<path fill="#f1f2f2" d="M8.646 10.713c-0.605-0.047-0.859-0.347-1.333-0.635-0.261 1.368-0.579 2.679-1.523 3.364-0.292-2.067 0.428-3.62 0.762-5.268-0.569-0.958 0.068-2.887 1.269-2.412 1.478 0.584-1.279 3.563 0.572 3.935 1.932 0.388 2.721-3.353 1.523-4.57-1.732-1.757-5.040-0.040-4.633 2.475 0.099 0.615 0.735 0.802 0.254 1.65-1.108-0.245-1.439-1.119-1.396-2.285 0.069-1.907 1.714-3.243 3.364-3.428 2.087-0.234 4.046 0.766 4.316 2.729 0.304 2.216-0.942 4.615-3.174 4.443v0z"></path>
</svg>
<svg id="icon-soc-linkedin" width="16" height="16" viewBox="0 0 16 16" x="24" y="24">
<path fill="#007ab9" d="M16 8c0 4.418-3.582 8-8 8s-8-3.582-8-8c0-4.418 3.582-8 8-8s8 3.582 8 8z"></path>
<path fill="#f1f2f2" d="M12.78 8.644v3.298h-1.912v-3.077c0-0.773-0.276-1.3-0.968-1.3-0.528 0-0.842 0.355-0.981 0.699-0.050 0.123-0.063 0.294-0.063 0.466v3.212h-1.912c0 0 0.026-5.212 0-5.751h1.913v0.815c-0.004 0.006-0.009 0.013-0.013 0.019h0.013v-0.019c0.254-0.391 0.707-0.95 1.723-0.95 1.258 0 2.201 0.822 2.201 2.588v0zM4.942 3.418c-0.654 0-1.082 0.429-1.082 0.994 0 0.552 0.416 0.994 1.057 0.994h0.012c0.667 0 1.082-0.442 1.082-0.994-0.013-0.564-0.415-0.994-1.069-0.994v0zM3.974 11.942h1.912v-5.751h-1.912v5.751z"></path>
</svg>
<svg id="icon-soc-telegram" width="16" height="16" viewBox="0 0 16 16" x="48" y="24">
<path fill="#40a7e3" d="M6.822 9.59c0.216 0.161 0.433 0.323 0.65 0.485-0.227 0.223-0.453 0.447-0.679 0.67-0.021 0.022-0.041 0.044-0.061 0.066l0.011-0.148c0.026-0.358 0.052-0.716 0.079-1.073zM8.603 6.438c-1.101 0.694-2.201 1.39-3.303 2.084-0.022 0.014-0.047 0.025-0.072 0.036 0.144 0.461 0.288 0.922 0.432 1.384 0.103 0.325 0.209 0.649 0.307 0.975 0.040 0.135 0.11 0.208 0.256 0.182 0.041-0.552 0.080-1.103 0.121-1.655 0.005-0.064 0.012-0.13 0.020-0.194-0.062-0.036-0.035-0.104-0.013-0.127 0.038-0.039 0.076-0.079 0.114-0.119 0.014-0.013 0.028-0.025 0.041-0.038 0.019-0.020 0.038-0.040 0.057-0.059 0.091-0.085 0.182-0.171 0.273-0.256 0.052-0.049 0.104-0.098 0.157-0.147 0.141-0.132 0.282-0.265 0.426-0.395 0.366-0.332 0.739-0.657 1.105-0.988 0.467-0.422 0.933-0.846 1.395-1.274 0.034-0.047 0.056-0.108 0.086-0.16-0.083 0.011-0.18-0.003-0.246 0.036-0.389 0.232-0.773 0.473-1.156 0.715zM16 8c0 4.418-3.582 8-8 8s-8-3.582-8-8c0-4.418 3.581-8 8-8s8 3.582 8 8zM11.572 4.813c-0.004-0.031-0.007-0.062-0.013-0.092-0.070-0.34-0.257-0.442-0.59-0.328-0.049 0.016-0.099 0.027-0.149 0.041-0.186 0.077-0.37 0.159-0.558 0.229-0.312 0.118-0.628 0.228-0.943 0.342-0.192 0.080-0.383 0.164-0.577 0.239-0.486 0.19-0.972 0.376-1.459 0.564-1.001 0.386-2.002 0.772-3.004 1.158-0.225 0.087-0.452 0.169-0.675 0.262-0.196 0.081-0.396 0.159-0.576 0.268-0.080 0.048-0.168 0.174-0.159 0.254s0.132 0.15 0.208 0.222c0.014 0.013 0.037 0.017 0.057 0.023 0.531 0.164 1.062 0.329 1.593 0.492-0.003 0.055 0.003 0.112 0.021 0.168l0.193 0.619 0.254 0.813c0.030 0.094 0.060 0.187 0.089 0.28 0.072 0.226 0.147 0.46 0.215 0.689 0.149 0.496 0.549 0.535 0.669 0.535 0.018 0 0.037-0.001 0.055-0.002 0.018 0.001 0.037 0.001 0.055 0.001 0.307 0 0.503-0.169 0.621-0.27 0.022-0.019 0.042-0.036 0.057-0.048 0.024-0.018 0.047-0.038 0.066-0.060 0.015-0.016 0.029-0.032 0.044-0.048 0.025-0.027 0.048-0.053 0.068-0.074 0.178-0.176 0.356-0.352 0.535-0.528l0.212-0.209c0.030 0.021 0.060 0.041 0.090 0.062 0.481 0.359 0.962 0.721 1.445 1.078 0.361 0.267 0.613 0.197 0.787-0.21 0.074-0.344 0.148-0.688 0.222-1.031 0.068-0.343 0.134-0.685 0.201-1.027 0.043-0.188 0.085-0.376 0.128-0.564 0.113-0.529 0.225-1.059 0.337-1.589 0.036-0.169 0.072-0.338 0.108-0.507 0.009-0.040 0.019-0.080 0.027-0.121 0.115-0.544 0.229-1.088 0.344-1.632z"></path>
</svg>
<svg id="icon-soc-gp" width="16" height="16" viewBox="0 0 16 16" x="72" y="24">
<path fill="#dc4e41" d="M16 8c0 4.418-3.582 8-8 8s-8-3.582-8-8c0-4.418 3.582-8 8-8s8 3.582 8 8z"></path>
<path fill="#dc4e41" d="M2.785 8.358c-0.028 1.376 0.92 2.69 2.224 3.118 1.228 0.413 2.739 0.104 3.556-0.948 0.597-0.737 0.732-1.72 0.668-2.638-1.052-0.009-2.104-0.006-3.154-0.005-0.002 0.375 0 0.748 0.002 1.123 0.63 0.017 1.26 0.009 1.89 0.022-0.159 0.545-0.521 1.052-1.071 1.249-1.061 0.468-2.416-0.143-2.75-1.257-0.403-1.066 0.257-2.353 1.346-2.663 0.676-0.238 1.372 0.030 1.95 0.381 0.293-0.274 0.567-0.567 0.836-0.863-0.657-0.55-1.501-0.887-2.369-0.813-1.703 0.020-3.193 1.592-3.128 3.293z"></path>
<path fill="#dc4e41" d="M11.281 6.94c-0.003 0.313-0.006 0.628-0.008 0.942-0.315 0.003-0.628 0.005-0.942 0.006 0 0.313 0 0.625 0 0.939 0.313 0.002 0.628 0.003 0.942 0.006 0.003 0.313 0.003 0.627 0.006 0.942 0.312 0 0.625-0.002 0.939 0 0.002-0.315 0.003-0.628 0.006-0.943 0.313-0.002 0.628-0.003 0.942-0.005 0-0.313 0-0.625 0-0.939-0.313-0.002-0.628-0.003-0.942-0.006-0.002-0.313-0.005-0.628-0.006-0.942-0.313-0-0.625-0-0.937-0z"></path>
<path fill="#fff" d="M2.785 8.358c-0.065-1.701 1.425-3.273 3.128-3.293 0.868-0.074 1.712 0.263 2.369 0.813-0.269 0.296-0.543 0.589-0.836 0.863-0.578-0.351-1.274-0.619-1.95-0.381-1.090 0.31-1.75 1.597-1.346 2.663 0.334 1.113 1.688 1.725 2.75 1.257 0.55-0.197 0.912-0.704 1.071-1.249-0.63-0.013-1.26-0.005-1.89-0.022-0.002-0.375-0.003-0.748-0.002-1.123 1.050-0.002 2.102-0.005 3.154 0.005 0.065 0.918-0.071 1.901-0.668 2.638-0.817 1.052-2.328 1.361-3.556 0.948-1.304-0.428-2.252-1.742-2.224-3.118z"></path>
<path fill="#fff" d="M11.281 6.94c0.312 0 0.624 0 0.937 0 0.002 0.313 0.005 0.628 0.006 0.942 0.313 0.003 0.628 0.005 0.942 0.006 0 0.313 0 0.625 0 0.939-0.313 0.002-0.628 0.003-0.942 0.005-0.003 0.315-0.005 0.628-0.006 0.943-0.313-0.002-0.627 0-0.939 0-0.003-0.315-0.003-0.628-0.006-0.942-0.313-0.003-0.628-0.005-0.942-0.006 0-0.313 0-0.625 0-0.939 0.313-0.002 0.627-0.003 0.942-0.006 0.002-0.313 0.005-0.628 0.008-0.942z"></path>
</svg>
<svg id="icon-ic-medal-beginner" width="15" height="16" viewBox="0 0 15 16" x="0" y="48">
<path fill="#aab8c2" d="M1.53 0.041c-1.061-0.258-1.854 0.738-1.399 1.72 0.474 3.010 2.896 6.080 6.079 6.325 0.169 3.174 0.031 4.343 0.335 7.481 0.629 1.031 2.094 0.028 1.635-1.018-0.005-2.919-0.117-3.767-0.214-6.684 2.755-0.086 6.339-0.92 7.328-3.857 0.408-1.733-1.789-2.439-3.096-1.844-1.697 0.425-3.381 1.437-4.546 2.575-0.751-2.684-3.288-4.775-6.123-4.697zM1.949 1.838c2.272 0.071 4.186 2.451 4.093 4.506-2.060-0.393-3.686-2.533-4.093-4.506zM13.176 4.041c-0.509 1.527-2.782 2.129-3.914 1.78 0.67-1.539 3.143-2.248 3.914-1.78z"></path>
</svg>
<svg id="icon-ic-medal-bronze" width="16" height="16" viewBox="0 0 16 16" x="24" y="48">
<path fill="#aab8c2" opacity="0.941176" d="M8.974 5.885c0.205-0.111 0.442-0.202 0.715-0.202 0.173 0 0.337 0.036 0.488 0.107 0.416 0.175 0.6 0.533 0.695 0.85 0.054-0.005 0.109-0.008 0.167-0.008 0.351 0 0.6 0.115 0.77 0.241l4.011-6.873h-4.442l-2.985 5.418c0.251 0.107 0.44 0.291 0.582 0.467z"></path>
<path fill="#aab8c2" opacity="0.941176" d="M4.821 6.632c0.061 0 0.122 0.003 0.181 0.009 0.096-0.317 0.287-0.687 0.727-0.873 0.134-0.059 0.292-0.092 0.458-0.092 0.274 0 0.51 0.092 0.709 0.199 0.134-0.166 0.31-0.336 0.539-0.443l-2.993-5.432h-4.442l4.025 6.898c0.215-0.171 0.486-0.266 0.796-0.266z"></path>
<path fill="#cd7f32" opacity="0.941176" d="M12.737 10.68c-0.353-0.26-0.54-0.453-0.586-0.52 0.027-0.067 0.107-0.19 0.157-0.267 0.17-0.257 0.36-0.546 0.233-0.843-0.123-0.293-0.456-0.36-0.753-0.416-0.077-0.013-0.19-0.037-0.26-0.060 0.003-0.073 0.027-0.19 0.043-0.267 0.057-0.293 0.123-0.626-0.103-0.853-0.103-0.103-0.247-0.157-0.43-0.157-0.137 0-0.28 0.030-0.42 0.057-0.087 0.017-0.177 0.033-0.26 0.040-0.020-0.070-0.040-0.18-0.057-0.253-0.053-0.293-0.117-0.626-0.41-0.75-0.063-0.030-0.13-0.043-0.203-0.043-0.227 0-0.44 0.14-0.646 0.273-0.070 0.047-0.18 0.117-0.25 0.15-0.050-0.057-0.123-0.167-0.173-0.237-0.17-0.257-0.366-0.546-0.69-0.546s-0.516 0.29-0.686 0.543c-0.047 0.070-0.12 0.177-0.17 0.23-0.067-0.030-0.173-0.1-0.243-0.147-0.207-0.133-0.416-0.273-0.643-0.273-0.073 0-0.14 0.013-0.2 0.040-0.293 0.123-0.36 0.456-0.416 0.753-0.017 0.077-0.037 0.193-0.060 0.26-0.073-0.003-0.17-0.023-0.267-0.040-0.14-0.030-0.283-0.057-0.423-0.057-0.18 0-0.327 0.053-0.43 0.157-0.227 0.223-0.16 0.556-0.103 0.85 0.017 0.073 0.037 0.187 0.043 0.26-0.070 0.020-0.18 0.043-0.257 0.057-0.293 0.057-0.626 0.12-0.75 0.41-0.127 0.296 0.063 0.59 0.233 0.85 0.047 0.073 0.117 0.183 0.147 0.25-0.053 0.053-0.163 0.127-0.233 0.173-0.257 0.173-0.546 0.366-0.546 0.69s0.287 0.516 0.543 0.69c0.067 0.047 0.173 0.117 0.23 0.167-0.033 0.067-0.103 0.173-0.147 0.243-0.17 0.257-0.36 0.55-0.233 0.846 0.123 0.293 0.456 0.356 0.753 0.416 0.077 0.013 0.19 0.037 0.26 0.060-0.003 0.070-0.027 0.187-0.043 0.263-0.057 0.296-0.123 0.63 0.103 0.856 0.103 0.103 0.247 0.157 0.43 0.157 0.137 0 0.28-0.030 0.416-0.057 0.090-0.017 0.18-0.037 0.26-0.040 0.023 0.070 0.043 0.18 0.057 0.253 0.057 0.293 0.12 0.626 0.413 0.75 0.063 0.027 0.13 0.040 0.2 0.040 0.23 0 0.443-0.137 0.65-0.27 0.070-0.047 0.18-0.12 0.25-0.15 0.050 0.057 0.123 0.163 0.17 0.233 0.173 0.257 0.37 0.55 0.693 0.55s0.516-0.29 0.686-0.543c0.047-0.070 0.12-0.177 0.17-0.233 0.067 0.033 0.173 0.103 0.243 0.15 0.207 0.133 0.416 0.273 0.643 0.273 0.073 0 0.14-0.013 0.2-0.040 0.293-0.123 0.36-0.46 0.416-0.753 0.017-0.077 0.037-0.193 0.060-0.263 0.073 0.007 0.17 0.023 0.267 0.043 0.14 0.027 0.283 0.057 0.423 0.057 0.18 0 0.326-0.053 0.43-0.157 0.223-0.227 0.16-0.556 0.103-0.85-0.017-0.073-0.037-0.187-0.043-0.26 0.070-0.020 0.18-0.043 0.257-0.057 0.293-0.057 0.623-0.12 0.75-0.41 0.127-0.3-0.063-0.593-0.233-0.853-0.050-0.077-0.127-0.197-0.153-0.263 0.057-0.087 0.243-0.28 0.59-0.533 0.1-0.077 0.157-0.193 0.157-0.316s-0.060-0.24-0.157-0.313zM9.552 11.319l0.386 2.259-2.029-1.066-2.029 1.066 0.386-2.259-1.642-1.599 2.269-0.33 1.016-2.059 1.016 2.059 2.269 0.33z"></path>
</svg>
<svg id="icon-ic-medal-silver" width="16" height="16" viewBox="0 0 16 16" x="48" y="48">
<path fill="#aab8c2" opacity="0.941176" d="M8.974 5.885c0.205-0.111 0.442-0.202 0.715-0.202 0.173 0 0.337 0.036 0.488 0.107 0.416 0.175 0.6 0.533 0.695 0.85 0.054-0.005 0.109-0.008 0.167-0.008 0.351 0 0.6 0.115 0.77 0.241l4.011-6.873h-4.442l-2.985 5.418c0.251 0.107 0.44 0.291 0.582 0.467z"></path>
<path fill="#aab8c2" opacity="0.941176" d="M4.821 6.632c0.061 0 0.122 0.003 0.181 0.009 0.096-0.317 0.287-0.687 0.727-0.873 0.134-0.059 0.292-0.092 0.458-0.092 0.274 0 0.51 0.092 0.709 0.199 0.134-0.166 0.31-0.336 0.539-0.443l-2.993-5.432h-4.442l4.025 6.898c0.215-0.171 0.486-0.266 0.796-0.266z"></path>
<path fill="#c0c0c0" opacity="0.941176" d="M12.737 10.68c-0.353-0.26-0.54-0.453-0.586-0.52 0.027-0.067 0.107-0.19 0.157-0.267 0.17-0.257 0.36-0.546 0.233-0.843-0.123-0.293-0.456-0.36-0.753-0.416-0.077-0.013-0.19-0.037-0.26-0.060 0.003-0.073 0.027-0.19 0.043-0.267 0.057-0.293 0.123-0.626-0.103-0.853-0.103-0.103-0.247-0.157-0.43-0.157-0.137 0-0.28 0.030-0.42 0.057-0.087 0.017-0.177 0.033-0.26 0.040-0.020-0.070-0.040-0.18-0.057-0.253-0.053-0.293-0.117-0.626-0.41-0.75-0.063-0.030-0.13-0.043-0.203-0.043-0.227 0-0.44 0.14-0.646 0.273-0.070 0.047-0.18 0.117-0.25 0.15-0.050-0.057-0.123-0.167-0.173-0.237-0.17-0.257-0.366-0.546-0.69-0.546s-0.516 0.29-0.686 0.543c-0.047 0.070-0.12 0.177-0.17 0.23-0.067-0.030-0.173-0.1-0.243-0.147-0.207-0.133-0.416-0.273-0.643-0.273-0.073 0-0.14 0.013-0.2 0.040-0.293 0.123-0.36 0.456-0.416 0.753-0.017 0.077-0.037 0.193-0.060 0.26-0.073-0.003-0.17-0.023-0.267-0.040-0.14-0.030-0.283-0.057-0.423-0.057-0.18 0-0.327 0.053-0.43 0.157-0.227 0.223-0.16 0.556-0.103 0.85 0.017 0.073 0.037 0.187 0.043 0.26-0.070 0.020-0.18 0.043-0.257 0.057-0.293 0.057-0.626 0.12-0.75 0.41-0.127 0.296 0.063 0.59 0.233 0.85 0.047 0.073 0.117 0.183 0.147 0.25-0.053 0.053-0.163 0.127-0.233 0.173-0.257 0.173-0.546 0.366-0.546 0.69s0.287 0.516 0.543 0.69c0.067 0.047 0.173 0.117 0.23 0.167-0.033 0.067-0.103 0.173-0.147 0.243-0.17 0.257-0.36 0.55-0.233 0.846 0.123 0.293 0.456 0.356 0.753 0.416 0.077 0.013 0.19 0.037 0.26 0.060-0.003 0.070-0.027 0.187-0.043 0.263-0.057 0.296-0.123 0.63 0.103 0.856 0.103 0.103 0.247 0.157 0.43 0.157 0.137 0 0.28-0.030 0.416-0.057 0.090-0.017 0.18-0.037 0.26-0.040 0.023 0.070 0.043 0.18 0.057 0.253 0.057 0.293 0.12 0.626 0.413 0.75 0.063 0.027 0.13 0.040 0.2 0.040 0.23 0 0.443-0.137 0.65-0.27 0.070-0.047 0.18-0.12 0.25-0.15 0.050 0.057 0.123 0.163 0.17 0.233 0.173 0.257 0.37 0.55 0.693 0.55s0.516-0.29 0.686-0.543c0.047-0.070 0.12-0.177 0.17-0.233 0.067 0.033 0.173 0.103 0.243 0.15 0.207 0.133 0.416 0.273 0.643 0.273 0.073 0 0.14-0.013 0.2-0.040 0.293-0.123 0.36-0.46 0.416-0.753 0.017-0.077 0.037-0.193 0.060-0.263 0.073 0.007 0.17 0.023 0.267 0.043 0.14 0.027 0.283 0.057 0.423 0.057 0.18 0 0.326-0.053 0.43-0.157 0.223-0.227 0.16-0.556 0.103-0.85-0.017-0.073-0.037-0.187-0.043-0.26 0.070-0.020 0.18-0.043 0.257-0.057 0.293-0.057 0.623-0.12 0.75-0.41 0.127-0.3-0.063-0.593-0.233-0.853-0.050-0.077-0.127-0.197-0.153-0.263 0.057-0.087 0.243-0.28 0.59-0.533 0.1-0.077 0.157-0.193 0.157-0.316s-0.060-0.24-0.157-0.313zM9.552 11.319l0.386 2.259-2.029-1.066-2.029 1.066 0.386-2.259-1.642-1.599 2.269-0.33 1.016-2.059 1.016 2.059 2.269 0.33z"></path>
</svg>
<svg id="icon-ic-medal-gold" width="16" height="16" viewBox="0 0 16 16" x="72" y="48">
<path fill="#aab8c2" opacity="0.941176" d="M8.974 5.885c0.205-0.111 0.442-0.202 0.715-0.202 0.173 0 0.337 0.036 0.488 0.107 0.416 0.175 0.6 0.533 0.695 0.85 0.054-0.005 0.109-0.008 0.167-0.008 0.351 0 0.6 0.115 0.77 0.241l4.011-6.873h-4.442l-2.985 5.418c0.251 0.107 0.44 0.291 0.582 0.467z"></path>
<path fill="#aab8c2" opacity="0.941176" d="M4.821 6.632c0.061 0 0.122 0.003 0.181 0.009 0.096-0.317 0.287-0.687 0.727-0.873 0.134-0.059 0.292-0.092 0.458-0.092 0.274 0 0.51 0.092 0.709 0.199 0.134-0.166 0.31-0.336 0.539-0.443l-2.993-5.432h-4.442l4.025 6.898c0.215-0.171 0.486-0.266 0.796-0.266z"></path>
<path fill="#fc3" opacity="0.941176" d="M12.737 10.68c-0.353-0.26-0.54-0.453-0.586-0.52 0.027-0.067 0.107-0.19 0.157-0.267 0.17-0.257 0.36-0.546 0.233-0.843-0.123-0.293-0.456-0.36-0.753-0.416-0.077-0.013-0.19-0.037-0.26-0.060 0.003-0.073 0.027-0.19 0.043-0.267 0.057-0.293 0.123-0.626-0.103-0.853-0.103-0.103-0.247-0.157-0.43-0.157-0.137 0-0.28 0.030-0.42 0.057-0.087 0.017-0.177 0.033-0.26 0.040-0.020-0.070-0.040-0.18-0.057-0.253-0.053-0.293-0.117-0.626-0.41-0.75-0.063-0.030-0.13-0.043-0.203-0.043-0.227 0-0.44 0.14-0.646 0.273-0.070 0.047-0.18 0.117-0.25 0.15-0.050-0.057-0.123-0.167-0.173-0.237-0.17-0.257-0.366-0.546-0.69-0.546s-0.516 0.29-0.686 0.543c-0.047 0.070-0.12 0.177-0.17 0.23-0.067-0.030-0.173-0.1-0.243-0.147-0.207-0.133-0.416-0.273-0.643-0.273-0.073 0-0.14 0.013-0.2 0.040-0.293 0.123-0.36 0.456-0.416 0.753-0.017 0.077-0.037 0.193-0.060 0.26-0.073-0.003-0.17-0.023-0.267-0.040-0.14-0.030-0.283-0.057-0.423-0.057-0.18 0-0.327 0.053-0.43 0.157-0.227 0.223-0.16 0.556-0.103 0.85 0.017 0.073 0.037 0.187 0.043 0.26-0.070 0.020-0.18 0.043-0.257 0.057-0.293 0.057-0.626 0.12-0.75 0.41-0.127 0.296 0.063 0.59 0.233 0.85 0.047 0.073 0.117 0.183 0.147 0.25-0.053 0.053-0.163 0.127-0.233 0.173-0.257 0.173-0.546 0.366-0.546 0.69s0.287 0.516 0.543 0.69c0.067 0.047 0.173 0.117 0.23 0.167-0.033 0.067-0.103 0.173-0.147 0.243-0.17 0.257-0.36 0.55-0.233 0.846 0.123 0.293 0.456 0.356 0.753 0.416 0.077 0.013 0.19 0.037 0.26 0.060-0.003 0.070-0.027 0.187-0.043 0.263-0.057 0.296-0.123 0.63 0.103 0.856 0.103 0.103 0.247 0.157 0.43 0.157 0.137 0 0.28-0.030 0.416-0.057 0.090-0.017 0.18-0.037 0.26-0.040 0.023 0.070 0.043 0.18 0.057 0.253 0.057 0.293 0.12 0.626 0.413 0.75 0.063 0.027 0.13 0.040 0.2 0.040 0.23 0 0.443-0.137 0.65-0.27 0.070-0.047 0.18-0.12 0.25-0.15 0.050 0.057 0.123 0.163 0.17 0.233 0.173 0.257 0.37 0.55 0.693 0.55s0.516-0.29 0.686-0.543c0.047-0.070 0.12-0.177 0.17-0.233 0.067 0.033 0.173 0.103 0.243 0.15 0.207 0.133 0.416 0.273 0.643 0.273 0.073 0 0.14-0.013 0.2-0.040 0.293-0.123 0.36-0.46 0.416-0.753 0.017-0.077 0.037-0.193 0.060-0.263 0.073 0.007 0.17 0.023 0.267 0.043 0.14 0.027 0.283 0.057 0.423 0.057 0.18 0 0.326-0.053 0.43-0.157 0.223-0.227 0.16-0.556 0.103-0.85-0.017-0.073-0.037-0.187-0.043-0.26 0.070-0.020 0.18-0.043 0.257-0.057 0.293-0.057 0.623-0.12 0.75-0.41 0.127-0.3-0.063-0.593-0.233-0.853-0.050-0.077-0.127-0.197-0.153-0.263 0.057-0.087 0.243-0.28 0.59-0.533 0.1-0.077 0.157-0.193 0.157-0.316s-0.060-0.24-0.157-0.313zM9.552 11.319l0.386 2.259-2.029-1.066-2.029 1.066 0.386-2.259-1.642-1.599 2.269-0.33 1.016-2.059 1.016 2.059 2.269 0.33z"></path>
</svg>
<svg id="icon-ic-logout" width="16" height="16" viewBox="0 0 16 16" x="0" y="72">
<path fill="#9bacb7" d="M6.795 1.72c1.702-0.325 3.56 0.048 4.934 1.122 0.398 0.325-0.040 1.056-0.515 0.858-0.445-0.197-0.834-0.501-1.293-0.667-1.778-0.71-3.914-0.346-5.368 0.894-1.814 1.49-2.41 4.227-1.381 6.338 0.949 2.101 3.368 3.394 5.645 3.002 0.875-0.102 1.638-0.555 2.397-0.965 0.467-0.219 0.918 0.536 0.517 0.858-1.904 1.48-4.678 1.621-6.776 0.464-1.557-0.843-2.742-2.35-3.162-4.074-0.387-1.536-0.178-3.214 0.586-4.602 0.894-1.661 2.562-2.883 4.416-3.227z"></path>
<path fill="#9bacb7" d="M11.802 6.109c-0.258-0.373 0.181-0.917 0.603-0.755 0.466 0.259 0.784 0.712 1.173 1.070 0.44 0.478 0.974 0.877 1.341 1.419 0.115 0.368-0.243 0.618-0.456 0.854-0.669 0.614-1.253 1.32-1.95 1.904-0.405 0.301-1.022-0.299-0.717-0.709 0.389-0.502 0.886-0.907 1.32-1.37-1.923-0.018-3.848 0.030-5.77-0.021-0.562-0.029-0.538-1.003 0.019-1.019 1.912-0.043 3.827-0.002 5.739-0.018-0.422-0.462-0.922-0.858-1.302-1.357z"></path>
</svg>
<svg id="icon-ic-fire" width="12" height="16" viewBox="0 0 12 16" x="24" y="72">
<path fill="#aab8c2" d="M7.060 0c0 0-1.027 0.69-0.877 2.014 0.141 1.248 0.681 1.865 0.681 1.865s0.834-0.563 0.388-2.077c-0.196-0.666-0.341-0.737-0.192-1.802z"></path>
<path fill="#aab8c2" d="M8.338 2.368c0 0 0.078 0.407-0.203 1.049s0.391 1.205 0.391 1.205 1.017-1.111-0.188-2.253z"></path>
<path fill="#aab8c2" d="M11.611 9.345c-0.814 2.598-1.721 2.989-1.721 2.989 2.551-4.804-2.050-7.902-2.050-7.902 2.144 3.020 0.532 5.602 0.532 5.602s1.001-2.144-1.565-4.397c-2.863-2.645-1.44-4.819-1.44-4.819-2.519 0.86-2.597 3.13-2.081 4.037 1.487 2.472 0.908 3.678 0.908 3.678-0.031-0.548-0.438-0.955-1.721-1.878s-0.486-2.613-0.486-2.613c-0.829 0.516-1.564 2.206-0.563 3.38 1.831 2.284 0.313 3.599 0.313 3.599 0.61-2.535-1.737-3.098-1.737-3.098 1.815 1.471 0.141 2.566 0.423 4.287 0.532 4.053 5.195 3.788 5.195 3.788 0.133-0.001 0.258-0.009 0.385-0.016-1.754-0.004-2.242-1.1-1.809-1.519 0 0 0.712-0.617-0.147-1.688-0.47-0.551-0.125-1.344 0.264-1.586 0 0-0.374 0.793 0.228 1.226s0.793 0.624 0.807 0.881c0 0 0.272-0.566-0.426-1.725-0.242-0.425-0.205-1.49 0.977-1.894 0 0-0.668 1.020 0.675 2.261 1.204 1.057 0.734 2.063 0.734 2.063s0.756-1.211-0.25-2.629c0 0 2.159 1.454 0.962 3.708 0 0-0.279 0.638-1.332 0.84 5.352-0.738 4.924-6.573 4.924-6.573z"></path>
</svg>
<svg id="icon-ic-share" width="15" height="16" viewBox="0 0 15 16" x="48" y="72">
<path fill="#aab8c2" d="M11.896 5.375c1.479 0 2.688-1.208 2.688-2.688s-1.208-2.688-2.688-2.688c-1.479 0-2.688 1.208-2.688 2.688 0 0.292 0.042 0.563 0.125 0.813l-4.646 2.688c-0.5-0.542-1.208-0.875-1.979-0.875-1.5 0-2.708 1.208-2.708 2.688s1.208 2.688 2.688 2.688c0.792 0 1.5-0.333 1.979-0.875l4.646 2.688c-0.083 0.25-0.125 0.542-0.125 0.813 0 1.479 1.208 2.688 2.688 2.688s2.688-1.208 2.688-2.688c0-1.479-1.208-2.688-2.688-2.688-0.792 0-1.5 0.333-1.979 0.875l-4.646-2.688c0.083-0.25 0.125-0.542 0.125-0.813 0-0.292-0.042-0.563-0.125-0.813l4.646-2.688c0.5 0.542 1.208 0.875 2 0.875z"></path>
</svg>
<svg id="icon-ic-pin" width="10" height="16" viewBox="0 0 10 16" x="72" y="72">
<path fill="#aab8c2" d="M10.42 10.658c0.027 0.24-0.187 0.481-0.427 0.481h-4.194v4.274c0 0.321-0.267 0.588-0.588 0.588s-0.588-0.267-0.588-0.588v-4.274h-4.194c-0.24 0-0.454-0.214-0.427-0.481 0.16-1.656 1.068-3.098 2.431-3.953v-3.606c-0.721-0.668-1.229-1.576-1.362-2.591-0.027-0.267 0.187-0.508 0.454-0.508h7.372c0.267 0 0.508 0.24 0.454 0.508-0.134 1.042-0.614 1.95-1.362 2.591v3.606c1.362 0.855 2.27 2.27 2.431 3.953z"></path>
</svg>
<svg id="icon-ic-comment" width="16" height="16" viewBox="0 0 16 16" x="0" y="96">
<path fill="#aab8c2" d="M15.651 0h-14.848c-0.443 0-0.803 0.359-0.803 0.803v0 10.434c0 0.443 0.359 0.803 0.803 0.803v0h2.408v3.162c0.002 0.442 0.361 0.799 0.803 0.799 0.189 0 0.362-0.065 0.499-0.174l-0.002 0.001 4.798-3.792h6.342c0 0 0 0 0 0 0.443 0 0.803-0.359 0.803-0.803 0 0 0 0 0 0v0-10.434c-0.002-0.442-0.361-0.799-0.803-0.799 0 0-0 0-0 0v0z"></path>
</svg>
<svg id="icon-ic-delete" width="13" height="16" viewBox="0 0 13 16" x="24" y="96">
<path fill="#aab8c2" d="M12.174 1.971c0.32 0 0.58 0.26 0.58 0.58s-0.26 0.58-0.58 0.58h-0.008c-0.064 0-0.118 0.051-0.12 0.116l-0.417 11.269c-0.030 0.823-0.718 1.484-1.541 1.484h-7.42c-0.823 0-1.511-0.663-1.541-1.484l-0.417-11.269c-0.002-0.064-0.055-0.116-0.12-0.116h-0.008c-0.32 0-0.58-0.26-0.58-0.58s0.26-0.58 0.58-0.58h2.826c0.064 0 0.13-0.051 0.147-0.111l0.189-0.662c0.194-0.679 0.883-1.199 1.589-1.199h2.091c0.706 0 1.395 0.52 1.589 1.199l0.189 0.662c0.017 0.061 0.083 0.111 0.147 0.111zM5.913 5.217v7.884c0 0.256 0.208 0.464 0.464 0.464s0.464-0.208 0.464-0.464v-7.884c0-0.256-0.208-0.464-0.464-0.464s-0.464 0.208-0.464 0.464zM3.363 5.231l0.232 7.884c0.008 0.256 0.221 0.457 0.477 0.45s0.457-0.221 0.45-0.477l-0.232-7.884c-0.008-0.256-0.221-0.457-0.477-0.45s-0.457 0.221-0.45 0.477zM8.464 5.204l-0.232 7.884c-0.008 0.256 0.194 0.47 0.45 0.477s0.47-0.194 0.477-0.45l0.232-7.884c0.008-0.256-0.194-0.47-0.45-0.477s-0.47 0.194-0.477 0.45zM7.909 1.971c0.066 0 0.103-0.049 0.086-0.11l-0.098-0.344c-0.052-0.181-0.286-0.358-0.475-0.358h-2.091c-0.188 0-0.423 0.177-0.475 0.358l-0.098 0.344c-0.018 0.061 0.021 0.11 0.086 0.11z"></path>
</svg>
<svg id="icon-ic-tag" width="16" height="16" viewBox="0 0 16 16" x="48" y="96">
<path fill="#aab8c2" d="M16 0.998c0-0.551-0.448-0.998-1-0.998l-6.5 0.006c-0.2 0-0.344 0.066-0.542 0.264l-7.689 7.679c-0.359 0.359-0.359 0.94 0 1.299l6.57 6.483c0.359 0.359 0.942 0.359 1.301 0l7.625-7.664c0.198-0.197 0.234-0.401 0.234-0.576zM12.506 5c-0.829 0-1.502-0.673-1.502-1.5s0.674-1.5 1.502-1.5c0.829 0 1.501 0.672 1.501 1.5s-0.673 1.5-1.501 1.5z"></path>
</svg>
<svg id="icon-ic-report" width="16" height="16" viewBox="0 0 16 16" x="72" y="96">
<path fill="#aab8c2" d="M8 0c-4.411 0-8 3.589-8 8s3.589 8 8 8c4.411 0 8-3.589 8-8s-3.589-8-8-8zM8.767 12.545h-1.534v-1.484h1.534zM8.767 9.148h-1.534v-6.267h1.534z"></path>
</svg>
<svg id="icon-placeholder" width="16" height="16" viewBox="0 0 16 16" x="0" y="120">
<path fill="#9b9d9c" opacity="0.81" d="M0 0h16v16h-16v-16zM0.032 0.030c-0.005 0.289-0.001 0.579-0.002 0.868-0.001 5.021 0.001 10.042-0.001 15.063 0.207 0.003 0.415 0.003 0.622 0 5.039 0.002 10.078 0.001 15.117 0.001 0.065 0 0.13 0.001 0.195 0.001 0.001-4.305 0-8.611 0-12.916-0.002-1.006 0.004-2.012-0.003-3.017-5.309 0.001-10.619-0.001-15.928 0.001z"></path>
<path fill="#d3d5d4" d="M0.032 0.030c5.309-0.002 10.619 0 15.928-0.001 0.007 1.006 0.001 2.012 0.003 3.017-0 4.305 0 8.611-0 12.916-0.065-0-0.13-0-0.195-0.001-0.006-0.197-0.134-0.358-0.282-0.474-0.3-0.271-0.656-0.469-1.013-0.653-0.461-0.244-0.941-0.448-1.4-0.695-0.254-0.137-0.507-0.276-0.76-0.415-0.286-0.168-0.61-0.252-0.917-0.372-0.078-0.027-0.166-0.074-0.247-0.030-0.155-0.059-0.304-0.163-0.382-0.312-0.097-0.294-0.116-0.605-0.159-0.91-0.012-0.096-0.014-0.192-0.016-0.288-0.003-0.25-0.039-0.498-0.031-0.748-0.001-0.154 0.119-0.266 0.182-0.397 0.073-0.132 0.078-0.285 0.090-0.432 0.019-0.215 0.082-0.424 0.164-0.622 0.026-0.055 0.052-0.121 0.113-0.146 0.088-0.041 0.198-0.052 0.261-0.135 0.085-0.113 0.084-0.263 0.111-0.396 0.059-0.31 0.052-0.632 0.147-0.935 0.050-0.17 0.098-0.362 0.022-0.531-0.033-0.073-0.124-0.075-0.193-0.074 0.048-0.020 0.101-0.042 0.128-0.089 0.072-0.119 0.099-0.258 0.13-0.392 0.065-0.326 0.084-0.659 0.104-0.99 0.005-0.106-0.006-0.213 0.002-0.319 0.035-0.428 0.037-0.859 0.008-1.288-0.026-0.359-0.077-0.725-0.234-1.054-0.069-0.139-0.152-0.278-0.278-0.373-0.072-0.056-0.156-0.093-0.239-0.128-0.005-0.079-0.009-0.157-0.012-0.236-0.204 0.055-0.404 0.131-0.616 0.157-0.079 0.008-0.173 0-0.23-0.061-0.018-0.077-0.005-0.159-0.030-0.234-0.030-0.075-0.086-0.136-0.145-0.19-0.153-0.136-0.334-0.237-0.518-0.325-0.073-0.037-0.157-0.046-0.238-0.040-0.317 0.033-0.63-0.044-0.943-0.084-0.265-0.032-0.527-0.096-0.795-0.098-0.107-0.002-0.221-0.016-0.322 0.028-0.104 0.047-0.148 0.168-0.251 0.215-0.114 0.051-0.242 0.046-0.363 0.045-0.14-0.002-0.281 0.024-0.41 0.079-0.114 0.048-0.172 0.17-0.282 0.224-0.295 0.155-0.562 0.355-0.819 0.565-0.122 0.101-0.25 0.198-0.345 0.326-0.197 0.258-0.293 0.574-0.364 0.886-0.079 0.33-0.114 0.669-0.123 1.008-0.015 0.187-0.007 0.375-0.002 0.562 0.001 0.134 0.077 0.257 0.063 0.392-0.021 0.23-0.071 0.459-0.056 0.691 0.005 0.101 0.058 0.188 0.098 0.278 0.049 0.106 0.088 0.217 0.155 0.314-0.11-0.010-0.242-0.030-0.327 0.059-0.118 0.129-0.125 0.317-0.119 0.483 0.013 0.188 0.022 0.386 0.115 0.555 0.117 0.22 0.169 0.466 0.227 0.706 0.042 0.172 0.048 0.359 0.143 0.514 0.028 0.047 0.079 0.097 0.139 0.078 0.068-0.026 0.118-0.082 0.172-0.128 0.052 0.546 0.213 1.085 0.504 1.552 0.063 0.109 0.165 0.205 0.17 0.338 0.006 0.136-0.010 0.275 0.021 0.41 0.029 0.135 0.033 0.274 0.031 0.412-0.001 0.149 0.006 0.299-0.008 0.447-0.016 0.166-0.088 0.319-0.165 0.464-0.036 0.069-0.083 0.135-0.145 0.183-0.46 0.143-0.905 0.328-1.338 0.538-0.255 0.123-0.522 0.234-0.74 0.42-0.141 0.123-0.303 0.224-0.48 0.287-0.142 0.049-0.3 0.003-0.439 0.065-0.103 0.048-0.198 0.113-0.292 0.176-0.479 0.343-0.907 0.75-1.35 1.138-0.207 0.002-0.415 0.003-0.622-0 0.002-5.021 0-10.042 0.001-15.063 0.002-0.289-0.003-0.579 0.002-0.868z"></path>
<path fill="#9b9ea3" d="M7.23 1.679c0.101-0.044 0.215-0.030 0.322-0.028 0.268 0.002 0.53 0.065 0.795 0.098 0.313 0.039 0.626 0.116 0.943 0.084 0.081-0.006 0.164 0.003 0.238 0.040 0.184 0.088 0.365 0.189 0.518 0.325 0.058 0.054 0.115 0.115 0.145 0.19 0.024 0.076 0.012 0.157 0.030 0.234 0.058 0.061 0.151 0.069 0.23 0.061 0.211-0.025 0.411-0.102 0.616-0.157 0.003 0.079 0.007 0.158 0.012 0.236 0.083 0.036 0.167 0.073 0.239 0.128 0.126 0.095 0.209 0.234 0.278 0.373 0.157 0.328 0.208 0.694 0.234 1.054 0.029 0.429 0.027 0.86-0.008 1.288-0.007 0.106 0.003 0.213-0.002 0.319-0.020 0.331-0.039 0.664-0.104 0.99-0.031 0.134-0.058 0.273-0.13 0.392-0.027 0.048-0.080 0.069-0.128 0.089-0.088 0.035-0.181 0.078-0.237 0.158-0.082 0.102-0.123 0.23-0.208 0.33-0.008-0.211-0.001-0.422-0.006-0.633-0.010-0.329-0.13-0.642-0.154-0.97-0.009-0.138-0.034-0.275-0.029-0.413 0.003-0.113-0.004-0.225-0.018-0.337-0.024-0.195-0.030-0.401-0.133-0.575-0.067-0.18-0.215-0.314-0.377-0.408-0.19-0.093-0.387-0.183-0.599-0.21-0.172-0.025-0.345-0.053-0.519-0.051-0.315 0.019-0.631 0.057-0.931 0.157-0.208 0.055-0.425 0.053-0.638 0.050-0.222 0.002-0.445-0.023-0.664-0.058-0.165-0.039-0.336-0.058-0.495-0.119-0.11-0.031-0.228-0.078-0.343-0.044-0.184 0.066-0.338 0.196-0.456 0.348-0.091 0.113-0.155 0.244-0.228 0.368-0.053 0.091-0.082 0.193-0.121 0.29-0.051 0.126-0.061 0.263-0.091 0.395-0.023 0.106-0.031 0.214-0.055 0.319-0.045 0.187-0.058 0.38-0.1 0.568-0.031 0.253-0.073 0.505-0.115 0.756-0.023 0.132-0.027 0.267-0.044 0.4-0.016 0.114 0.013 0.228 0.006 0.343-0.023-0.024-0.051-0.045-0.062-0.077-0.049-0.121-0.058-0.255-0.115-0.373-0.058-0.12-0.113-0.243-0.196-0.348-0.067-0.097-0.106-0.208-0.155-0.314-0.040-0.090-0.093-0.177-0.098-0.278-0.016-0.232 0.034-0.461 0.056-0.691 0.014-0.136-0.062-0.258-0.063-0.392-0.005-0.187-0.013-0.375 0.002-0.562 0.008-0.339 0.044-0.678 0.123-1.008 0.072-0.312 0.167-0.628 0.364-0.886 0.095-0.128 0.224-0.225 0.345-0.326 0.257-0.21 0.525-0.41 0.819-0.565 0.11-0.054 0.167-0.176 0.282-0.224 0.129-0.054 0.27-0.081 0.41-0.079 0.122 0.001 0.25 0.006 0.363-0.045 0.103-0.047 0.147-0.168 0.251-0.215z"></path>
<path fill="#eef0ed" d="M6.106 4.275c0.115-0.034 0.233 0.013 0.343 0.044 0.159 0.061 0.33 0.080 0.495 0.119 0.219 0.036 0.442 0.060 0.664 0.058 0.213 0.003 0.431 0.005 0.638-0.050 0.3-0.1 0.616-0.138 0.931-0.157 0.174-0.002 0.347 0.026 0.519 0.051 0.212 0.026 0.409 0.117 0.599 0.21 0.162 0.094 0.31 0.228 0.377 0.408 0.103 0.174 0.108 0.38 0.133 0.575 0.015 0.112 0.022 0.224 0.018 0.337-0.005 0.138 0.019 0.275 0.029 0.413 0.024 0.327 0.145 0.64 0.154 0.97 0.005 0.211-0.002 0.422 0.006 0.633 0.084-0.101 0.126-0.228 0.208-0.33 0.057-0.080 0.149-0.123 0.237-0.158 0.069-0.001 0.16 0.001 0.193 0.074 0.076 0.169 0.028 0.361-0.022 0.531-0.095 0.303-0.088 0.625-0.147 0.935-0.027 0.134-0.025 0.283-0.111 0.396-0.063 0.083-0.173 0.094-0.261 0.135-0.061 0.026-0.087 0.091-0.113 0.146-0.083 0.198-0.146 0.407-0.164 0.622-0.012 0.147-0.017 0.3-0.090 0.432-0.062 0.131-0.182 0.243-0.182 0.397-0.009 0.25 0.028 0.498 0.031 0.748 0.001 0.096 0.004 0.192 0.016 0.288 0.043 0.304 0.062 0.616 0.159 0.91 0.078 0.149 0.227 0.253 0.382 0.312-0.065 0.101-0.121 0.209-0.196 0.303-0.121 0.152-0.271 0.279-0.43 0.39-0.147 0.1-0.297 0.199-0.463 0.267-0.734 0.313-1.547 0.394-2.339 0.358-0.282-0.008-0.555-0.089-0.823-0.173-0.313-0.104-0.606-0.262-0.875-0.452-0.271-0.194-0.526-0.415-0.733-0.678 0.063-0.048 0.109-0.114 0.145-0.183 0.077-0.146 0.149-0.299 0.165-0.464 0.014-0.149 0.007-0.298 0.008-0.447 0.002-0.138-0.002-0.276-0.031-0.412-0.031-0.135-0.015-0.273-0.021-0.41-0.005-0.133-0.107-0.229-0.17-0.338-0.291-0.467-0.452-1.006-0.504-1.552-0.055 0.046-0.104 0.102-0.172 0.128-0.060 0.019-0.111-0.031-0.139-0.078-0.095-0.155-0.101-0.342-0.143-0.514-0.058-0.24-0.11-0.486-0.227-0.706-0.092-0.17-0.101-0.367-0.115-0.555-0.007-0.166 0.001-0.354 0.119-0.483 0.085-0.089 0.217-0.069 0.327-0.059 0.083 0.105 0.138 0.228 0.196 0.348 0.057 0.118 0.066 0.252 0.115 0.373 0.012 0.032 0.039 0.053 0.062 0.077 0.007-0.115-0.022-0.229-0.006-0.343 0.018-0.133 0.021-0.268 0.044-0.4 0.042-0.252 0.084-0.503 0.115-0.756 0.042-0.188 0.055-0.381 0.1-0.568 0.023-0.105 0.031-0.213 0.055-0.319 0.030-0.132 0.040-0.269 0.091-0.395 0.039-0.097 0.067-0.199 0.121-0.29 0.073-0.125 0.137-0.256 0.228-0.368 0.118-0.153 0.273-0.283 0.456-0.348z"></path>
<path fill="#b0b2b1" d="M11.148 13.323c0.081-0.043 0.169 0.004 0.247 0.030 0.307 0.12 0.631 0.204 0.917 0.372 0.253 0.138 0.506 0.278 0.76 0.415 0.459 0.247 0.939 0.452 1.4 0.695 0.357 0.184 0.713 0.382 1.013 0.653 0.148 0.117 0.276 0.278 0.282 0.474-5.039-0-10.078 0.002-15.117-0.001 0.443-0.387 0.87-0.795 1.35-1.138 0.094-0.064 0.189-0.128 0.292-0.176 0.139-0.062 0.297-0.016 0.439-0.065 0.177-0.063 0.339-0.164 0.48-0.287 0.218-0.186 0.485-0.297 0.74-0.42 0.433-0.21 0.878-0.395 1.338-0.538 0.207 0.263 0.462 0.483 0.733 0.678 0.269 0.19 0.562 0.349 0.875 0.452 0.267 0.084 0.54 0.165 0.823 0.173 0.791 0.037 1.604-0.044 2.339-0.358 0.166-0.068 0.316-0.167 0.463-0.267 0.159-0.11 0.309-0.238 0.43-0.39 0.076-0.094 0.132-0.201 0.196-0.303z"></path>
</svg>
<svg id="icon-placeholder-alt" width="16" height="16" viewBox="0 0 16 16" x="24" y="120">
<path fill="#d4d7d6" d="M0 0h16v16h-16v-16zM6.716 2.246c-0.341 0.083-0.655 0.253-0.941 0.453-0.193 0.137-0.382 0.282-0.554 0.445-0.382 0.359-0.691 0.806-0.842 1.312-0.155 0.499-0.151 1.028-0.141 1.545-0.001 0.099-0.074 0.174-0.125 0.253-0.209 0.331-0.354 0.698-0.452 1.076-0.174 0.672-0.212 1.371-0.191 2.062 0.022 0.639 0.113 1.277 0.294 1.891 0.151 0.489 0.365 0.97 0.707 1.357 0.194 0.219 0.428 0.407 0.7 0.52 0.212 0.092 0.441 0.134 0.67 0.156-0.134 0.119-0.25 0.258-0.388 0.373-0.481 0.417-1.072 0.69-1.686 0.845-0.062 0.015-0.12 0.052-0.149 0.111 0.102 0.075 0.212 0.138 0.32 0.204 1.462 0.87 3.211 1.245 4.901 1.053 1.214-0.135 2.398-0.551 3.422-1.218 0.038-0.024 0.070-0.058 0.087-0.1-0.574-0.293-1.101-0.68-1.545-1.148-0.117-0.117-0.214-0.252-0.329-0.37 0.376-0.103 0.69-0.361 0.929-0.662 0.427-0.53 0.702-1.166 0.888-1.816 0.224-0.797 0.293-1.644 0.152-2.462-0.091-0.575-0.252-1.142-0.511-1.664-0.117-0.249-0.293-0.478-0.327-0.758-0.098-0.594-0.337-1.167-0.711-1.64-0.196-0.245-0.431-0.456-0.665-0.665-0.327-0.253-0.73-0.414-1.146-0.425-0.084-0.151-0.201-0.281-0.335-0.389-0.192-0.155-0.422-0.256-0.657-0.325-0.446-0.127-0.924-0.123-1.373-0.013z"></path>
<path fill="#d4d7d6" d="M8.757 10.944c0.228-0.154 0.423-0.35 0.6-0.56 0.016 0.086 0.026 0.172 0.045 0.257-0.057 0.051-0.102 0.113-0.155 0.169-0.188 0.205-0.401 0.391-0.648 0.522-0.171 0.090-0.359 0.154-0.552 0.168-0.225 0.017-0.449-0.056-0.641-0.171-0.229-0.135-0.42-0.322-0.608-0.507 0.010-0.085 0.017-0.17 0.021-0.255 0.183 0.202 0.389 0.388 0.631 0.516 0.205 0.109 0.444 0.165 0.676 0.127 0.227-0.039 0.441-0.137 0.631-0.265z"></path>
<path fill="#767677" d="M6.716 2.246c0.449-0.11 0.927-0.115 1.373 0.013 0.235 0.069 0.465 0.17 0.657 0.325 0.134 0.108 0.251 0.238 0.335 0.389 0.416 0.011 0.819 0.171 1.146 0.425 0.234 0.209 0.468 0.419 0.665 0.665 0.374 0.473 0.613 1.047 0.711 1.64 0.034 0.28 0.21 0.509 0.327 0.758 0.26 0.522 0.42 1.089 0.511 1.664 0.142 0.818 0.073 1.665-0.152 2.462-0.185 0.65-0.461 1.286-0.888 1.816-0.239 0.301-0.553 0.559-0.929 0.662-0.27-0.31-0.484-0.667-0.652-1.041-0.198-0.44-0.33-0.907-0.419-1.38-0.019-0.085-0.030-0.172-0.045-0.257 0.329-0.395 0.581-0.85 0.759-1.331 0.201-0.543 0.313-1.116 0.351-1.693 0.008-0.287 0.011-0.574 0.002-0.861-0.003-0.067-0.002-0.135-0.019-0.2-0.008-0.031-0.038-0.045-0.063-0.060-0.137-0.076-0.275-0.158-0.383-0.274-0.157-0.15-0.284-0.328-0.389-0.517-0.149-0.267-0.256-0.554-0.363-0.839-0.087-0.22-0.221-0.418-0.365-0.604-0.296 0.73-0.835 1.345-1.48 1.789-0.428 0.302-0.95 0.437-1.466 0.482-0.194 0.016-0.39 0.024-0.585 0.018-0.078 0.658 0.012 1.328 0.203 1.96 0.148 0.486 0.351 0.955 0.603 1.397 0.187 0.327 0.404 0.637 0.658 0.916-0.005 0.085-0.011 0.17-0.021 0.255-0.073 0.639-0.213 1.28-0.513 1.854-0.125 0.227-0.258 0.455-0.444 0.638-0.229-0.021-0.459-0.063-0.67-0.156-0.272-0.113-0.506-0.301-0.7-0.52-0.341-0.387-0.556-0.868-0.707-1.357-0.181-0.614-0.272-1.252-0.294-1.891-0.021-0.691 0.017-1.39 0.191-2.062 0.098-0.378 0.243-0.745 0.452-1.076 0.051-0.079 0.124-0.154 0.125-0.253-0.010-0.517-0.014-1.046 0.141-1.545 0.151-0.505 0.46-0.952 0.842-1.312 0.173-0.163 0.361-0.308 0.554-0.445 0.286-0.2 0.6-0.37 0.941-0.453z"></path>
<path fill="#fff" d="M7.405 5.794c0.645-0.444 1.184-1.060 1.48-1.789 0.144 0.186 0.278 0.384 0.365 0.604 0.108 0.285 0.215 0.572 0.363 0.839 0.105 0.189 0.233 0.367 0.389 0.517 0.107 0.116 0.245 0.198 0.383 0.274 0.025 0.015 0.055 0.029 0.063 0.060 0.017 0.065 0.015 0.133 0.019 0.2 0.009 0.287 0.006 0.574-0.002 0.861-0.038 0.577-0.15 1.15-0.351 1.693-0.178 0.481-0.43 0.936-0.759 1.331-0.176 0.21-0.372 0.406-0.6 0.56-0.19 0.129-0.404 0.227-0.631 0.265-0.232 0.038-0.47-0.019-0.676-0.127-0.242-0.128-0.449-0.313-0.631-0.516-0.254-0.278-0.471-0.589-0.658-0.916-0.251-0.441-0.454-0.911-0.603-1.397-0.191-0.632-0.282-1.302-0.203-1.96 0.195 0.006 0.39-0.002 0.585-0.018 0.515-0.045 1.038-0.181 1.466-0.482z"></path>
<path fill="#fff" d="M9.247 10.81c0.053-0.055 0.098-0.117 0.155-0.169 0.089 0.473 0.222 0.94 0.419 1.38 0.169 0.374 0.382 0.731 0.652 1.041 0.115 0.118 0.212 0.253 0.329 0.37 0.443 0.468 0.97 0.855 1.545 1.148-0.017 0.042-0.049 0.076-0.087 0.1-1.024 0.667-2.208 1.082-3.422 1.218-1.69 0.192-3.439-0.182-4.901-1.053-0.108-0.066-0.218-0.129-0.32-0.204 0.029-0.059 0.087-0.096 0.149-0.111 0.614-0.154 1.206-0.428 1.686-0.845 0.138-0.115 0.254-0.253 0.388-0.373 0.186-0.183 0.32-0.411 0.444-0.638 0.3-0.574 0.44-1.215 0.513-1.854 0.188 0.185 0.379 0.372 0.608 0.507 0.192 0.115 0.415 0.188 0.641 0.171 0.194-0.015 0.381-0.078 0.552-0.168 0.247-0.131 0.46-0.317 0.648-0.522z"></path>
</svg>
<svg id="icon-placeholder-img" width="32" height="16" viewBox="0 0 32 16" x="48" y="120">
<path fill="#e9eef1" d="M0 0h32v16h-32v-16zM11.079 2.889c-0.351 0.057-0.656 0.319-0.771 0.655-0.049 0.136-0.056 0.282-0.055 0.425 0.002 2.482-0.003 4.963 0.003 7.445-0.016 0.51 0.434 0.98 0.944 0.99 3.342 0.004 6.685 0.004 10.027-0 0.506-0.014 0.949-0.481 0.935-0.988 0.002-2.518 0-5.035 0.001-7.552 0.003-0.288-0.136-0.569-0.354-0.754-0.178-0.154-0.413-0.235-0.648-0.234-3.306 0.001-6.612 0-9.917 0.001-0.055 0.001-0.111 0.005-0.165 0.013z"></path>
<path fill="#e9eef1" d="M11.188 3.683c0.394-0.017 0.791-0.012 1.186-0.013 1.166 0.005 2.333 0.002 3.499 0.003 1.038 0.003 2.076-0.008 3.114 0 0.726 0 1.452-0.001 2.178 0 0.103-0.004 0.193 0.087 0.201 0.187-0 2.511 0 5.023-0 7.534 0.007 0.103-0.076 0.205-0.18 0.211-1.351 0.006-2.702 0.002-4.053 0.003-1.956-0.002-3.912 0.003-5.867-0.002-0.13 0.014-0.224-0.113-0.214-0.234 0-2.49 0-4.979 0-7.469-0.005-0.091 0.044-0.194 0.137-0.22zM12.893 4.467c-0.305 0.035-0.591 0.194-0.781 0.433-0.203 0.247-0.307 0.577-0.262 0.895 0.037 0.389 0.296 0.737 0.639 0.916 0.224 0.121 0.486 0.161 0.737 0.119 0.612-0.084 1.089-0.714 0.993-1.327-0.060-0.629-0.701-1.126-1.325-1.037zM17.989 5.457c-1.059 1.052-2.108 2.116-3.171 3.164-0.331-0.324-0.657-0.654-0.983-0.983-0.068 0.057-0.128 0.121-0.192 0.182-0.584 0.575-1.157 1.161-1.741 1.735-0.033 0.035-0.066 0.076-0.062 0.127-0.002 0.375 0 0.751 0.004 1.127 2.908 0.002 5.817-0.001 8.725 0.001 0.007-0.183 0.006-0.366 0.007-0.549 0-0.711-0-1.422 0-2.134 0.001-0.055-0.009-0.114-0.053-0.152-0.675-0.668-1.345-1.342-2.017-2.013-0.172-0.169-0.338-0.345-0.517-0.507z"></path>
<path fill="#babec1" d="M11.079 2.889c0.054-0.009 0.11-0.012 0.165-0.013 3.306-0.001 6.612 0 9.917-0.001 0.235-0.001 0.47 0.079 0.648 0.234 0.218 0.185 0.356 0.466 0.354 0.754-0 2.517 0.001 5.035-0.001 7.552 0.014 0.506-0.43 0.973-0.935 0.988-3.342 0.004-6.685 0.005-10.027 0-0.509-0.009-0.959-0.48-0.944-0.99-0.005-2.482-0.001-4.963-0.003-7.445-0.001-0.143 0.006-0.289 0.055-0.425 0.114-0.336 0.42-0.598 0.771-0.655zM11.188 3.683c-0.093 0.026-0.142 0.129-0.137 0.22 0 2.49 0 4.979 0 7.469-0.010 0.121 0.084 0.248 0.214 0.234 1.956 0.005 3.911 0.001 5.867 0.002 1.351-0.001 2.702 0.003 4.053-0.003 0.104-0.007 0.187-0.109 0.18-0.211 0-2.511-0-5.023 0-7.534-0.008-0.1-0.098-0.191-0.201-0.187-0.726-0.001-1.452 0-2.177-0-1.038-0.008-2.076 0.003-3.114 0-1.166-0.001-2.333 0.002-3.499-0.003-0.395 0.002-0.791-0.004-1.186 0.013z"></path>
<path fill="#babec1" d="M12.893 4.467c0.624-0.089 1.265 0.408 1.325 1.037 0.096 0.613-0.381 1.243-0.993 1.327-0.25 0.042-0.513 0.002-0.737-0.119-0.343-0.179-0.601-0.527-0.639-0.916-0.045-0.319 0.059-0.649 0.262-0.895 0.191-0.24 0.477-0.399 0.781-0.433z"></path>
<path fill="#babec1" d="M17.989 5.457c0.179 0.161 0.345 0.338 0.517 0.507 0.673 0.671 1.342 1.346 2.017 2.013 0.043 0.038 0.054 0.097 0.053 0.152-0.001 0.711-0 1.422-0 2.134-0.001 0.183 0.001 0.366-0.007 0.549-2.908-0.002-5.817 0.001-8.725-0.001-0.003-0.376-0.006-0.752-0.004-1.127-0.005-0.051 0.028-0.093 0.062-0.127 0.584-0.575 1.157-1.161 1.741-1.735 0.064-0.061 0.124-0.126 0.192-0.182 0.326 0.33 0.652 0.659 0.983 0.983 1.064-1.048 2.112-2.112 3.171-3.164z"></path>
</svg>
</svg>
