<?xml version="1.0" encoding="UTF-8" standalone="no"?>
<svg
   xmlns:dc="http://purl.org/dc/elements/1.1/"
   xmlns:cc="http://creativecommons.org/ns#"
   xmlns:rdf="http://www.w3.org/1999/02/22-rdf-syntax-ns#"
   xmlns:svg="http://www.w3.org/2000/svg"
   xmlns="http://www.w3.org/2000/svg"
   xmlns:sodipodi="http://sodipodi.sourceforge.net/DTD/sodipodi-0.dtd"
   xmlns:inkscape="http://www.inkscape.org/namespaces/inkscape"
   version="1.1"
   x="0px"
   y="0px"
   viewBox="0 0 32.000252 32.000252"
   overflow="visible"
   enable-background="new 0 0 32 32"
   xml:space="preserve"
   id="svg8"
   sodipodi:docname="noun_425542_cc.svg"
   width="32.000252"
   height="32.000252"
   style="overflow:visible"
   inkscape:version="0.92.2 (5c3e80d, 2017-08-06)"><metadata
     id="metadata14"><rdf:RDF><cc:Work
         rdf:about=""><dc:format>image/svg+xml</dc:format><dc:type
           rdf:resource="http://purl.org/dc/dcmitype/StillImage" /><dc:title></dc:title></cc:Work></rdf:RDF></metadata><defs
     id="defs12" /><sodipodi:namedview
     pagecolor="#ffffff"
     bordercolor="#666666"
     borderopacity="1"
     objecttolerance="10"
     gridtolerance="10"
     guidetolerance="10"
     inkscape:pageopacity="0"
     inkscape:pageshadow="2"
     inkscape:window-width="1920"
     inkscape:window-height="1017"
     id="namedview10"
     showgrid="false"
     fit-margin-top="0"
     fit-margin-left="0"
     fit-margin-right="0"
     fit-margin-bottom="0"
     inkscape:zoom="5.9"
     inkscape:cx="16.00025"
     inkscape:cy="12.00025"
     inkscape:window-x="-8"
     inkscape:window-y="-8"
     inkscape:window-maximized="1"
     inkscape:current-layer="svg8" /><path
     d="m 32.00025,1.997 c 0,-1.102 -0.896,-1.997 -2,-1.997 l -13,0.012 c -0.401,0 -0.688,0.132 -1.083,0.527 l -15.378,15.358 c -0.719,0.718 -0.719,1.88 0,2.598 l 13.14,12.966 c 0.719,0.719 1.883,0.719 2.603,0 l 15.25,-15.328 c 0.396,-0.394 0.468,-0.802 0.468,-1.152 z M 25.01225,10 c -1.657,0 -3.004,-1.345 -3.004,-3 0,-1.655 1.347,-3 3.004,-3 1.657,0 3.003,1.345 3.003,3 0,1.655 -1.346,3 -3.003,3 z"
     id="path2"
     inkscape:connector-curvature="0"
     style="fill:#aab8c2;fill-opacity:1" /></svg>