<?xml version="1.0" encoding="UTF-8" ?>
<!DOCTYPE svg PUBLIC "-//W3C//DTD SVG 1.1//EN" "http://www.w3.org/Graphics/SVG/1.1/DTD/svg11.dtd">
<svg width="910pt" height="1050pt" viewBox="0 0 910 1050" version="1.1" xmlns="http://www.w3.org/2000/svg">
<g id="#00acc1ff">
<path fill="#00acc1" opacity="1.00" d=" M 23.28 0.36 C 24.21 0.40 26.07 0.47 27.00 0.51 C 279.99 0.52 532.98 0.51 785.96 0.51 C 820.26 0.40 854.56 0.73 888.85 0.35 L 888.30 1.38 C 889.69 1.42 891.10 1.45 892.51 1.49 L 892.52 2.71 C 892.89 2.64 893.63 2.50 894.00 2.43 C 899.39 5.99 904.01 10.56 907.40 16.10 C 907.46 16.71 907.57 17.91 907.63 18.51 L 908.59 18.33 C 908.89 121.87 908.63 225.43 908.72 328.98 C 908.64 361.21 908.88 393.45 908.60 425.68 L 907.74 425.41 C 906.48 428.87 902.69 431.23 899.06 431.23 C 876.36 431.63 853.66 431.06 830.97 431.30 C 823.89 431.50 816.82 431.37 809.75 431.30 C 809.66 324.87 809.73 218.41 809.72 111.99 C 809.20 103.93 803.77 97.03 797.36 92.56 C 793.50 89.77 788.71 88.70 784.01 88.74 C 563.02 88.79 342.03 88.73 121.05 88.77 C 111.53 88.78 102.22 94.51 98.24 103.21 C 96.05 107.46 95.60 112.31 95.65 117.02 C 95.72 388.35 95.55 659.69 95.76 931.01 C 95.50 940.69 102.28 949.24 110.61 953.45 C 117.24 956.80 124.86 955.56 132.00 955.75 C 347.33 955.74 562.67 955.74 778.00 955.74 C 783.06 955.70 788.34 956.09 793.15 954.16 C 801.94 950.85 808.96 942.41 809.76 932.95 C 809.68 828.21 809.68 723.45 809.75 618.70 C 827.53 618.44 845.30 618.98 863.08 618.65 C 875.06 618.56 887.04 618.56 899.02 618.77 C 902.71 618.70 906.35 621.11 907.78 624.51 L 908.58 624.36 C 908.91 676.57 908.62 728.79 908.72 781.00 C 908.72 838.67 908.72 896.35 908.72 954.02 C 908.60 980.24 908.95 1006.47 908.53 1032.69 L 907.19 1032.37 C 907.29 1032.77 907.48 1033.58 907.58 1033.98 C 905.53 1036.50 904.05 1039.43 901.79 1041.80 C 901.53 1042.05 901.01 1042.55 900.76 1042.80 C 897.34 1045.31 893.65 1048.44 889.23 1048.47 L 889.83 1049.60 C 782.87 1049.35 675.91 1049.56 568.95 1049.49 C 439.29 1049.49 309.64 1049.49 179.99 1049.49 C 127.38 1049.59 74.76 1049.28 22.16 1049.64 L 22.67 1048.60 C 21.19 1048.58 19.72 1048.58 18.25 1048.61 L 18.60 1047.54 C 16.41 1047.61 14.74 1046.06 13.05 1044.92 C 9.85 1042.40 6.95 1039.43 4.77 1035.98 C 2.77 1032.29 1.87 1028.14 1.93 1023.96 C 1.89 977.32 1.93 930.67 1.91 884.03 C 2.32 836.04 2.03 788.04 2.12 740.04 C 2.11 506.02 2.12 272.01 2.11 37.99 C 2.07 32.66 0.62 27.24 1.96 21.97 C 3.49 17.46 4.93 12.59 8.52 9.24 L 8.42 8.59 L 9.40 8.39 L 9.61 7.40 L 10.27 7.52 C 13.79 4.11 18.45 1.25 23.50 1.25 L 23.28 0.36 Z" />
</g>
<g id="#00c8dcff">
<path fill="#00c8dc" opacity="1.00" d=" M 98.24 103.21 C 102.22 94.51 111.53 88.78 121.05 88.77 C 342.03 88.73 563.02 88.79 784.01 88.74 C 788.71 88.70 793.50 89.77 797.36 92.56 C 803.77 97.03 809.20 103.93 809.72 111.99 C 809.73 218.41 809.66 324.87 809.75 431.30 L 809.75 431.77 C 768.07 431.70 726.38 431.82 684.69 431.66 C 697.07 430.85 709.50 431.56 721.90 431.28 C 721.93 354.50 721.87 277.72 721.93 200.94 C 722.16 194.20 719.98 186.74 714.08 182.88 C 708.02 179.39 700.78 179.12 693.97 179.35 C 533.98 179.35 373.99 179.37 214.00 179.35 C 206.44 179.12 197.70 179.26 191.96 184.96 C 186.67 189.74 186.48 197.43 186.13 204.05 C 185.91 220.36 185.98 236.67 186.06 252.98 C 186.12 336.66 185.94 420.34 186.09 504.02 C 186.07 613.36 185.94 722.68 186.09 832.01 C 186.05 840.02 185.68 848.46 189.17 855.90 C 192.65 862.73 200.88 865.20 208.04 865.34 C 368.36 865.30 528.68 865.33 689.00 865.32 C 696.80 865.30 705.08 865.75 712.35 862.43 C 719.47 858.87 722.03 850.44 721.91 843.00 C 721.88 768.24 721.93 693.48 721.89 618.72 C 709.49 618.45 697.06 619.14 684.67 618.34 C 726.37 618.18 768.06 618.29 809.76 618.24 L 809.75 618.70 C 809.68 723.45 809.68 828.21 809.76 932.95 C 808.96 942.41 801.94 950.85 793.15 954.16 C 788.34 956.09 783.06 955.70 778.00 955.74 C 562.67 955.74 347.33 955.74 132.00 955.75 C 124.86 955.56 117.24 956.80 110.61 953.45 C 102.28 949.24 95.50 940.69 95.76 931.01 C 95.55 659.69 95.72 388.35 95.65 117.02 C 95.60 112.31 96.05 107.46 98.24 103.21 Z" />
</g>
<g id="#75f1ffff">
<path fill="#75f1ff" opacity="1.00" d=" M 191.96 184.96 C 197.70 179.26 206.44 179.12 214.00 179.35 C 373.99 179.37 533.98 179.35 693.97 179.35 C 700.78 179.12 708.02 179.39 714.08 182.88 C 719.98 186.74 722.16 194.20 721.93 200.94 C 721.87 277.72 721.93 354.50 721.90 431.28 C 709.50 431.56 697.07 430.85 684.69 431.66 C 669.79 431.96 654.88 431.66 639.97 431.81 C 636.03 432.27 631.88 430.70 629.67 427.33 C 627.83 424.98 627.78 421.87 627.85 419.03 C 627.93 378.01 627.78 336.98 627.92 295.95 C 627.77 288.62 625.26 280.32 618.44 276.55 C 610.53 272.97 601.57 273.34 593.09 273.46 C 501.37 273.47 409.65 273.45 317.93 273.47 C 312.32 273.71 306.45 273.87 301.32 276.39 C 297.25 278.56 294.14 282.48 293.01 286.96 C 291.32 293.51 291.45 300.35 291.46 307.06 C 291.65 454.23 291.57 601.41 291.52 748.57 C 291.93 755.00 292.14 762.26 296.78 767.27 C 301.06 772.10 307.82 773.58 314.02 773.70 C 409.35 773.87 504.68 773.68 600.01 773.77 C 605.74 773.63 611.69 773.50 617.08 771.30 C 621.52 769.30 625.02 765.26 626.29 760.55 C 628.01 754.18 627.89 747.52 627.87 740.98 C 627.87 703.32 627.87 665.67 627.87 628.02 C 627.93 622.79 632.73 618.11 637.96 618.20 C 653.53 618.31 669.11 618.05 684.67 618.34 C 697.06 619.14 709.49 618.45 721.89 618.72 C 721.93 693.48 721.88 768.24 721.91 843.00 C 722.03 850.44 719.47 858.87 712.35 862.43 C 705.08 865.75 696.80 865.30 689.00 865.32 C 528.68 865.33 368.36 865.30 208.04 865.34 C 200.88 865.20 192.65 862.73 189.17 855.90 C 185.68 848.46 186.05 840.02 186.09 832.01 C 185.94 722.68 186.07 613.36 186.09 504.02 C 185.94 420.34 186.12 336.66 186.06 252.98 C 185.98 236.67 185.91 220.36 186.13 204.05 C 186.48 197.43 186.67 189.74 191.96 184.96 Z" />
</g>
</svg>
