<?xml version="1.0" encoding="UTF-8" ?>
<!DOCTYPE svg PUBLIC "-//W3C//DTD SVG 1.1//EN" "http://www.w3.org/Graphics/SVG/1.1/DTD/svg11.dtd">
<svg width="616pt" height="616pt" viewBox="0 0 616 616" version="1.1" xmlns="http://www.w3.org/2000/svg">
<g id="#a6a9a8b1">
<path fill="#a6a9a8" opacity="0.69" d=" M 0.00 0.00 L 616.00 0.00 L 616.00 616.00 L 0.00 616.00 L 0.00 0.00 M 1.02 1.01 C 1.00 205.67 0.99 410.32 1.02 614.97 C 8.95 614.91 16.90 615.20 24.83 614.83 C 56.53 615.16 88.24 614.87 119.94 614.97 C 282.33 614.95 444.71 615.00 607.10 614.95 C 609.72 614.96 612.35 614.97 614.98 614.99 C 615.01 410.33 615.01 205.67 614.98 1.02 C 410.32 0.99 205.67 1.00 1.02 1.01 Z" />
<path fill="#a6a9a8" opacity="0.69" d=" M 353.85 71.70 C 354.64 70.12 356.67 70.58 358.04 70.93 C 356.92 72.05 355.29 72.33 353.85 71.70 Z" />
<path fill="#a6a9a8" opacity="0.69" d=" M 250.01 75.09 C 251.65 74.60 253.36 74.71 255.02 75.05 C 253.63 76.38 251.25 76.93 250.01 75.09 Z" />
<path fill="#a6a9a8" opacity="0.69" d=" M 392.48 92.59 C 393.25 95.24 393.15 98.02 393.03 100.75 C 392.02 98.15 392.52 95.30 392.48 92.59 Z" />
<path fill="#a6a9a8" opacity="0.69" d=" M 394.99 103.05 C 396.35 102.22 397.37 102.50 398.04 103.90 C 396.80 104.27 395.78 103.99 394.99 103.05 Z" />
<path fill="#a6a9a8" opacity="0.69" d=" M 167.77 164.93 C 167.37 163.21 167.61 161.45 168.47 159.92 C 169.46 161.56 169.48 163.75 167.77 164.93 Z" />
<path fill="#a6a9a8" opacity="0.69" d=" M 236.97 163.96 C 241.05 162.06 245.74 164.04 249.28 166.28 C 245.15 165.59 241.20 163.95 236.97 163.96 Z" />
<path fill="#a6a9a8" opacity="0.69" d=" M 231.79 164.69 C 233.17 164.01 234.75 164.26 236.24 164.25 C 225.18 167.75 217.22 176.95 211.81 186.83 C 210.52 189.36 209.14 191.85 207.53 194.20 C 207.85 190.36 210.26 187.22 212.06 183.97 C 216.97 176.14 223.16 168.55 231.79 164.69 Z" />
<path fill="#a6a9a8" opacity="0.69" d=" M 347.29 164.53 C 354.55 163.41 361.87 164.38 369.11 165.17 C 372.90 165.71 376.91 166.04 380.17 168.24 C 371.49 166.71 362.77 165.33 353.94 165.03 C 346.90 165.55 339.89 166.35 332.87 167.13 C 337.15 164.28 342.46 165.27 347.29 164.53 Z" />
<path fill="#a6a9a8" opacity="0.69" d=" M 250.00 166.70 C 251.90 165.01 254.35 166.35 255.68 168.05 C 253.70 168.11 251.63 167.95 250.00 166.70 Z" />
<path fill="#a6a9a8" opacity="0.69" d=" M 322.85 169.39 C 325.54 167.17 329.02 166.79 332.36 167.36 C 329.26 168.36 326.04 168.83 322.85 169.39 Z" />
<path fill="#a6a9a8" opacity="0.69" d=" M 256.99 168.74 C 257.83 167.02 260.08 167.62 260.73 169.16 C 259.41 169.44 258.16 169.30 256.99 168.74 Z" />
<path fill="#a6a9a8" opacity="0.69" d=" M 381.01 168.70 C 381.80 167.42 382.38 167.60 382.74 169.25 C 382.31 169.12 381.44 168.84 381.01 168.70 Z" />
<path fill="#a6a9a8" opacity="0.69" d=" M 261.48 169.42 C 266.08 168.71 270.55 170.45 275.10 170.79 C 284.34 172.31 293.73 172.20 303.05 171.94 C 305.24 171.83 307.41 172.17 309.52 172.72 C 301.39 173.44 293.18 173.00 285.03 173.00 C 277.17 171.94 269.09 171.78 261.48 169.42 Z" />
<path fill="#a6a9a8" opacity="0.69" d=" M 320.33 170.30 C 320.70 168.66 321.28 168.49 322.06 169.82 C 321.63 169.94 320.76 170.18 320.33 170.30 Z" />
<path fill="#a6a9a8" opacity="0.69" d=" M 383.95 169.78 C 384.22 169.55 384.76 169.08 385.03 168.85 L 385.77 169.29 L 385.72 170.12 C 385.28 170.03 384.39 169.86 383.95 169.78 Z" />
<path fill="#a6a9a8" opacity="0.69" d=" M 317.15 170.98 C 317.87 169.53 318.47 169.50 318.95 170.89 C 318.50 170.91 317.60 170.96 317.15 170.98 Z" />
<path fill="#a6a9a8" opacity="0.69" d=" M 386.84 170.78 C 388.22 168.90 390.37 170.41 390.94 172.14 C 389.47 172.06 388.04 171.63 386.84 170.78 Z" />
<path fill="#a6a9a8" opacity="0.69" d=" M 311.14 171.98 C 312.45 170.62 314.67 170.10 316.05 171.69 C 314.60 172.68 312.74 172.11 311.14 171.98 Z" />
<path fill="#a6a9a8" opacity="0.69" d=" M 391.88 172.78 C 393.82 170.88 396.30 172.96 396.74 175.11 C 394.99 174.62 393.31 173.89 391.88 172.78 Z" />
<path fill="#a6a9a8" opacity="0.69" d=" M 397.36 175.33 C 401.37 175.91 404.53 178.96 406.20 182.53 C 403.32 180.04 400.39 177.63 397.36 175.33 Z" />
<path fill="#a6a9a8" opacity="0.69" d=" M 165.41 181.71 C 165.66 185.62 165.75 189.56 164.95 193.41 C 164.87 189.51 164.88 185.59 165.41 181.71 Z" />
<path fill="#a6a9a8" opacity="0.69" d=" M 406.73 183.26 C 408.13 182.72 409.95 184.62 408.13 185.46 C 407.78 184.91 407.08 183.81 406.73 183.26 Z" />
<path fill="#a6a9a8" opacity="0.69" d=" M 409.20 186.48 L 409.29 186.57 C 409.31 186.61 409.34 186.71 409.36 186.76 L 409.20 186.48 Z" />
<path fill="#a6a9a8" opacity="0.69" d=" M 409.93 188.14 C 412.14 188.62 413.98 191.10 412.22 193.11 C 411.11 191.63 410.38 189.92 409.93 188.14 Z" />
<path fill="#a6a9a8" opacity="0.69" d=" M 412.92 194.17 L 413.71 194.51 C 413.72 194.98 413.73 195.92 413.74 196.39 C 413.54 195.83 413.13 194.72 412.92 194.17 Z" />
<path fill="#a6a9a8" opacity="0.69" d=" M 203.08 205.72 C 203.26 201.87 204.23 197.84 207.12 195.10 C 206.02 198.73 204.72 202.30 203.08 205.72 Z" />
<path fill="#a6a9a8" opacity="0.69" d=" M 414.11 196.93 C 415.27 197.89 415.47 198.99 414.70 200.21 C 413.71 199.27 413.51 198.18 414.11 196.93 Z" />
<path fill="#a6a9a8" opacity="0.69" d=" M 414.88 200.60 C 416.03 202.90 416.74 205.40 416.89 207.97 C 417.36 214.29 418.15 220.60 418.02 226.96 C 417.86 234.05 419.68 240.97 420.34 248.00 C 421.53 259.40 425.40 270.49 425.06 282.06 C 424.81 287.79 424.69 293.54 424.88 299.28 C 426.27 297.72 427.71 296.21 429.20 294.74 C 428.00 297.91 426.63 301.09 424.08 303.42 C 424.18 295.28 424.02 287.14 423.98 279.00 C 423.53 265.76 418.48 253.19 417.91 239.96 C 417.68 235.64 416.67 231.37 416.92 227.02 C 417.45 218.15 415.49 209.41 414.88 200.60 Z" />
<path fill="#a6a9a8" opacity="0.69" d=" M 202.86 207.96 C 201.47 207.41 201.53 206.81 203.05 206.15 C 203.00 206.60 202.91 207.51 202.86 207.96 Z" />
<path fill="#a6a9a8" opacity="0.69" d=" M 201.83 212.98 C 200.09 212.77 200.76 210.54 201.99 210.08 C 201.95 210.81 201.87 212.26 201.83 212.98 Z" />
<path fill="#a6a9a8" opacity="0.69" d=" M 200.81 218.03 C 199.08 217.19 199.67 214.93 201.21 214.27 C 201.49 215.58 201.35 216.83 200.81 218.03 Z" />
<path fill="#a6a9a8" opacity="0.69" d=" M 454.58 233.33 C 454.37 228.09 454.22 222.83 454.84 217.61 C 455.13 222.85 455.36 228.12 454.58 233.33 Z" />
<path fill="#a6a9a8" opacity="0.69" d=" M 197.18 236.65 C 196.97 230.87 197.96 224.99 200.14 219.64 C 199.71 225.38 198.66 231.09 197.18 236.65 Z" />
<path fill="#a6a9a8" opacity="0.69" d=" M 166.82 224.11 C 168.22 227.03 167.52 230.31 167.05 233.37 C 167.05 230.28 167.02 227.19 166.82 224.11 Z" />
<path fill="#a6a9a8" opacity="0.69" d=" M 194.55 253.65 C 193.68 248.01 195.13 242.13 197.11 236.85 C 196.84 242.52 195.43 248.06 194.55 253.65 Z" />
<path fill="#a6a9a8" opacity="0.69" d=" M 166.06 238.02 C 167.92 238.71 167.30 241.09 166.04 242.05 C 165.68 240.69 165.69 239.35 166.06 238.02 Z" />
<path fill="#a6a9a8" opacity="0.69" d=" M 165.51 260.42 C 164.42 255.21 164.65 249.75 165.53 244.53 C 165.58 249.82 165.53 255.12 165.51 260.42 Z" />
<path fill="#a6a9a8" opacity="0.69" d=" M 192.65 266.72 C 191.41 262.76 192.53 258.59 194.09 254.91 C 194.19 258.90 193.36 262.81 192.65 266.72 Z" />
<path fill="#a6a9a8" opacity="0.69" d=" M 451.85 262.01 C 449.97 261.24 450.73 258.86 452.14 258.05 C 452.34 259.39 452.24 260.71 451.85 262.01 Z" />
<path fill="#a6a9a8" opacity="0.69" d=" M 191.37 267.13 C 191.64 267.41 192.18 267.96 192.45 268.24 C 191.36 276.48 189.38 284.63 189.06 292.97 C 189.02 294.85 188.78 296.72 188.30 298.54 C 187.99 297.53 187.50 296.53 187.59 295.45 C 188.25 285.94 190.25 276.59 191.37 267.13 Z" />
<path fill="#a6a9a8" opacity="0.69" d=" M 174.58 279.57 C 179.62 282.92 181.86 289.09 182.92 294.79 C 180.24 290.17 178.61 284.98 175.30 280.71 L 174.58 279.57 Z" />
<path fill="#a6a9a8" opacity="0.69" d=" M 440.69 284.77 L 441.07 284.65 L 440.94 284.79 L 440.46 284.92 L 440.69 284.77 Z" />
<path fill="#a6a9a8" opacity="0.69" d=" M 435.96 287.08 C 436.02 285.43 438.15 283.75 439.20 285.71 C 438.22 286.41 437.14 286.87 435.96 287.08 Z" />
<path fill="#a6a9a8" opacity="0.69" d=" M 433.34 289.41 C 432.68 288.07 434.44 285.96 435.39 287.81 C 434.87 288.21 433.85 289.01 433.34 289.41 Z" />
<path fill="#a6a9a8" opacity="0.69" d=" M 429.57 294.29 C 428.60 292.24 430.21 290.66 432.10 290.10 C 432.32 291.95 430.87 293.25 429.57 294.29 Z" />
<path fill="#a6a9a8" opacity="0.69" d=" M 183.01 294.99 C 183.18 295.58 183.53 296.75 183.70 297.34 C 183.53 296.75 183.18 295.58 183.01 294.99 Z" />
<path fill="#a6a9a8" opacity="0.69" d=" M 184.04 298.02 C 185.79 299.18 186.74 301.32 185.29 303.14 C 184.23 301.63 183.80 299.83 184.04 298.02 Z" />
<path fill="#a6a9a8" opacity="0.69" d=" M 185.69 304.81 C 186.52 302.98 187.39 301.16 188.13 299.29 C 188.20 302.79 189.28 306.26 188.79 309.78 C 186.21 310.31 186.50 306.47 185.69 304.81 Z" />
</g>
<g id="#d3d5d4ff">
<path fill="#d3d5d4" opacity="1.00" d=" M 1.02 1.01 C 205.67 1.00 410.32 0.99 614.98 1.02 C 615.01 205.67 615.01 410.33 614.98 614.99 C 612.35 614.97 609.72 614.96 607.10 614.95 C 607.37 607.05 601.73 600.68 595.85 596.16 C 583.12 584.44 567.50 576.70 552.30 568.75 C 536.99 560.90 521.19 554.03 505.99 545.95 C 493.00 539.04 480.16 531.83 467.20 524.87 C 456.64 520.49 445.75 516.95 435.03 512.97 C 432.92 512.05 430.63 512.34 428.43 512.62 C 422.84 511.04 418.44 506.57 414.88 502.19 C 412.58 494.99 411.28 487.47 410.16 480.01 C 409.76 472.64 407.93 465.41 407.94 458.02 C 408.10 446.35 406.00 434.70 406.95 423.04 C 408.71 418.13 412.40 414.20 414.39 409.39 C 417.39 403.30 416.55 396.34 417.70 389.84 C 418.93 382.67 421.10 375.65 424.10 369.02 C 425.06 367.24 425.99 365.01 428.12 364.41 C 431.41 363.10 435.43 362.73 437.68 359.66 C 441.29 355.30 441.05 349.32 442.17 344.06 C 444.54 332.10 444.13 319.65 447.89 307.97 C 449.79 301.61 451.51 294.48 448.88 288.08 C 447.63 284.93 443.82 284.74 440.94 284.79 L 441.07 284.65 C 442.70 283.88 444.73 283.39 445.65 281.67 C 449.43 275.77 450.15 268.66 451.85 262.01 C 452.24 260.71 452.34 259.39 452.14 258.05 C 453.74 249.90 454.00 241.59 454.58 233.33 C 455.36 228.12 455.13 222.85 454.84 217.61 C 456.18 203.12 456.34 188.54 455.76 174.01 C 454.74 155.10 452.93 135.04 442.24 118.80 C 438.60 112.92 432.72 108.89 426.25 106.67 C 426.17 103.65 426.14 100.64 426.10 97.62 C 416.87 100.18 407.77 103.77 398.04 103.90 C 397.37 102.50 396.35 102.22 394.99 103.05 C 394.33 102.29 393.67 101.53 393.03 100.75 C 393.15 98.02 393.25 95.24 392.48 92.59 C 391.25 89.70 389.18 87.25 386.92 85.11 C 380.56 79.38 372.98 75.25 365.24 71.71 C 363.00 70.58 360.45 70.88 358.04 70.93 C 356.67 70.58 354.64 70.12 353.85 71.70 C 349.28 70.72 344.56 71.10 339.96 70.36 C 328.27 68.65 316.58 66.94 304.89 65.21 C 298.38 63.84 291.70 63.88 285.08 63.79 C 282.49 63.75 279.81 64.12 277.57 65.51 C 274.22 67.41 272.84 71.62 269.19 73.12 C 264.78 75.22 259.77 74.91 255.02 75.05 C 253.36 74.71 251.65 74.60 250.01 75.09 C 245.63 76.01 241.03 76.66 237.17 79.10 C 234.31 80.82 232.82 84.09 229.93 85.77 C 215.78 93.02 203.20 102.96 191.06 113.15 C 177.01 124.55 172.04 142.96 168.47 159.92 C 167.61 161.45 167.37 163.21 167.77 164.93 C 166.28 170.41 166.04 176.10 165.41 181.71 C 164.88 185.59 164.87 189.51 164.95 193.41 C 164.03 200.91 164.68 208.48 164.84 216.01 C 164.77 218.85 165.71 221.54 166.82 224.11 C 167.02 227.19 167.05 230.28 167.05 233.37 C 166.81 234.94 166.45 236.48 166.06 238.02 C 165.69 239.35 165.68 240.69 166.04 242.05 C 165.91 242.67 165.66 243.91 165.53 244.53 C 164.65 249.75 164.42 255.21 165.51 260.42 C 168.77 266.69 171.01 273.47 174.58 279.57 L 175.30 280.71 C 170.80 278.72 164.96 278.62 161.46 282.56 C 157.08 287.95 157.08 295.34 157.41 301.93 C 157.95 308.59 158.32 315.53 161.51 321.56 C 166.30 330.43 168.38 340.39 170.70 350.11 C 172.43 357.27 172.49 365.56 177.78 371.23 C 181.92 374.27 185.21 369.02 188.12 366.75 C 189.99 390.49 197.88 413.89 211.76 433.32 C 214.95 437.58 213.96 443.04 213.98 447.98 C 213.89 453.74 215.98 459.26 215.95 465.02 C 215.91 472.70 216.28 480.39 215.76 488.06 C 215.39 493.87 213.10 499.33 210.49 504.45 C 208.71 507.85 206.93 511.47 203.71 513.75 C 185.56 519.29 168.05 526.71 151.00 534.99 C 141.33 539.64 131.24 543.94 123.09 551.09 C 117.97 555.60 111.99 559.08 105.62 561.53 C 99.79 563.86 93.03 561.34 87.44 564.56 C 77.29 569.95 68.42 577.34 59.56 584.58 C 47.61 594.23 36.63 605.00 24.83 614.83 C 16.90 615.20 8.95 614.91 1.02 614.97 C 0.99 410.32 1.00 205.67 1.02 1.01 Z" />
</g>
<g id="#9b9ea3ff">
<path fill="#9b9ea3" opacity="1.00" d=" M 277.57 65.51 C 279.81 64.12 282.49 63.75 285.08 63.79 C 291.70 63.88 298.38 63.84 304.89 65.21 C 316.58 66.94 328.27 68.65 339.96 70.36 C 344.56 71.10 349.28 70.72 353.85 71.70 C 355.29 72.33 356.92 72.05 358.04 70.93 C 360.45 70.88 363.00 70.58 365.24 71.71 C 372.98 75.25 380.56 79.38 386.92 85.11 C 389.18 87.25 391.25 89.70 392.48 92.59 C 392.52 95.30 392.02 98.15 393.03 100.75 C 393.67 101.53 394.33 102.29 394.99 103.05 C 395.78 103.99 396.80 104.27 398.04 103.90 C 407.77 103.77 416.87 100.18 426.10 97.62 C 426.14 100.64 426.17 103.65 426.25 106.67 C 432.72 108.89 438.60 112.92 442.24 118.80 C 452.93 135.04 454.74 155.10 455.76 174.01 C 456.34 188.54 456.18 203.12 454.84 217.61 C 454.22 222.83 454.37 228.09 454.58 233.33 C 454.00 241.59 453.74 249.90 452.14 258.05 C 450.73 258.86 449.97 261.24 451.85 262.01 C 450.15 268.66 449.43 275.77 445.65 281.67 C 444.73 283.39 442.70 283.88 441.07 284.65 L 440.69 284.77 L 440.46 284.92 C 440.14 285.12 439.51 285.51 439.20 285.71 C 438.15 283.75 436.02 285.43 435.96 287.08 C 435.82 287.26 435.53 287.63 435.39 287.81 C 434.44 285.96 432.68 288.07 433.34 289.41 C 433.03 289.58 432.41 289.93 432.10 290.10 C 430.21 290.66 428.60 292.24 429.57 294.29 C 429.48 294.40 429.29 294.63 429.20 294.74 C 427.71 296.21 426.27 297.72 424.88 299.28 C 424.69 293.54 424.81 287.79 425.06 282.06 C 425.40 270.49 421.53 259.40 420.34 248.00 C 419.68 240.97 417.86 234.05 418.02 226.96 C 418.15 220.60 417.36 214.29 416.89 207.97 C 416.74 205.40 416.03 202.90 414.88 200.60 L 414.70 200.21 C 415.47 198.99 415.27 197.89 414.11 196.93 L 413.74 196.39 C 413.73 195.92 413.72 194.98 413.71 194.51 L 412.92 194.17 C 412.75 193.90 412.40 193.37 412.22 193.11 C 413.98 191.10 412.14 188.62 409.93 188.14 C 409.79 187.80 409.50 187.10 409.36 186.76 C 409.34 186.71 409.31 186.61 409.29 186.57 L 409.20 186.48 C 408.93 186.22 408.39 185.71 408.13 185.46 C 409.95 184.62 408.13 182.72 406.73 183.26 C 406.59 183.08 406.33 182.72 406.20 182.53 C 404.53 178.96 401.37 175.91 397.36 175.33 C 397.20 175.28 396.89 175.16 396.74 175.11 C 396.30 172.96 393.82 170.88 391.88 172.78 C 391.65 172.62 391.18 172.30 390.94 172.14 C 390.37 170.41 388.22 168.90 386.84 170.78 C 386.56 170.61 386.00 170.28 385.72 170.12 L 385.77 169.29 L 385.03 168.85 C 384.76 169.08 384.22 169.55 383.95 169.78 C 383.65 169.65 383.04 169.38 382.74 169.25 C 382.38 167.60 381.80 167.42 381.01 168.70 C 380.80 168.58 380.38 168.35 380.17 168.24 C 376.91 166.04 372.90 165.71 369.11 165.17 C 361.87 164.38 354.55 163.41 347.29 164.53 C 342.46 165.27 337.15 164.28 332.87 167.13 C 332.75 167.19 332.49 167.30 332.36 167.36 C 329.02 166.79 325.54 167.17 322.85 169.39 C 322.65 169.50 322.26 169.71 322.06 169.82 C 321.28 168.49 320.70 168.66 320.33 170.30 C 319.98 170.45 319.29 170.74 318.95 170.89 C 318.47 169.50 317.87 169.53 317.15 170.98 C 316.88 171.16 316.32 171.51 316.05 171.69 C 314.67 170.10 312.45 170.62 311.14 171.98 C 310.73 172.17 309.92 172.54 309.52 172.72 C 307.41 172.17 305.24 171.83 303.05 171.94 C 293.73 172.20 284.34 172.31 275.10 170.79 C 270.55 170.45 266.08 168.71 261.48 169.42 C 261.29 169.36 260.92 169.22 260.73 169.16 C 260.08 167.62 257.83 167.02 256.99 168.74 C 256.66 168.56 256.01 168.22 255.68 168.05 C 254.35 166.35 251.90 165.01 250.00 166.70 C 249.82 166.59 249.46 166.38 249.28 166.28 C 245.74 164.04 241.05 162.06 236.97 163.96 C 236.79 164.03 236.42 164.17 236.24 164.25 C 234.75 164.26 233.17 164.01 231.79 164.69 C 223.16 168.55 216.97 176.14 212.06 183.97 C 210.26 187.22 207.85 190.36 207.53 194.20 C 207.43 194.42 207.22 194.87 207.12 195.10 C 204.23 197.84 203.26 201.87 203.08 205.72 L 203.05 206.15 C 201.53 206.81 201.47 207.41 202.86 207.96 C 202.64 208.49 202.21 209.55 201.99 210.08 C 200.76 210.54 200.09 212.77 201.83 212.98 C 201.68 213.30 201.37 213.95 201.21 214.27 C 199.67 214.93 199.08 217.19 200.81 218.03 C 200.64 218.43 200.31 219.23 200.14 219.64 C 197.96 224.99 196.97 230.87 197.18 236.65 L 197.11 236.85 C 195.13 242.13 193.68 248.01 194.55 253.65 C 194.44 253.96 194.21 254.59 194.09 254.91 C 192.53 258.59 191.41 262.76 192.65 266.72 C 192.60 267.10 192.50 267.86 192.45 268.24 C 192.18 267.96 191.64 267.41 191.37 267.13 C 190.25 276.59 188.25 285.94 187.59 295.45 C 187.50 296.53 187.99 297.53 188.30 298.54 C 188.26 298.73 188.17 299.10 188.13 299.29 C 187.39 301.16 186.52 302.98 185.69 304.81 C 185.59 304.40 185.39 303.56 185.29 303.14 C 186.74 301.32 185.79 299.18 184.04 298.02 L 183.70 297.34 C 183.53 296.75 183.18 295.58 183.01 294.99 L 182.92 294.79 C 181.86 289.09 179.62 282.92 174.58 279.57 C 171.01 273.47 168.77 266.69 165.51 260.42 C 165.53 255.12 165.58 249.82 165.53 244.53 C 165.66 243.91 165.91 242.67 166.04 242.05 C 167.30 241.09 167.92 238.71 166.06 238.02 C 166.45 236.48 166.81 234.94 167.05 233.37 C 167.52 230.31 168.22 227.03 166.82 224.11 C 165.71 221.54 164.77 218.85 164.84 216.01 C 164.68 208.48 164.03 200.91 164.95 193.41 C 165.75 189.56 165.66 185.62 165.41 181.71 C 166.04 176.10 166.28 170.41 167.77 164.93 C 169.48 163.75 169.46 161.56 168.47 159.92 C 172.04 142.96 177.01 124.55 191.06 113.15 C 203.20 102.96 215.78 93.02 229.93 85.77 C 232.82 84.09 234.31 80.82 237.17 79.10 C 241.03 76.66 245.63 76.01 250.01 75.09 C 251.25 76.93 253.63 76.38 255.02 75.05 C 259.77 74.91 264.78 75.22 269.19 73.12 C 272.84 71.62 274.22 67.41 277.57 65.51 Z" />
</g>
<g id="#eef0edff">
<path fill="#eef0ed" opacity="1.00" d=" M 236.97 163.96 C 241.20 163.95 245.15 165.59 249.28 166.28 C 249.46 166.38 249.82 166.59 250.00 166.70 C 251.63 167.95 253.70 168.11 255.68 168.05 C 256.01 168.22 256.66 168.56 256.99 168.74 C 258.16 169.30 259.41 169.44 260.73 169.16 C 260.92 169.22 261.29 169.36 261.48 169.42 C 269.09 171.78 277.17 171.94 285.03 173.00 C 293.18 173.00 301.39 173.44 309.52 172.72 C 309.92 172.54 310.73 172.17 311.14 171.98 C 312.74 172.11 314.60 172.68 316.05 171.69 C 316.32 171.51 316.88 171.16 317.15 170.98 C 317.60 170.96 318.50 170.91 318.95 170.89 C 319.29 170.74 319.98 170.45 320.33 170.30 C 320.76 170.18 321.63 169.94 322.06 169.82 C 322.26 169.71 322.65 169.50 322.85 169.39 C 326.04 168.83 329.26 168.36 332.36 167.36 C 332.49 167.30 332.75 167.19 332.87 167.13 C 339.89 166.35 346.90 165.55 353.94 165.03 C 362.77 165.33 371.49 166.71 380.17 168.24 C 380.38 168.35 380.80 168.58 381.01 168.70 C 381.44 168.84 382.31 169.12 382.74 169.25 C 383.04 169.38 383.65 169.65 383.95 169.78 C 384.39 169.86 385.28 170.03 385.72 170.12 C 386.00 170.28 386.56 170.61 386.84 170.78 C 388.04 171.63 389.47 172.06 390.94 172.14 C 391.18 172.30 391.65 172.62 391.88 172.78 C 393.31 173.89 394.99 174.62 396.74 175.11 C 396.89 175.16 397.20 175.28 397.36 175.33 C 400.39 177.63 403.32 180.04 406.20 182.53 C 406.33 182.72 406.59 183.08 406.73 183.26 C 407.08 183.81 407.78 184.91 408.13 185.46 C 408.39 185.71 408.93 186.22 409.20 186.48 L 409.36 186.76 C 409.50 187.10 409.79 187.80 409.93 188.14 C 410.38 189.92 411.11 191.63 412.22 193.11 C 412.40 193.37 412.75 193.90 412.92 194.17 C 413.13 194.72 413.54 195.83 413.74 196.39 L 414.11 196.93 C 413.51 198.18 413.71 199.27 414.70 200.21 L 414.88 200.60 C 415.49 209.41 417.45 218.15 416.92 227.02 C 416.67 231.37 417.68 235.64 417.91 239.96 C 418.48 253.19 423.53 265.76 423.98 279.00 C 424.02 287.14 424.18 295.28 424.08 303.42 C 426.63 301.09 428.00 297.91 429.20 294.74 C 429.29 294.63 429.48 294.40 429.57 294.29 C 430.87 293.25 432.32 291.95 432.10 290.10 C 432.41 289.93 433.03 289.58 433.34 289.41 C 433.85 289.01 434.87 288.21 435.39 287.81 C 435.53 287.63 435.82 287.26 435.96 287.08 C 437.14 286.87 438.22 286.41 439.20 285.71 C 439.51 285.51 440.14 285.12 440.46 284.92 L 440.94 284.79 C 443.82 284.74 447.63 284.93 448.88 288.08 C 451.51 294.48 449.79 301.61 447.89 307.97 C 444.13 319.65 444.54 332.10 442.17 344.06 C 441.05 349.32 441.29 355.30 437.68 359.66 C 435.43 362.73 431.41 363.10 428.12 364.41 C 425.99 365.01 425.06 367.24 424.10 369.02 C 421.10 375.65 418.93 382.67 417.70 389.84 C 416.55 396.34 417.39 403.30 414.39 409.39 C 412.40 414.20 408.71 418.13 406.95 423.04 C 406.00 434.70 408.10 446.35 407.94 458.02 C 407.93 465.41 409.76 472.64 410.16 480.01 C 411.28 487.47 412.58 494.99 414.88 502.19 C 418.44 506.57 422.84 511.04 428.43 512.62 L 429.83 512.99 C 427.88 515.42 426.30 518.10 424.76 520.80 C 418.43 530.34 409.28 537.55 399.62 543.51 C 390.82 549.65 380.46 552.84 370.44 556.34 C 345.97 563.24 320.29 565.29 294.96 563.74 C 284.89 563.23 275.22 560.15 265.63 557.25 C 247.29 551.10 230.79 540.33 216.51 527.40 C 211.77 523.31 207.70 518.54 203.71 513.75 C 206.93 511.47 208.71 507.85 210.49 504.45 C 213.10 499.33 215.39 493.87 215.76 488.06 C 216.28 480.39 215.91 472.70 215.95 465.02 C 215.98 459.26 213.89 453.74 213.98 447.98 C 213.96 443.04 214.95 437.58 211.76 433.32 C 197.88 413.89 189.99 390.49 188.12 366.75 C 185.21 369.02 181.92 374.27 177.78 371.23 C 172.49 365.56 172.43 357.27 170.70 350.11 C 168.38 340.39 166.30 330.43 161.51 321.56 C 158.32 315.53 157.95 308.59 157.41 301.93 C 157.08 295.34 157.08 287.95 161.46 282.56 C 164.96 278.62 170.80 278.72 175.30 280.71 C 178.61 284.98 180.24 290.17 182.92 294.79 L 183.01 294.99 C 183.18 295.58 183.53 296.75 183.70 297.34 L 184.04 298.02 C 183.80 299.83 184.23 301.63 185.29 303.14 C 185.39 303.56 185.59 304.40 185.69 304.81 C 186.50 306.47 186.21 310.31 188.79 309.78 C 189.28 306.26 188.20 302.79 188.13 299.29 C 188.17 299.10 188.26 298.73 188.30 298.54 C 188.78 296.72 189.02 294.85 189.06 292.97 C 189.38 284.63 191.36 276.48 192.45 268.24 C 192.50 267.86 192.60 267.10 192.65 266.72 C 193.36 262.81 194.19 258.90 194.09 254.91 C 194.21 254.59 194.44 253.96 194.55 253.65 C 195.43 248.06 196.84 242.52 197.11 236.85 L 197.18 236.65 C 198.66 231.09 199.71 225.38 200.14 219.64 C 200.31 219.23 200.64 218.43 200.81 218.03 C 201.35 216.83 201.49 215.58 201.21 214.27 C 201.37 213.95 201.68 213.30 201.83 212.98 C 201.87 212.26 201.95 210.81 201.99 210.08 C 202.21 209.55 202.64 208.49 202.86 207.96 C 202.91 207.51 203.00 206.60 203.05 206.15 L 203.08 205.72 C 204.72 202.30 206.02 198.73 207.12 195.10 C 207.22 194.87 207.43 194.42 207.53 194.20 C 209.14 191.85 210.52 189.36 211.81 186.83 C 217.22 176.95 225.18 167.75 236.24 164.25 C 236.42 164.17 236.79 164.03 236.97 163.96 Z" />
</g>
<g id="#b0b2b1ff">
<path fill="#b0b2b1" opacity="1.00" d=" M 428.43 512.62 C 430.63 512.34 432.92 512.05 435.03 512.97 C 445.75 516.95 456.64 520.49 467.20 524.87 C 480.16 531.83 493.00 539.04 505.99 545.95 C 521.19 554.03 536.99 560.90 552.30 568.75 C 567.50 576.70 583.12 584.44 595.85 596.16 C 601.73 600.68 607.37 607.05 607.10 614.95 C 444.71 615.00 282.33 614.95 119.94 614.97 C 88.24 614.87 56.53 615.16 24.83 614.83 C 36.63 605.00 47.61 594.23 59.56 584.58 C 68.42 577.34 77.29 569.95 87.44 564.56 C 93.03 561.34 99.79 563.86 105.62 561.53 C 111.99 559.08 117.97 555.60 123.09 551.09 C 131.24 543.94 141.33 539.64 151.00 534.99 C 168.05 526.71 185.56 519.29 203.71 513.75 C 207.70 518.54 211.77 523.31 216.51 527.40 C 230.79 540.33 247.29 551.10 265.63 557.25 C 275.22 560.15 284.89 563.23 294.96 563.74 C 320.29 565.29 345.97 563.24 370.44 556.34 C 380.46 552.84 390.82 549.65 399.62 543.51 C 409.28 537.55 418.43 530.34 424.76 520.80 C 426.30 518.10 427.88 515.42 429.83 512.99 L 428.43 512.62 Z" />
</g>
</svg>
