<?xml version="1.0" encoding="UTF-8" ?>
<!DOCTYPE svg PUBLIC "-//W3C//DTD SVG 1.1//EN" "http://www.w3.org/Graphics/SVG/1.1/DTD/svg11.dtd">
<svg width="1500pt" height="750pt" viewBox="0 0 1500 750" version="1.1" xmlns="http://www.w3.org/2000/svg">
<g id="#e9eef1ff">
<path fill="#e9eef1" opacity="1.00" d=" M 0.00 0.00 L 1500.00 0.00 L 1500.00 750.00 L 0.00 750.00 L 0.00 0.00 M 519.32 135.40 C 502.88 138.05 488.55 150.37 483.20 166.10 C 480.89 172.46 480.57 179.31 480.62 186.01 C 480.70 302.33 480.50 418.66 480.74 534.98 C 480.01 558.87 501.10 580.93 524.97 581.37 C 681.64 581.58 838.31 581.55 994.98 581.35 C 1018.69 580.68 1039.48 558.79 1038.83 535.05 C 1038.93 417.04 1038.85 299.03 1038.87 181.03 C 1038.99 167.54 1032.51 154.38 1022.30 145.69 C 1013.95 138.45 1002.94 134.69 991.93 134.73 C 836.98 134.79 682.01 134.73 527.05 134.77 C 524.46 134.82 521.87 135.00 519.32 135.40 Z" />
<path fill="#e9eef1" opacity="1.00" d=" M 524.43 172.63 C 542.92 171.82 561.49 172.08 580.02 172.00 C 634.69 172.22 689.36 172.09 744.04 172.13 C 792.70 172.28 841.37 171.77 890.03 172.13 C 924.06 172.14 958.08 172.10 992.10 172.14 C 996.92 171.96 1001.14 176.24 1001.51 180.92 C 1001.49 298.63 1001.51 416.35 1001.50 534.07 C 1001.82 538.89 997.92 543.67 993.05 543.98 C 929.72 544.25 866.38 544.08 803.05 544.13 C 711.37 544.06 619.69 544.25 528.02 544.03 C 521.94 544.68 517.52 538.74 518.00 533.07 C 518.00 416.36 518.01 299.66 518.00 182.95 C 517.77 178.67 520.07 173.86 524.43 172.63 M 604.34 209.41 C 590.06 211.03 576.66 218.48 567.71 229.71 C 558.19 241.28 553.33 256.75 555.43 271.68 C 557.18 289.92 569.29 306.24 585.36 314.64 C 595.84 320.29 608.16 322.20 619.89 320.21 C 648.58 316.27 670.95 286.74 666.45 258.02 C 663.65 228.52 633.57 205.25 604.34 209.41 M 843.25 255.79 C 793.59 305.12 744.46 354.99 694.59 404.12 C 679.07 388.92 663.78 373.47 648.51 358.02 C 645.33 360.68 642.51 363.71 639.52 366.57 C 612.13 393.50 585.28 420.98 557.91 447.92 C 556.35 449.54 554.80 451.49 555.02 453.89 C 554.93 471.49 555.03 489.11 555.19 506.72 C 691.52 506.81 827.85 506.69 964.18 506.78 C 964.53 498.21 964.44 489.62 964.50 481.04 C 964.50 447.70 964.48 414.37 964.51 381.03 C 964.55 378.46 964.07 375.68 962.04 373.92 C 930.38 342.61 899.01 311.00 867.48 279.54 C 859.41 271.62 851.65 263.35 843.25 255.79 Z" />
</g>
<g id="#babec1ff">
<path fill="#babec1" opacity="1.00" d=" M 519.32 135.40 C 521.87 135.00 524.46 134.82 527.05 134.77 C 682.01 134.73 836.98 134.79 991.93 134.73 C 1002.94 134.69 1013.95 138.45 1022.30 145.69 C 1032.51 154.38 1038.99 167.54 1038.87 181.03 C 1038.85 299.03 1038.93 417.04 1038.83 535.05 C 1039.48 558.79 1018.69 580.68 994.98 581.35 C 838.31 581.55 681.64 581.58 524.97 581.37 C 501.10 580.93 480.01 558.87 480.74 534.98 C 480.50 418.66 480.70 302.33 480.62 186.01 C 480.57 179.31 480.89 172.46 483.20 166.10 C 488.55 150.37 502.88 138.05 519.32 135.40 M 524.43 172.63 C 520.07 173.86 517.77 178.67 518.00 182.95 C 518.01 299.66 518.00 416.36 518.00 533.07 C 517.52 538.74 521.94 544.68 528.02 544.03 C 619.69 544.25 711.37 544.06 803.05 544.13 C 866.38 544.08 929.72 544.25 993.05 543.98 C 997.92 543.67 1001.82 538.89 1001.50 534.07 C 1001.51 416.35 1001.49 298.63 1001.51 180.92 C 1001.14 176.24 996.92 171.96 992.10 172.14 C 958.08 172.10 924.06 172.14 890.03 172.13 C 841.37 171.77 792.70 172.28 744.04 172.13 C 689.36 172.09 634.69 172.22 580.02 172.00 C 561.49 172.08 542.92 171.82 524.43 172.63 Z" />
<path fill="#babec1" opacity="1.00" d=" M 604.34 209.41 C 633.57 205.25 663.65 228.52 666.45 258.02 C 670.95 286.74 648.58 316.27 619.89 320.21 C 608.16 322.20 595.84 320.29 585.36 314.64 C 569.29 306.24 557.18 289.92 555.43 271.68 C 553.33 256.75 558.19 241.28 567.71 229.71 C 576.66 218.48 590.06 211.03 604.34 209.41 Z" />
<path fill="#babec1" opacity="1.00" d=" M 843.25 255.79 C 851.65 263.35 859.41 271.62 867.48 279.54 C 899.01 311.00 930.38 342.61 962.04 373.92 C 964.07 375.68 964.55 378.46 964.51 381.03 C 964.48 414.37 964.50 447.70 964.50 481.04 C 964.44 489.62 964.53 498.21 964.18 506.78 C 827.85 506.69 691.52 506.81 555.19 506.72 C 555.03 489.11 554.93 471.49 555.02 453.89 C 554.80 451.49 556.35 449.54 557.91 447.92 C 585.28 420.98 612.13 393.50 639.52 366.57 C 642.51 363.71 645.33 360.68 648.51 358.02 C 663.78 373.47 679.07 388.92 694.59 404.12 C 744.46 354.99 793.59 305.12 843.25 255.79 Z" />
</g>
</svg>
