<?xml version="1.0" encoding="UTF-8" ?>
<!DOCTYPE svg PUBLIC "-//W3C//DTD SVG 1.1//EN" "http://www.w3.org/Graphics/SVG/1.1/DTD/svg11.dtd">
<svg width="856pt" height="856pt" viewBox="0 0 856 856" version="1.1" xmlns="http://www.w3.org/2000/svg">
<g id="#9b9d9ccf">
<path fill="#9b9d9c" opacity="0.81" d=" M 0.00 0.00 L 856.00 0.00 L 856.00 856.00 L 0.00 856.00 L 0.00 0.00 M 1.69 1.60 C 1.40 17.07 1.64 32.55 1.56 48.02 C 1.53 316.65 1.63 585.28 1.52 853.90 C 12.61 854.05 23.71 854.04 34.81 853.91 C 304.40 854.04 573.99 853.95 843.57 853.96 C 847.04 853.98 850.51 853.99 853.98 854.00 C 854.02 623.66 853.99 393.32 854.00 162.98 C 853.90 109.17 854.20 55.36 853.85 1.55 C 569.80 1.61 285.74 1.51 1.69 1.60 Z" />
</g>
<g id="#d3d5d4ff">
<path fill="#d3d5d4" opacity="1.00" d=" M 1.69 1.60 C 285.74 1.51 569.80 1.61 853.85 1.55 C 854.20 55.36 853.90 109.17 854.00 162.98 C 853.99 393.32 854.02 623.66 853.98 854.00 C 850.51 853.99 847.04 853.98 843.57 853.96 C 843.27 843.44 836.41 834.83 828.50 828.59 C 812.43 814.11 793.41 803.52 774.29 793.66 C 749.64 780.63 723.95 769.71 699.41 756.47 C 685.81 749.14 672.28 741.68 658.73 734.28 C 643.43 725.28 626.08 720.82 609.65 714.39 C 605.46 712.95 600.76 710.44 596.42 712.76 C 588.11 709.62 580.16 704.05 575.98 696.06 C 570.80 680.34 569.78 663.68 567.49 647.39 C 566.85 642.28 566.73 637.13 566.66 631.99 C 566.52 618.64 564.55 605.34 565.01 591.98 C 564.97 583.73 571.40 577.75 574.73 570.73 C 578.65 563.68 578.92 555.47 579.54 547.63 C 580.54 536.14 583.90 524.97 588.33 514.36 C 589.73 511.40 591.12 507.91 594.36 506.54 C 599.08 504.34 604.96 503.75 608.32 499.31 C 612.89 493.24 612.82 485.25 614.25 478.10 C 617.41 461.50 617.05 444.30 622.12 428.07 C 624.82 418.98 627.37 408.72 623.32 399.66 C 621.55 395.73 616.67 395.65 613.00 395.70 C 615.56 394.61 618.38 393.47 619.83 390.92 C 623.68 384.54 625.11 377.10 626.77 369.94 C 630.25 352.50 631.25 334.69 632.34 316.97 C 632.61 311.28 632.03 305.58 632.43 299.89 C 634.32 276.98 634.42 253.92 632.85 230.98 C 631.45 211.75 628.72 192.17 620.31 174.61 C 616.62 167.16 612.19 159.72 605.44 154.64 C 601.60 151.65 597.12 149.67 592.68 147.77 C 592.39 143.57 592.19 139.36 592.04 135.14 C 581.11 138.07 570.41 142.16 559.11 143.52 C 554.88 143.93 549.87 143.53 546.79 140.26 C 545.81 136.15 546.50 131.78 545.19 127.73 C 543.58 123.71 540.57 120.45 537.45 117.54 C 529.25 110.24 519.57 104.88 509.72 100.15 C 505.79 98.18 501.33 97.71 496.99 98.02 C 480.04 99.77 463.28 95.64 446.55 93.54 C 432.37 91.81 418.36 88.41 404.02 88.31 C 398.29 88.23 392.22 87.44 386.81 89.82 C 381.26 92.31 378.91 98.79 373.38 101.32 C 367.29 104.04 360.46 103.77 353.94 103.73 C 346.45 103.62 338.91 105.04 332.00 107.95 C 325.90 110.51 322.82 117.03 316.94 119.93 C 301.18 128.21 286.86 138.93 273.10 150.16 C 266.58 155.55 259.70 160.73 254.62 167.59 C 244.09 181.37 238.96 198.31 235.13 214.99 C 230.90 232.64 229.02 250.79 228.57 268.92 C 227.77 278.93 228.17 288.98 228.45 299.01 C 228.52 306.19 232.57 312.74 231.83 320.00 C 230.70 332.29 228.01 344.55 228.86 356.95 C 229.11 362.34 231.95 367.03 234.08 371.83 C 236.70 377.48 238.78 383.45 242.35 388.62 C 236.45 388.10 229.38 387.01 224.84 391.78 C 218.53 398.69 218.13 408.75 218.50 417.62 C 219.22 427.70 219.70 438.25 224.63 447.33 C 230.91 459.10 233.67 472.26 236.78 485.11 C 239.03 494.33 239.37 504.33 244.45 512.62 C 245.97 515.13 248.67 517.82 251.90 516.78 C 255.54 515.41 258.20 512.39 261.12 509.94 C 263.90 539.14 272.53 567.97 288.08 592.96 C 291.45 598.78 296.92 603.93 297.19 611.05 C 297.53 618.35 296.68 625.75 298.32 632.96 C 299.87 640.20 300.10 647.61 300.00 654.99 C 299.97 662.96 300.30 670.96 299.57 678.91 C 298.72 687.78 294.84 695.96 290.74 703.75 C 288.79 707.45 286.31 710.96 282.96 713.53 C 258.37 721.17 234.53 731.07 211.37 742.30 C 197.72 748.90 183.42 754.81 171.78 764.78 C 164.24 771.37 155.57 776.78 146.10 780.13 C 138.50 782.75 130.04 780.27 122.63 783.61 C 117.11 786.17 112.06 789.64 107.02 793.04 C 81.38 811.39 58.50 833.19 34.81 853.91 C 23.71 854.04 12.61 854.05 1.52 853.90 C 1.63 585.28 1.53 316.65 1.56 48.02 C 1.64 32.55 1.40 17.07 1.69 1.60 Z" />
</g>
<g id="#9b9ea3ff">
<path fill="#9b9ea3" opacity="1.00" d=" M 386.81 89.82 C 392.22 87.44 398.29 88.23 404.02 88.31 C 418.36 88.41 432.37 91.81 446.55 93.54 C 463.28 95.64 480.04 99.77 496.99 98.02 C 501.33 97.71 505.79 98.18 509.72 100.15 C 519.57 104.88 529.25 110.24 537.45 117.54 C 540.57 120.45 543.58 123.71 545.19 127.73 C 546.50 131.78 545.81 136.15 546.79 140.26 C 549.87 143.53 554.88 143.93 559.11 143.52 C 570.41 142.16 581.11 138.07 592.04 135.14 C 592.19 139.36 592.39 143.57 592.68 147.77 C 597.12 149.67 601.60 151.65 605.44 154.64 C 612.19 159.72 616.62 167.16 620.31 174.61 C 628.72 192.17 631.45 211.75 632.85 230.98 C 634.42 253.92 634.32 276.98 632.43 299.89 C 632.03 305.58 632.61 311.28 632.34 316.97 C 631.25 334.69 630.25 352.50 626.77 369.94 C 625.11 377.10 623.68 384.54 619.83 390.92 C 618.38 393.47 615.56 394.61 613.00 395.70 C 608.27 397.58 603.34 399.85 600.31 404.14 C 595.95 409.62 593.71 416.44 589.20 421.82 C 588.78 410.54 589.13 399.25 588.88 387.97 C 588.37 370.36 581.91 353.62 580.63 336.10 C 580.13 328.73 578.83 321.41 579.09 314.00 C 579.27 307.98 578.89 301.95 578.11 295.98 C 576.82 285.54 576.52 274.51 571.02 265.20 C 567.44 255.59 559.53 248.41 550.84 243.38 C 540.67 238.42 530.14 233.58 518.80 232.17 C 509.59 230.84 500.34 229.34 491.01 229.44 C 474.16 230.43 457.25 232.47 441.18 237.83 C 430.07 240.76 418.44 240.65 407.03 240.48 C 395.13 240.56 383.24 239.27 371.51 237.37 C 362.67 235.29 353.54 234.29 345.02 231.03 C 339.13 229.38 332.83 226.87 326.69 228.69 C 316.87 232.20 308.60 239.17 302.27 247.33 C 297.39 253.37 293.96 260.37 290.06 267.04 C 287.21 271.89 285.69 277.36 283.60 282.55 C 280.85 289.30 280.34 296.64 278.73 303.68 C 277.49 309.33 277.06 315.11 275.81 320.75 C 273.42 330.76 272.70 341.07 270.48 351.12 C 268.81 364.66 266.60 378.13 264.34 391.59 C 263.10 398.67 262.91 405.88 261.97 413.00 C 261.11 419.11 262.68 425.22 262.30 431.36 C 261.07 430.08 259.58 428.93 258.96 427.22 C 256.35 420.73 255.86 413.57 252.82 407.24 C 249.72 400.82 246.80 394.25 242.35 388.62 C 238.78 383.45 236.70 377.48 234.08 371.83 C 231.95 367.03 229.11 362.34 228.86 356.95 C 228.01 344.55 230.70 332.29 231.83 320.00 C 232.57 312.74 228.52 306.19 228.45 299.01 C 228.17 288.98 227.77 278.93 228.57 268.92 C 229.02 250.79 230.90 232.64 235.13 214.99 C 238.96 198.31 244.09 181.37 254.62 167.59 C 259.70 160.73 266.58 155.55 273.10 150.16 C 286.86 138.93 301.18 128.21 316.94 119.93 C 322.82 117.03 325.90 110.51 332.00 107.95 C 338.91 105.04 346.45 103.62 353.94 103.73 C 360.46 103.77 367.29 104.04 373.38 101.32 C 378.91 98.79 381.26 92.31 386.81 89.82 Z" />
</g>
<g id="#eef0edff">
<path fill="#eef0ed" opacity="1.00" d=" M 326.69 228.69 C 332.83 226.87 339.13 229.38 345.02 231.03 C 353.54 234.29 362.67 235.29 371.51 237.37 C 383.24 239.27 395.13 240.56 407.03 240.48 C 418.44 240.65 430.07 240.76 441.18 237.83 C 457.25 232.47 474.16 230.43 491.01 229.44 C 500.34 229.34 509.59 230.84 518.80 232.17 C 530.14 233.58 540.67 238.42 550.84 243.38 C 559.53 248.41 567.44 255.59 571.02 265.20 C 576.52 274.51 576.82 285.54 578.11 295.98 C 578.89 301.95 579.27 307.98 579.09 314.00 C 578.83 321.41 580.13 328.73 580.63 336.10 C 581.91 353.62 588.37 370.36 588.88 387.97 C 589.13 399.25 588.78 410.54 589.20 421.82 C 593.71 416.44 595.95 409.62 600.31 404.14 C 603.34 399.85 608.27 397.58 613.00 395.70 C 616.67 395.65 621.55 395.73 623.32 399.66 C 627.37 408.72 624.82 418.98 622.12 428.07 C 617.05 444.30 617.41 461.50 614.25 478.10 C 612.82 485.25 612.89 493.24 608.32 499.31 C 604.96 503.75 599.08 504.34 594.36 506.54 C 591.12 507.91 589.73 511.40 588.33 514.36 C 583.90 524.97 580.54 536.14 579.54 547.63 C 578.92 555.47 578.65 563.68 574.73 570.73 C 571.40 577.75 564.97 583.73 565.01 591.98 C 564.55 605.34 566.52 618.64 566.66 631.99 C 566.73 637.13 566.85 642.28 567.49 647.39 C 569.78 663.68 570.80 680.34 575.98 696.06 C 580.16 704.05 588.11 709.62 596.42 712.76 C 592.96 718.19 589.96 723.93 585.91 728.96 C 579.43 737.09 571.42 743.90 562.90 749.81 C 555.01 755.17 546.99 760.48 538.12 764.10 C 498.83 780.87 455.33 785.20 412.99 783.23 C 397.88 782.82 383.29 778.46 368.98 773.97 C 352.24 768.43 336.56 759.95 322.19 749.78 C 307.68 739.39 294.04 727.59 282.96 713.53 C 286.31 710.96 288.79 707.45 290.74 703.75 C 294.84 695.96 298.72 687.78 299.57 678.91 C 300.30 670.96 299.97 662.96 300.00 654.99 C 300.10 647.61 299.87 640.20 298.32 632.96 C 296.68 625.75 297.53 618.35 297.19 611.05 C 296.92 603.93 291.45 598.78 288.08 592.96 C 272.53 567.97 263.90 539.14 261.12 509.94 C 258.20 512.39 255.54 515.41 251.90 516.78 C 248.67 517.82 245.97 515.13 244.45 512.62 C 239.37 504.33 239.03 494.33 236.78 485.11 C 233.67 472.26 230.91 459.10 224.63 447.33 C 219.70 438.25 219.22 427.70 218.50 417.62 C 218.13 408.75 218.53 398.69 224.84 391.78 C 229.38 387.01 236.45 388.10 242.35 388.62 C 246.80 394.25 249.72 400.82 252.82 407.24 C 255.86 413.57 256.35 420.73 258.96 427.22 C 259.58 428.93 261.07 430.08 262.30 431.36 C 262.68 425.22 261.11 419.11 261.97 413.00 C 262.91 405.88 263.10 398.67 264.34 391.59 C 266.60 378.13 268.81 364.66 270.48 351.12 C 272.70 341.07 273.42 330.76 275.81 320.75 C 277.06 315.11 277.49 309.33 278.73 303.68 C 280.34 296.64 280.85 289.30 283.60 282.55 C 285.69 277.36 287.21 271.89 290.06 267.04 C 293.96 260.37 297.39 253.37 302.27 247.33 C 308.60 239.17 316.87 232.20 326.69 228.69 Z" />
</g>
<g id="#b0b2b1ff">
<path fill="#b0b2b1" opacity="1.00" d=" M 596.42 712.76 C 600.76 710.44 605.46 712.95 609.65 714.39 C 626.08 720.82 643.43 725.28 658.73 734.28 C 672.28 741.68 685.81 749.14 699.41 756.47 C 723.95 769.71 749.64 780.63 774.29 793.66 C 793.41 803.52 812.43 814.11 828.50 828.59 C 836.41 834.83 843.27 843.44 843.57 853.96 C 573.99 853.95 304.40 854.04 34.81 853.91 C 58.50 833.19 81.38 811.39 107.02 793.04 C 112.06 789.64 117.11 786.17 122.63 783.61 C 130.04 780.27 138.50 782.75 146.10 780.13 C 155.57 776.78 164.24 771.37 171.78 764.78 C 183.42 754.81 197.72 748.90 211.37 742.30 C 234.53 731.07 258.37 721.17 282.96 713.53 C 294.04 727.59 307.68 739.39 322.19 749.78 C 336.56 759.95 352.24 768.43 368.98 773.97 C 383.29 778.46 397.88 782.82 412.99 783.23 C 455.33 785.20 498.83 780.87 538.12 764.10 C 546.99 760.48 555.01 755.17 562.90 749.81 C 571.42 743.90 579.43 737.09 585.91 728.96 C 589.96 723.93 592.96 718.19 596.42 712.76 Z" />
</g>
</svg>
