<?xml version="1.0" encoding="UTF-8" standalone="no"?>
<!-- Generator: Adobe Illustrator 19.0.0, SVG Export Plug-In . SVG Version: 6.00 Build 0)  -->

<svg
   xmlns:dc="http://purl.org/dc/elements/1.1/"
   xmlns:cc="http://creativecommons.org/ns#"
   xmlns:rdf="http://www.w3.org/1999/02/22-rdf-syntax-ns#"
   xmlns:svg="http://www.w3.org/2000/svg"
   xmlns="http://www.w3.org/2000/svg"
   xmlns:sodipodi="http://sodipodi.sourceforge.net/DTD/sodipodi-0.dtd"
   xmlns:inkscape="http://www.inkscape.org/namespaces/inkscape"
   version="1.1"
   id="Layer_1"
   x="0px"
   y="0px"
   viewBox="0 0 410.15488 341.17301"
   xml:space="preserve"
   sodipodi:docname="twitter.svg"
   width="410.15488"
   height="341.173"
   inkscape:version="0.92.2 (5c3e80d, 2017-08-06)"><metadata
     id="metadata39"><rdf:RDF><cc:Work
         rdf:about=""><dc:format>image/svg+xml</dc:format><dc:type
           rdf:resource="http://purl.org/dc/dcmitype/StillImage" /><dc:title></dc:title></cc:Work></rdf:RDF></metadata><defs
     id="defs37" /><sodipodi:namedview
     pagecolor="#ffffff"
     bordercolor="#666666"
     borderopacity="1"
     objecttolerance="10"
     gridtolerance="10"
     guidetolerance="10"
     inkscape:pageopacity="0"
     inkscape:pageshadow="2"
     inkscape:window-width="1366"
     inkscape:window-height="705"
     id="namedview35"
     showgrid="false"
     fit-margin-top="0"
     fit-margin-left="0"
     fit-margin-right="0"
     fit-margin-bottom="0"
     inkscape:zoom="0.57539223"
     inkscape:cx="205.07715"
     inkscape:cy="170.5865"
     inkscape:window-x="-8"
     inkscape:window-y="-8"
     inkscape:window-maximized="1"
     inkscape:current-layer="Layer_1" /><path
     style="fill:#1da1f2;fill-opacity:1"
     d="m 403.63165,39.689 c -9.113,4.041 -18.573,7.229 -28.28,9.537 10.696,-10.164 18.738,-22.877 23.275,-37.067 v 0 c 1.295,-4.051 -3.105,-7.554 -6.763,-5.385 v 0 c -13.504,8.01 -28.05,14.019 -43.235,17.862 -0.881,0.223 -1.79,0.336 -2.702,0.336 -2.766,0 -5.455,-1.027 -7.57,-2.891 C 322.20065,7.842 301.42165,0 279.84865,0 c -9.335,0 -18.76,1.455 -28.014,4.325 -28.672,8.893 -50.795,32.544 -57.736,61.724 -2.604,10.945 -3.309,21.9 -2.097,32.56 0.139,1.225 -0.44,2.08 -0.797,2.481 -0.627,0.703 -1.516,1.106 -2.439,1.106 -0.103,0 -0.209,-0.005 -0.314,-0.015 -62.762,-5.831 -119.358,-36.068 -159.363,-85.14 v 0 c -2.04,-2.503 -5.952,-2.196 -7.578,0.593 v 0 c -7.834,13.44 -11.9740001,28.812 -11.9740001,44.454 0,23.972 9.6310001,46.563 26.3600001,63.032 -7.035,-1.668 -13.844,-4.295 -20.169,-7.808 v 0 c -3.06,-1.7 -6.8250001,0.485 -6.8680001,3.985 v 0 c -0.438,35.612 20.4120001,67.3 51.6460001,81.569 -0.629,0.015 -1.258,0.022 -1.888,0.022 -4.951,0 -9.964,-0.478 -14.898,-1.421 v 0 c -3.446,-0.658 -6.341,2.611 -5.271,5.952 v 0 c 10.138,31.651 37.39,54.981 70.002,60.278 -27.066,18.169 -58.585,27.753 -91.39,27.753 L 6.8336499,295.444 c -3.151,0 -5.816,2.054 -6.61899995,5.106 -0.791,3.006 0.666,6.177 3.35299995,7.74 36.9660001,21.513 79.1310001,32.883 121.9550001,32.883 37.485,0 72.549,-7.439 104.219,-22.109 29.033,-13.449 54.689,-32.674 76.255,-57.141 20.09,-22.792 35.8,-49.103 46.692,-78.201 10.383,-27.737 15.871,-57.333 15.871,-85.589 v -1.346 c -10e-4,-4.537 2.051,-8.806 5.631,-11.712 13.585,-11.03 25.415,-24.014 35.16,-38.591 v 0 c 2.573,-3.849 -1.485,-8.673 -5.719,-6.795 z"
     id="path2"
     inkscape:connector-curvature="0" /><g
     id="g4"
     transform="translate(-3.5005164e-4,-34.491)" /><g
     id="g6"
     transform="translate(-3.5005164e-4,-34.491)" /><g
     id="g8"
     transform="translate(-3.5005164e-4,-34.491)" /><g
     id="g10"
     transform="translate(-3.5005164e-4,-34.491)" /><g
     id="g12"
     transform="translate(-3.5005164e-4,-34.491)" /><g
     id="g14"
     transform="translate(-3.5005164e-4,-34.491)" /><g
     id="g16"
     transform="translate(-3.5005164e-4,-34.491)" /><g
     id="g18"
     transform="translate(-3.5005164e-4,-34.491)" /><g
     id="g20"
     transform="translate(-3.5005164e-4,-34.491)" /><g
     id="g22"
     transform="translate(-3.5005164e-4,-34.491)" /><g
     id="g24"
     transform="translate(-3.5005164e-4,-34.491)" /><g
     id="g26"
     transform="translate(-3.5005164e-4,-34.491)" /><g
     id="g28"
     transform="translate(-3.5005164e-4,-34.491)" /><g
     id="g30"
     transform="translate(-3.5005164e-4,-34.491)" /><g
     id="g32"
     transform="translate(-3.5005164e-4,-34.491)" /></svg>