<?xml version="1.0" encoding="UTF-8" standalone="no"?>
<!-- Generator: Adobe Illustrator 16.0.0, SVG Export Plug-In . SVG Version: 6.00 Build 0)  -->

<svg
   xmlns:dc="http://purl.org/dc/elements/1.1/"
   xmlns:cc="http://creativecommons.org/ns#"
   xmlns:rdf="http://www.w3.org/1999/02/22-rdf-syntax-ns#"
   xmlns:svg="http://www.w3.org/2000/svg"
   xmlns="http://www.w3.org/2000/svg"
   xmlns:sodipodi="http://sodipodi.sourceforge.net/DTD/sodipodi-0.dtd"
   xmlns:inkscape="http://www.inkscape.org/namespaces/inkscape"
   version="1.1"
   id="Capa_1"
   x="0px"
   y="0px"
   width="51.969002"
   height="96.123001"
   viewBox="0 0 51.969001 96.123"
   xml:space="preserve"
   sodipodi:docname="facebook-logo.svg"
   inkscape:version="0.92.2 (5c3e80d, 2017-08-06)"><metadata
     id="metadata41"><rdf:RDF><cc:Work
         rdf:about=""><dc:format>image/svg+xml</dc:format><dc:type
           rdf:resource="http://purl.org/dc/dcmitype/StillImage" /><dc:title></dc:title></cc:Work></rdf:RDF></metadata><defs
     id="defs39" /><sodipodi:namedview
     pagecolor="#ffffff"
     bordercolor="#666666"
     borderopacity="1"
     objecttolerance="10"
     gridtolerance="10"
     guidetolerance="10"
     inkscape:pageopacity="0"
     inkscape:pageshadow="2"
     inkscape:window-width="1366"
     inkscape:window-height="705"
     id="namedview37"
     showgrid="false"
     inkscape:zoom="2.4551876"
     inkscape:cx="-40.201388"
     inkscape:cy="48.0615"
     inkscape:window-x="-8"
     inkscape:window-y="-8"
     inkscape:window-maximized="1"
     inkscape:current-layer="Capa_1"
     fit-margin-top="0"
     fit-margin-left="0"
     fit-margin-right="0"
     fit-margin-bottom="0" /><g
     id="g4"
     style="fill:#3b5998;fill-opacity:1"
     transform="translate(-22.077)"><path
       d="M 72.089,0.02 59.624,0 C 45.62,0 36.57,9.285 36.57,23.656 V 34.563 H 24.037 c -1.083,0 -1.96,0.878 -1.96,1.961 v 15.803 c 0,1.083 0.878,1.96 1.96,1.96 H 36.57 v 39.876 c 0,1.083 0.877,1.96 1.96,1.96 h 16.352 c 1.083,0 1.96,-0.878 1.96,-1.96 V 54.287 h 14.654 c 1.083,0 1.96,-0.877 1.96,-1.96 l 0.006,-15.803 c 0,-0.52 -0.207,-1.018 -0.574,-1.386 -0.367,-0.368 -0.867,-0.575 -1.387,-0.575 H 56.842 v -9.246 c 0,-4.444 1.059,-6.7 6.848,-6.7 l 8.397,-0.003 c 1.082,0 1.959,-0.878 1.959,-1.96 V 1.98 c 0,-1.081 -0.876,-1.958 -1.957,-1.96 z"
       id="path2"
       style="fill:#3b5998;fill-opacity:1"
       inkscape:connector-curvature="0" /></g><g
     id="g6"
     transform="translate(-22.077)" /><g
     id="g8"
     transform="translate(-22.077)" /><g
     id="g10"
     transform="translate(-22.077)" /><g
     id="g12"
     transform="translate(-22.077)" /><g
     id="g14"
     transform="translate(-22.077)" /><g
     id="g16"
     transform="translate(-22.077)" /><g
     id="g18"
     transform="translate(-22.077)" /><g
     id="g20"
     transform="translate(-22.077)" /><g
     id="g22"
     transform="translate(-22.077)" /><g
     id="g24"
     transform="translate(-22.077)" /><g
     id="g26"
     transform="translate(-22.077)" /><g
     id="g28"
     transform="translate(-22.077)" /><g
     id="g30"
     transform="translate(-22.077)" /><g
     id="g32"
     transform="translate(-22.077)" /><g
     id="g34"
     transform="translate(-22.077)" /></svg>