<?xml version="1.0" encoding="UTF-8" standalone="no"?>
<svg
   xmlns:dc="http://purl.org/dc/elements/1.1/"
   xmlns:cc="http://creativecommons.org/ns#"
   xmlns:rdf="http://www.w3.org/1999/02/22-rdf-syntax-ns#"
   xmlns:svg="http://www.w3.org/2000/svg"
   xmlns="http://www.w3.org/2000/svg"
   xmlns:sodipodi="http://sodipodi.sourceforge.net/DTD/sodipodi-0.dtd"
   xmlns:inkscape="http://www.inkscape.org/namespaces/inkscape"
   height="867.9046"
   preserveAspectRatio="xMidYMid meet"
   width="867.87781"
   version="1.1"
   id="svg13"
   sodipodi:docname="social-tumbler.svg"
   inkscape:version="0.92.2 (5c3e80d, 2017-08-06)">
  <metadata
     id="metadata19">
    <rdf:RDF>
      <cc:Work
         rdf:about="">
        <dc:format>image/svg+xml</dc:format>
        <dc:type
           rdf:resource="http://purl.org/dc/dcmitype/StillImage" />
        <dc:title></dc:title>
      </cc:Work>
    </rdf:RDF>
  </metadata>
  <defs
     id="defs17" />
  <sodipodi:namedview
     pagecolor="#ffffff"
     bordercolor="#666666"
     borderopacity="1"
     objecttolerance="10"
     gridtolerance="10"
     guidetolerance="10"
     inkscape:pageopacity="0"
     inkscape:pageshadow="2"
     inkscape:window-width="1920"
     inkscape:window-height="1017"
     id="namedview15"
     showgrid="false"
     fit-margin-top="0"
     fit-margin-left="0"
     fit-margin-right="0"
     fit-margin-bottom="0"
     inkscape:zoom="0.23046875"
     inkscape:cx="432.93522"
     inkscape:cy="434.9221"
     inkscape:window-x="-8"
     inkscape:window-y="-8"
     inkscape:window-maximized="1"
     inkscape:current-layer="svg13" />
  <g
     id="g5"
     transform="translate(-79.064777,-79.017522)">
    <title
       id="title2" />
    <rect
       height="1026"
       id="canvas_background"
       width="1026"
       x="-1"
       y="-1"
       style="fill:none" />
  </g>
  <g
     id="g11"
     transform="translate(-79.064777,-79.017522)">
    <title
       id="title7" />
    <g
       id="svg_1"
       transform="matrix(0.1,0,0,-0.1,0,1024)"
       style="fill:#000000">
      <path
         d="M 4820,9439 C 3784,9362 2839,8936 2097,8211 1121,7259 653,5911 826,4557 1042,2864 2236,1454 3876,955 5144,569 6555,798 7630,1563 8951,2504 9638,4065 9434,5663 9218,7356 8024,8766 6384,9265 5896,9414 5327,9477 4820,9439 Z m 520,-2469 v -700 h 650 650 v -435 -435 h -651 -650 l 4,-932 c 3,-788 6,-945 19,-1009 30,-145 97,-236 237,-319 97,-58 174,-84 293,-100 255,-35 606,65 906,258 l 22,14 v -436 -436 l -87,-44 c -227,-113 -492,-197 -769,-242 -157,-25 -529,-30 -694,-9 -316,40 -581,141 -799,305 -96,73 -224,207 -270,284 -47,79 -99,214 -124,321 -21,88 -21,116 -24,1218 l -4,1127 h -304 -305 v 393 392 l 78,29 c 230,84 477,249 623,417 175,199 279,404 349,688 24,97 60,299 60,340 0,8 110,11 395,11 h 395 z"
         id="svg_2"
         inkscape:connector-curvature="0"
         style="fill:#32506d" />
    </g>
  </g>
</svg>
