<?xml version="1.0" encoding="UTF-8" standalone="no"?>
<svg
   xmlns:dc="http://purl.org/dc/elements/1.1/"
   xmlns:cc="http://creativecommons.org/ns#"
   xmlns:rdf="http://www.w3.org/1999/02/22-rdf-syntax-ns#"
   xmlns:svg="http://www.w3.org/2000/svg"
   xmlns="http://www.w3.org/2000/svg"
   xmlns:sodipodi="http://sodipodi.sourceforge.net/DTD/sodipodi-0.dtd"
   xmlns:inkscape="http://www.inkscape.org/namespaces/inkscape"
   version="1.1"
   x="0px"
   y="0px"
   viewBox="0 0 83.775002 83.776001"
   enable-background="new 0 0 100 100"
   xml:space="preserve"
   id="svg8"
   sodipodi:docname="noun_640874_cc.svg"
   width="83.775002"
   height="83.776001"
   inkscape:version="0.92.2 (5c3e80d, 2017-08-06)"><metadata
     id="metadata14"><rdf:RDF><cc:Work
         rdf:about=""><dc:format>image/svg+xml</dc:format><dc:type
           rdf:resource="http://purl.org/dc/dcmitype/StillImage" /><dc:title></dc:title></cc:Work></rdf:RDF></metadata><defs
     id="defs12" /><sodipodi:namedview
     pagecolor="#ffffff"
     bordercolor="#666666"
     borderopacity="1"
     objecttolerance="10"
     gridtolerance="10"
     guidetolerance="10"
     inkscape:pageopacity="0"
     inkscape:pageshadow="2"
     inkscape:window-width="1366"
     inkscape:window-height="705"
     id="namedview10"
     showgrid="false"
     fit-margin-top="0"
     fit-margin-left="0"
     fit-margin-right="0"
     fit-margin-bottom="0"
     inkscape:zoom="1.888"
     inkscape:cx="54.279977"
     inkscape:cy="47.942997"
     inkscape:window-x="-8"
     inkscape:window-y="-8"
     inkscape:window-maximized="1"
     inkscape:current-layer="svg8" /><path
     d="m 35.722,50.212 c 1.133,0.844 2.268,1.691 3.404,2.537 -1.186,1.17 -2.374,2.341 -3.556,3.51 -0.11,0.113 -0.213,0.231 -0.321,0.346 l 0.057,-0.774 c 0.136,-1.872 0.273,-3.747 0.416,-5.619 z m 9.321,-16.504 c -5.763,3.635 -11.526,7.28 -17.292,10.913 -0.117,0.073 -0.245,0.13 -0.375,0.189 0.755,2.414 1.51,4.829 2.263,7.245 0.538,1.7 1.096,3.396 1.605,5.103 0.21,0.708 0.574,1.087 1.342,0.953 0.213,-2.889 0.417,-5.776 0.635,-8.666 0.025,-0.337 0.065,-0.679 0.106,-1.016 -0.326,-0.187 -0.183,-0.545 -0.07,-0.663 0.199,-0.205 0.398,-0.414 0.597,-0.622 0.071,-0.066 0.145,-0.133 0.214,-0.199 0.1,-0.104 0.197,-0.208 0.296,-0.311 0.477,-0.444 0.952,-0.896 1.429,-1.342 0.272,-0.257 0.547,-0.515 0.82,-0.771 0.74,-0.693 1.479,-1.385 2.232,-2.067 1.914,-1.74 3.867,-3.44 5.785,-5.173 2.445,-2.212 4.884,-4.432 7.306,-6.669 0.178,-0.247 0.293,-0.565 0.449,-0.837 -0.434,0.058 -0.943,-0.014 -1.288,0.189 -2.039,1.215 -4.045,2.478 -6.054,3.744 z m 38.732,8.18 c 0,23.134 -18.754,41.888 -41.888,41.888 C 18.752,83.776 0,65.022 0,41.888 0,18.753 18.752,0 41.887,0 65.021,0 83.775,18.753 83.775,41.888 Z M 60.592,25.2 c -0.022,-0.16 -0.038,-0.324 -0.07,-0.481 -0.369,-1.778 -1.343,-2.315 -3.087,-1.718 -0.256,0.086 -0.518,0.142 -0.778,0.213 -0.973,0.402 -1.936,0.832 -2.923,1.201 -1.636,0.617 -3.288,1.194 -4.938,1.789 -1.006,0.419 -2.005,0.857 -3.02,1.254 -2.543,0.994 -5.091,1.969 -7.638,2.953 -5.242,2.021 -10.485,4.041 -15.731,6.062 -1.178,0.455 -2.366,0.886 -3.532,1.371 -1.025,0.423 -2.071,0.833 -3.015,1.401 -0.418,0.251 -0.878,0.911 -0.83,1.33 0.046,0.423 0.693,0.785 1.089,1.163 0.072,0.069 0.195,0.091 0.299,0.123 2.779,0.86 5.558,1.72 8.339,2.578 -0.015,0.29 0.018,0.586 0.109,0.879 l 1.011,3.243 1.329,4.255 c 0.156,0.494 0.313,0.979 0.467,1.464 0.378,1.185 0.771,2.409 1.128,3.607 0.778,2.599 2.876,2.8 3.501,2.8 0.093,0 0.192,-0.006 0.29,-0.01 0.096,0.004 0.192,0.007 0.287,0.007 1.605,0 2.636,-0.884 3.25,-1.413 0.113,-0.099 0.221,-0.19 0.299,-0.25 0.127,-0.095 0.246,-0.198 0.348,-0.313 0.08,-0.083 0.153,-0.169 0.232,-0.251 0.129,-0.144 0.25,-0.279 0.357,-0.385 0.933,-0.924 1.864,-1.845 2.799,-2.767 l 1.108,-1.093 c 0.156,0.108 0.312,0.215 0.469,0.322 2.521,1.882 5.038,3.773 7.568,5.645 1.888,1.396 3.208,1.034 4.122,-1.099 0.389,-1.799 0.776,-3.602 1.162,-5.397 0.354,-1.795 0.704,-3.585 1.054,-5.376 0.225,-0.984 0.447,-1.971 0.669,-2.954 0.59,-2.772 1.179,-5.547 1.766,-8.32 0.191,-0.885 0.378,-1.769 0.568,-2.654 0.046,-0.21 0.101,-0.421 0.143,-0.633 0.602,-2.849 1.2,-5.696 1.799,-8.546 z"
     id="path2"
     inkscape:connector-curvature="0"
     style="fill:#40a7e3;fill-opacity:1" /></svg>