<?xml version="1.0" encoding="UTF-8"?>
<svg width="128" height="128" version="1.1" viewBox="0 0 128 128" xmlns="http://www.w3.org/2000/svg">
 <path d="m129 7.9879c0-4.408-3.584-7.9879-7.9999-7.9879l-52 0.048c-1.604 0-2.752 0.528-4.332 2.108l-61.512 61.432c-2.876 2.872-2.876 7.5199 0 10.392l52.56 51.864c2.876 2.876 7.5319 2.876 10.412 0l61-61.312c1.584-1.576 1.872-3.208 1.872-4.608zm-27.952 32.012c-6.628 0-12.016-5.38-12.016-12 0-6.6199 5.388-12 12.016-12s12.012 5.38 12.012 12c0 6.6199-5.384 12-12.012 12z" stroke-width="4"/>
</svg>
