<?xml version="1.0" encoding="UTF-8"?>
<svg width="128" height="128" version="1.1" viewBox="0 0 128 128" xmlns="http://www.w3.org/2000/svg">
 <path d="m110.38 15.768c2.5613 0 4.6377 2.0764 4.6377 4.6377s-2.0764 4.6377-4.6377 4.6377h-0.0652c-0.51246 0-0.94294 0.40609-0.96239 0.93116l-3.339 90.153c-0.24373 6.582-5.7453 11.873-12.329 11.873h-59.362c-6.5873 0-12.086-5.3008-12.329-11.873l-3.339-90.153c-0.01905-0.51426-0.4384-0.93116-0.96239-0.93116h-0.06516c-2.5613 0-4.6377-2.0764-4.6377-4.6377s2.0764-4.6377 4.6377-4.6377h22.61c0.50949 0 1.0383-0.40536 1.1754-0.88516l1.5122-5.2928c1.5514-5.4299 7.0677-9.5901 12.715-9.5901h16.727c5.6482 0 11.163 4.1588 12.715 9.5901l1.5122 5.2928c0.13968 0.48886 0.66136 0.88516 1.1754 0.88516zm-50.087 25.971v63.072c0 2.0491 1.6611 3.7102 3.7101 3.7102 2.0491 0 3.7101-1.6611 3.7101-3.7102v-63.072c0-2.0491-1.6611-3.7101-3.7101-3.7101-2.0491 0-3.7101 1.6611-3.7101 3.7101zm-20.404 0.10908 1.8551 63.072c0.06023 2.0482 1.7694 3.6597 3.8176 3.5995 2.0482-0.0603 3.6597-1.7694 3.5995-3.8176l-1.8551-63.072c-0.06023-2.0482-1.7694-3.6597-3.8176-3.5995-2.0482 0.06023-3.6597 1.7694-3.5995 3.8176zm40.812-0.21815-1.8551 63.072c-0.0602 2.0482 1.5513 3.7574 3.5995 3.8176 2.0482 0.0603 3.7574-1.5513 3.8176-3.5995l1.8551-63.072c0.0602-2.0482-1.5513-3.7574-3.5995-3.8176-2.0482-0.06023-3.7574 1.5513-3.8176 3.5995zm-28.955-25.862c-0.51882 0-0.82842-0.38846-0.68836-0.87868l0.78605-2.7512c0.41361-1.4476 2.2902-2.8629 3.7967-2.8629h16.727c1.5075 0 3.3828 1.414 3.7967 2.8629l0.78605 2.7512c0.13865 0.48528-0.16355 0.87868-0.68835 0.87868z"/>
</svg>
