<?xml version="1.0" encoding="UTF-8" standalone="no"?>
<svg
   xmlns:dc="http://purl.org/dc/elements/1.1/"
   xmlns:cc="http://creativecommons.org/ns#"
   xmlns:rdf="http://www.w3.org/1999/02/22-rdf-syntax-ns#"
   xmlns:svg="http://www.w3.org/2000/svg"
   xmlns="http://www.w3.org/2000/svg"
   xmlns:sodipodi="http://sodipodi.sourceforge.net/DTD/sodipodi-0.dtd"
   xmlns:inkscape="http://www.inkscape.org/namespaces/inkscape"
   version="1.1"
   x="0px"
   y="0px"
   viewBox="0 0 98.963997 60.625999"
   enable-background="new 0 0 100 100"
   xml:space="preserve"
   id="svg12"
   sodipodi:docname="ic-eye.svg"
   width="98.963997"
   height="60.625999"
   inkscape:version="0.92.2 (5c3e80d, 2017-08-06)"><metadata
     id="metadata18"><rdf:RDF><cc:Work
         rdf:about=""><dc:format>image/svg+xml</dc:format><dc:type
           rdf:resource="http://purl.org/dc/dcmitype/StillImage" /><dc:title></dc:title></cc:Work></rdf:RDF></metadata><defs
     id="defs16" /><sodipodi:namedview
     pagecolor="#ffffff"
     bordercolor="#666666"
     borderopacity="1"
     objecttolerance="10"
     gridtolerance="10"
     guidetolerance="10"
     inkscape:pageopacity="0"
     inkscape:pageshadow="2"
     inkscape:window-width="1366"
     inkscape:window-height="705"
     id="namedview14"
     showgrid="false"
     fit-margin-top="0"
     fit-margin-left="0"
     fit-margin-right="0"
     fit-margin-bottom="0"
     inkscape:zoom="1.888"
     inkscape:cx="-38.587915"
     inkscape:cy="17.813"
     inkscape:window-x="-8"
     inkscape:window-y="-8"
     inkscape:window-maximized="1"
     inkscape:current-layer="svg12" /><g
     id="g6"
     transform="translate(-0.39935593,-19.157339)"
     style="fill:#919da5;fill-opacity:1"><path
       d="M 50,19.687 C 28.964,19.687 10.831,32.1 2.518,50 10.831,67.899 28.964,80.313 50,80.313 71.035,80.313 89.169,67.899 97.482,50 89.169,32.1 71.035,19.687 50,19.687 Z M 50,68.37 C 39.854,68.37 31.63,60.145 31.63,50 31.63,39.855 39.854,31.63 50,31.63 c 10.146,0 18.37,8.224 18.37,18.37 0,10.146 -8.224,18.37 -18.37,18.37 z"
       id="path2"
       inkscape:connector-curvature="0"
       style="clip-rule:evenodd;fill:#919da5;fill-opacity:1;fill-rule:evenodd" /><path
       d="m 50,39.613 c -5.72,0 -10.386,4.666 -10.386,10.386 0,5.721 4.666,10.387 10.386,10.387 5.721,0 10.387,-4.666 10.387,-10.387 0,-5.72 -4.666,-10.386 -10.387,-10.386 z"
       id="path4"
       inkscape:connector-curvature="0"
       style="clip-rule:evenodd;fill:#919da5;fill-opacity:1;fill-rule:evenodd" /></g></svg>