<?xml version="1.0" encoding="UTF-8"?>
<svg width="128" height="128" version="1.1" viewBox="0 0 128 128" xmlns="http://www.w3.org/2000/svg">
 <path d="m64 23.142c-28.354 0-52.795 16.731-64 40.858 11.205 24.126 35.646 40.858 64 40.858 28.353 0 52.795-16.733 64-40.858-11.205-24.127-35.647-40.858-64-40.858zm0 65.619c-13.676 0-24.761-11.086-24.761-24.761s11.085-24.761 24.761-24.761 24.761 11.085 24.761 24.761-11.085 24.761-24.761 24.761z"/>
 <path d="m64 50c-7.7099 0-13.999 6.2892-13.999 13.999 0 7.7112 6.2892 14 13.999 14 7.7112 0 14-6.2892 14-14 0-7.7099-6.2892-13.999-14-13.999z"/>
</svg>
