<?xml version="1.0" encoding="UTF-8"?>
<svg width="128" height="128" version="1.1" viewBox="0 0 128 128" xmlns="http://www.w3.org/2000/svg">
  <path d="m74.008-4.8393e-7s-8.2148 5.5168-7.0172 16.112c1.1278 9.9854 5.45 14.916 5.45 14.916s6.6731-4.5028 3.1047-16.616c-1.5687-5.3248-2.7292-5.8965-1.5374-14.413z"/>
  <path d="m84.23 18.947s0.6272 3.254-1.6242 8.3883c-2.2556 5.1314 3.1246 9.637 3.1246 9.637s8.138-8.8889-1.5004-18.025z"/>
  <path d="m110.41 74.763c-6.5081 20.781-13.769 23.91-13.769 23.91 20.405-38.428-16.398-63.216-16.398-63.216 17.152 24.159 4.2553 44.817 4.2553 44.817s8.0114-17.152-12.518-35.176c-22.905-21.157-11.517-38.555-11.517-38.555-20.15 6.8836-20.777 25.037-16.651 32.296 11.894 19.777 7.2633 29.42 7.2633 29.42-0.25173-4.3833-3.5044-7.6388-13.767-15.024-10.267-7.3856-3.8869-20.905-3.8869-20.905-6.629 4.1316-12.514 17.65-4.5028 27.041 14.646 18.276 2.5031 28.79 2.5031 28.79 4.8825-20.279-13.897-24.786-13.897-24.786 14.522 11.767 1.1307 20.531 3.3806 34.297 4.2553 32.425 41.56 30.3 41.56 30.3 1.0624-0.01 2.0651-0.0754 3.0805-0.128-14.03-0.0356-17.934-8.7964-14.468-12.149 0 0 5.6946-4.9337-1.1762-13.507-3.7589-4.4103-0.99698-10.752 2.1134-12.688 0 0-2.9938 6.3417 1.8219 9.8076 4.8171 3.466 6.3445 4.9906 6.4597 7.0471 0 0 2.1732-4.5255-3.4076-13.801-1.9356-3.4034-1.6427-11.922 7.8137-15.151 0 0-5.3447 8.1607 5.4016 18.091 9.6313 8.4523 5.8752 16.503 5.8752 16.503s6.0487-9.691-1.9982-21.029c0 0 17.27 11.634 7.6971 29.66 0 0-2.2315 5.1072-10.66 6.7214 42.813-5.9065 39.391-52.587 39.391-52.587z"/>
</svg>
