<?xml version="1.0" encoding="UTF-8" standalone="no"?>
<svg
   xmlns:dc="http://purl.org/dc/elements/1.1/"
   xmlns:cc="http://creativecommons.org/ns#"
   xmlns:rdf="http://www.w3.org/1999/02/22-rdf-syntax-ns#"
   xmlns:svg="http://www.w3.org/2000/svg"
   xmlns="http://www.w3.org/2000/svg"
   xmlns:sodipodi="http://sodipodi.sourceforge.net/DTD/sodipodi-0.dtd"
   xmlns:inkscape="http://www.inkscape.org/namespaces/inkscape"
   data-name="Layer 1"
   viewBox="0 0 47.419998 76.993797"
   x="0px"
   y="0px"
   version="1.1"
   id="svg16"
   sodipodi:docname="ic-lamp.svg"
   width="47.419998"
   height="76.993797"
   inkscape:version="0.92.2 (5c3e80d, 2017-08-06)">
  <metadata
     id="metadata22">
    <rdf:RDF>
      <cc:Work
         rdf:about="">
        <dc:format>image/svg+xml</dc:format>
        <dc:type
           rdf:resource="http://purl.org/dc/dcmitype/StillImage" />
        <dc:title>education</dc:title>
      </cc:Work>
    </rdf:RDF>
  </metadata>
  <defs
     id="defs20" />
  <sodipodi:namedview
     pagecolor="#ffffff"
     bordercolor="#666666"
     borderopacity="1"
     objecttolerance="10"
     gridtolerance="10"
     guidetolerance="10"
     inkscape:pageopacity="0"
     inkscape:pageshadow="2"
     inkscape:window-width="1366"
     inkscape:window-height="705"
     id="namedview18"
     showgrid="false"
     inkscape:zoom="1.888"
     inkscape:cx="-158.85713"
     inkscape:cy="-10.51241"
     inkscape:window-x="-8"
     inkscape:window-y="-8"
     inkscape:window-maximized="1"
     inkscape:current-layer="svg16"
     fit-margin-top="0"
     fit-margin-left="0"
     fit-margin-right="0"
     fit-margin-bottom="0" />
  <title
     id="title2">education</title>
  <path
     d="m 29.71,70.5 h -12 a 1,1 0 0 0 -1,1.29 7.31,7.31 0 0 0 14,0 1,1 0 0 0 -1,-1.29 z m -6,4.5 a 5.35,5.35 0 0 1 -4.5,-2.5 h 9 a 5.35,5.35 0 0 1 -4.5,2.5 z"
     id="path4"
     inkscape:connector-curvature="0"
     style="fill:#919da5;fill-opacity:1" />
  <path
     d="M 33.79,63.74 H 13.63 a 1,1 0 0 0 -0.77,0.36 3.8,3.8 0 0 0 0.49,5.35 1,1 0 0 0 0.64,0.23 h 19.44 a 1,1 0 0 0 0.64,-0.23 3.8,3.8 0 0 0 0.48,-5.35 1,1 0 0 0 -0.76,-0.36 z m -0.77,3.94 H 14.39 a 1.8,1.8 0 0 1 -0.41,-1.18 1.78,1.78 0 0 1 0.18,-0.79 h 19.1 a 1.77,1.77 0 0 1 0.18,0.79 1.8,1.8 0 0 1 -0.42,1.18 z"
     id="path6"
     inkscape:connector-curvature="0"
     style="fill:#919da5;fill-opacity:1" />
  <path
     d="m 33.93,56.96 a 1,1 0 0 0 -0.6,-0.2 H 14.1 a 1,1 0 0 0 -0.6,0.2 3.8,3.8 0 0 0 -0.48,5.64 1,1 0 0 0 0.73,0.31 h 19.96 a 1,1 0 0 0 0.73,-0.31 3.8,3.8 0 0 0 -0.48,-5.64 z m -0.74,4 h -19 a 1.8,1.8 0 0 1 0.24,-2.16 h 18.52 a 1.8,1.8 0 0 1 0.24,2.16 z"
     id="path8"
     inkscape:connector-curvature="0"
     style="fill:#919da5;fill-opacity:1" />
  <path
     d="M 47.42,22.58 C 47.42,10.13 36.79,0 23.71,0 10.63,0 0,10.13 0,22.58 c 0,8.6 3.3,13.45 6.5,18.14 2.51,3.68 5.1,7.48 5.25,12.5 a 3.81,3.81 0 0 0 0.96,2.37 1,1 0 0 0 0.75,0.34 h 20.53 a 1,1 0 0 0 0.75,-0.34 3.81,3.81 0 0 0 0.97,-2.38 c 0.15,-5 2.74,-8.82 5.25,-12.5 v 0 l -0.83,-0.56 0.83,0.56 c 3.17,-4.68 6.46,-9.52 6.46,-18.13 z m -8.14,17 v 0 c -2.67,3.92 -5.43,8 -5.6,13.56 a 1.81,1.81 0 0 1 -0.21,0.78 H 13.96 A 1.79,1.79 0 0 1 13.75,53.13 C 13.58,47.5 10.82,43.5 8.15,39.58 5.15,35.15 2,30.58 2,22.58 2,11.23 11.71,2 23.71,2 c 12,0 21.71,9.23 21.71,20.58 0,7.99 -3.12,12.57 -6.14,17 z"
     id="path10"
     inkscape:connector-curvature="0"
     style="fill:#919da5;fill-opacity:1" />
</svg>
