<?xml version="1.0" encoding="UTF-8"?>
<svg width="128" height="128" version="1.1" viewBox="0 0 128 128" xmlns="http://www.w3.org/2000/svg">
  <path d="m73.974 117.2h-19.949a1.6624 1.6624 0 0 0-1.6624 2.1445 12.152 12.152 0 0 0 23.273 0 1.6624 1.6624 0 0 0-1.6624-2.1445zm-9.9743 7.4807a8.8938 8.8938 0 0 1-7.4807-4.156h14.961a8.8938 8.8938 0 0 1-7.4807 4.156z"/>
  <path d="m80.757 105.97h-33.514a1.6624 1.6624 0 0 0-1.28 0.59846 6.3171 6.3171 0 0 0 0.81457 8.8938 1.6624 1.6624 0 0 0 1.0639 0.38235h32.317a1.6624 1.6624 0 0 0 1.0639-0.38235 6.3171 6.3171 0 0 0 0.79794-8.8938 1.6624 1.6624 0 0 0-1.2634-0.59846zm-1.28 6.5498h-30.97a2.9923 2.9923 0 0 1-0.68158-1.9616 2.959 2.959 0 0 1 0.29923-1.3133h31.752a2.9424 2.9424 0 0 1 0.29923 1.3133 2.9923 2.9923 0 0 1-0.6982 1.9616z"/>
  <path d="m80.99 94.696a1.6624 1.6624 0 0 0-0.99743-0.33248h-31.968a1.6624 1.6624 0 0 0-0.99743 0.33248 6.3171 6.3171 0 0 0-0.79794 9.3759 1.6624 1.6624 0 0 0 1.2135 0.51534h33.181a1.6624 1.6624 0 0 0 1.2135-0.51534 6.3171 6.3171 0 0 0-0.79794-9.3759zm-1.2302 6.6495h-31.585a2.9923 2.9923 0 0 1 0.39897-3.5908h30.787a2.9923 2.9923 0 0 1 0.39897 3.5908z"/>
  <path d="m103.42 37.537c0-20.697-17.671-37.537-39.415-37.537-21.744 0-39.415 16.84-39.415 37.537 0 14.297 5.4859 22.359 10.806 30.156 4.1726 6.1176 8.4782 12.435 8.7275 20.78a6.3337 6.3337 0 0 0 1.5959 3.9399 1.6624 1.6624 0 0 0 1.2468 0.56521h34.129a1.6624 1.6624 0 0 0 1.2468-0.56521 6.3337 6.3337 0 0 0 1.6125-3.9565c0.24936-8.3119 4.5549-14.662 8.7275-20.78l-1.3798-0.93094 1.3798 0.93094c5.2698-7.78 10.739-15.826 10.739-30.139zm-13.532 28.261c-4.4386 6.5166-9.0268 13.299-9.3094 22.542a3.0089 3.0089 0 0 1-0.3491 1.2967h-32.433a2.9757 2.9757 0 0 1-0.3491-1.3133c-0.28261-9.3592-4.8708-16.009-9.3094-22.525-4.9872-7.3644-10.224-14.961-10.224-28.261 0-18.868 16.142-34.212 36.09-34.212 19.949 0 36.09 15.344 36.09 34.212 0 13.282-5.1866 20.896-10.207 28.261z"/>
</svg>
