<?xml version="1.0" encoding="UTF-8"?>
<svg width="128" height="128" fill="#f80" version="1.1" viewBox="0 0 128 128" xmlns="http://www.w3.org/2000/svg">
  <path d="m74.667 128c-5.8987 0-10.667-4.7787-10.667-10.667v-10.667c0-23.531-19.136-42.667-42.667-42.667h-10.667c-5.8987 0-10.667-4.7787-10.667-10.667s4.768-10.667 10.667-10.667h10.667c35.296 0 64 28.704 64 64v10.667c0 5.888-4.768 10.667-10.667 10.667z"/>
  <path d="m21.333 128c-11.765 0-21.333-9.568-21.333-21.333 0-11.765 9.568-21.333 21.333-21.333 11.765 0 21.333 9.568 21.333 21.333 0 11.765-9.568 21.333-21.333 21.333z"/>
  <path d="m117.33 128c-5.8987 0-10.667-4.7787-10.667-10.667v-10.667c0-47.051-38.283-85.333-85.333-85.333h-10.667c-5.8987 0-10.667-4.7787-10.667-10.667 0-5.888 4.768-10.667 10.667-10.667h10.667c58.816 0 106.67 47.851 106.67 106.67v10.667c0 5.888-4.768 10.667-10.667 10.667z"/>
</svg>
