<?xml version="1.0" encoding="UTF-8"?>
<svg width="128" height="128" version="1.1" viewBox="0 0 128 128" xmlns="http://www.w3.org/2000/svg">
 <path fill="#bd081c" d="m101.25 13.117c-8.8108-8.4582-21.004-13.117-34.333-13.117-20.361 0-32.884 8.3463-39.804 15.348-8.5284 8.6283-13.419 20.085-13.419 31.433 0 14.248 5.9597 25.184 15.94 29.253 0.67004 0.27453 1.3442 0.41283 2.0052 0.41283 2.1055 0 3.7738-1.3776 4.3517-3.5876 0.33688-1.2678 1.1176-4.3955 1.4569-5.7533 0.7266-2.6814 0.13954-3.9711-1.4449-5.8384-2.8866-3.4154-4.2308-7.4542-4.2308-12.71 0-15.613 11.626-32.206 33.172-32.206 17.096 0 27.717 9.717 27.717 25.359 0 9.8706-2.1261 19.012-5.9878 25.74-2.6834 4.6754-7.4022 10.249-14.646 10.249-3.1326 0-5.9465-1.2868-7.7221-3.5302-1.6774-2.1208-2.2302-4.8603-1.5556-7.7155 0.7621-3.2259 1.8012-6.591 2.8069-9.8441 1.8342-5.9416 3.5682-11.553 3.5682-16.03 0-7.6582-4.708-12.804-11.714-12.804-8.9041 0-15.88 9.0436-15.88 20.589 0 5.6621 1.5048 9.897 2.186 11.523-1.1217 4.7526-7.7882 33.008-9.0527 38.336-0.73114 3.1103-5.1357 27.676 2.1546 29.635 8.1911 2.2008 15.513-21.725 16.258-24.428 0.60398-2.1988 2.7173-10.513 4.0124-15.624 3.9542 3.8088 10.321 6.3837 16.516 6.3837 11.679 0 22.182-5.2554 29.574-14.797 7.1698-9.255 11.119-22.155 11.119-36.321 0-11.075-4.7559-21.993-13.047-29.954z" />
</svg>
