<?xml version="1.0" encoding="UTF-8"?>
<svg width="128" height="128" version="1.1" viewBox="0 0 128 128" xmlns="http://www.w3.org/2000/svg">
  <path fill="#3b5998" d="m95.996 0.026633-16.599-0.026633c-18.648 0-30.699 12.364-30.699 31.501v14.524h-16.689c-1.4422 0-2.61 1.1692-2.61 2.6113v21.044c0 1.4422 1.1692 2.61 2.61 2.61h16.689v53.1c0 1.4422 1.1678 2.61 2.61 2.61h21.775c1.4422 0 2.61-1.1692 2.61-2.61v-53.1h19.514c1.4422 0 2.61-1.1678 2.61-2.61l8e-3 -21.044c0-0.69245-0.27565-1.3556-0.76435-1.8456-0.48872-0.49004-1.1545-0.76569-1.847-0.76569h-19.52v-12.312c0-5.9178 1.4102-8.9219 9.119-8.9219l11.182-4e-3c1.4408 0 2.6087-1.1692 2.6087-2.61v-19.54c0-1.4395-1.1665-2.6073-2.606-2.61z"/>
</svg>
