<?xml version="1.0" encoding="UTF-8" standalone="no"?>
<!-- Generator: Adobe Illustrator 19.0.0, SVG Export Plug-In . SVG Version: 6.00 Build 0)  -->

<svg
   xmlns:dc="http://purl.org/dc/elements/1.1/"
   xmlns:cc="http://creativecommons.org/ns#"
   xmlns:rdf="http://www.w3.org/1999/02/22-rdf-syntax-ns#"
   xmlns:svg="http://www.w3.org/2000/svg"
   xmlns="http://www.w3.org/2000/svg"
   xmlns:sodipodi="http://sodipodi.sourceforge.net/DTD/sodipodi-0.dtd"
   xmlns:inkscape="http://www.inkscape.org/namespaces/inkscape"
   version="1.1"
   id="Layer_1"
   x="0px"
   y="0px"
   viewBox="0 0 203.811 352"
   xml:space="preserve"
   sodipodi:docname="tumblr.svg"
   inkscape:version="0.92.2 (5c3e80d, 2017-08-06)"
   width="203.811"
   height="352"><metadata
     id="metadata39"><rdf:RDF><cc:Work
         rdf:about=""><dc:format>image/svg+xml</dc:format><dc:type
           rdf:resource="http://purl.org/dc/dcmitype/StillImage" /><dc:title></dc:title></cc:Work></rdf:RDF></metadata><defs
     id="defs37" /><sodipodi:namedview
     pagecolor="#ffffff"
     bordercolor="#666666"
     borderopacity="1"
     objecttolerance="10"
     gridtolerance="10"
     guidetolerance="10"
     inkscape:pageopacity="0"
     inkscape:pageshadow="2"
     inkscape:window-width="716"
     inkscape:window-height="480"
     id="namedview35"
     showgrid="false"
     inkscape:zoom="0.67045455"
     inkscape:cx="101.906"
     inkscape:cy="176"
     inkscape:window-x="0"
     inkscape:window-y="0"
     inkscape:window-maximized="0"
     inkscape:current-layer="Layer_1"
     fit-margin-top="0"
     fit-margin-left="0"
     fit-margin-right="0"
     fit-margin-bottom="0" /><path
     style="fill:#35465c;fill-opacity:1"
     d="m 185.01,279.929 c 0,0 -10.445,12.012 -30.291,12.012 -19.846,0 -28.724,-12.012 -28.724,-29.768 0,-7.134 0,-50.861 0,-100.619 h 64.17 v -60.977 h -64.17 c 0,-53.98 0,-100.577 0,-100.577 H 77.674 C 70.123,45.134 40.364,82.718 0,101.165 v 60.388 h 47.135 c 0,58.694 0,111.822 0,115.87 0,16.085 15.145,74.577 92.439,74.577 45.436,0 64.237,-29.246 64.237,-29.246 z"
     id="path2"
     inkscape:connector-curvature="0" /><g
     id="g4"
     transform="translate(-74.094)" /><g
     id="g6"
     transform="translate(-74.094)" /><g
     id="g8"
     transform="translate(-74.094)" /><g
     id="g10"
     transform="translate(-74.094)" /><g
     id="g12"
     transform="translate(-74.094)" /><g
     id="g14"
     transform="translate(-74.094)" /><g
     id="g16"
     transform="translate(-74.094)" /><g
     id="g18"
     transform="translate(-74.094)" /><g
     id="g20"
     transform="translate(-74.094)" /><g
     id="g22"
     transform="translate(-74.094)" /><g
     id="g24"
     transform="translate(-74.094)" /><g
     id="g26"
     transform="translate(-74.094)" /><g
     id="g28"
     transform="translate(-74.094)" /><g
     id="g30"
     transform="translate(-74.094)" /><g
     id="g32"
     transform="translate(-74.094)" /></svg>