<?xml version="1.0" encoding="UTF-8"?>
<svg width="128" height="128" version="1.1" viewBox="0 0 128 128" xmlns="http://www.w3.org/2000/svg">
  <path fill="#1da1f2" d="m125.96 23.15c-2.844 1.2611-5.7962 2.256-8.8256 2.9763 3.338-3.172 5.8477-7.1394 7.2636-11.568 0.40414-1.2642-0.969-2.3574-2.1106-1.6805-4.2143 2.4997-8.7538 4.375-13.493 5.5743-0.27494 0.06959-0.55862 0.10486-0.84323 0.10486-0.86321 0-1.7024-0.3205-2.3624-0.90222-5.0419-4.4437-11.527-6.891-18.259-6.891-2.9132 0-5.8546 0.45407-8.7425 1.3497-8.9479 2.7753-15.852 10.156-18.018 19.263-0.81265 3.4157-1.0327 6.8345-0.65443 10.161 0.04338 0.3823-0.13731 0.64912-0.24872 0.77426-0.19567 0.21939-0.47311 0.34516-0.76116 0.34516-0.03214 0-0.06522-0.0016-0.09799-0.0047-19.587-1.8197-37.249-11.256-49.734-26.57-0.63664-0.78113-1.8575-0.68532-2.3649 0.18506-2.4448 4.1943-3.7368 8.9916-3.7368 13.873 0 7.4811 3.0056 14.531 8.2264 19.671-2.1955-0.52054-4.3204-1.3404-6.2943-2.4367-0.95496-0.53053-2.1299 0.15136-2.1433 1.2436-0.13669 11.114 6.3701 21.003 16.118 25.456-0.1963 0.0047-0.39259 0.0069-0.5892 0.0069-1.5451 0-3.1095-0.14917-4.6493-0.44346-1.0754-0.20535-1.9789 0.81483-1.645 1.8575 3.1638 9.8776 11.669 17.158 21.846 18.811-8.4467 5.6701-18.283 8.6611-28.521 8.6611l-3.1916-2e-3c-0.98336 0-1.815 0.64101-2.0656 1.5935-0.24685 0.9381 0.20784 1.9277 1.0464 2.4155 11.536 6.7138 24.695 10.262 38.059 10.262 11.698 0 22.641-2.3215 32.524-6.8997 9.0605-4.1971 17.067-10.197 23.797-17.832 6.2696-7.1129 11.172-15.324 14.572-24.405 3.2403-8.6561 4.953-17.892 4.953-26.71v-0.42006c-3.1e-4 -1.4159 0.64007-2.7482 1.7573-3.655 4.2396-3.4422 7.9314-7.4942 10.973-12.043 0.80298-1.2012-0.46343-2.7066-1.7848-2.1206z"/>
</svg>
