<?xml version="1.0" encoding="UTF-8"?>
<svg viewBox="0 0 70 78" xmlns="http://www.w3.org/2000/svg">
<!--  <defs>-->
    <path id="share" d="m 57.1,25.800004 c 7.1,0 12.9,-5.8 12.9,-12.9 C 70,5.799997 64.2,0 57.1,0 50,0 44.2,5.799997 44.2,12.900004 c 0,1.4 0.2,2.7 0.6,3.9 l -22.3,12.9 c -2.4,-2.6 -5.8,-4.2 -9.5,-4.2 -7.2,0 -13,5.8 -13,12.9 0,7.1 5.8,12.9 12.9,12.9 3.8,0 7.2,-1.6 9.5,-4.2 l 22.3,12.9 c -0.4,1.2 -0.6,2.6 -0.6,3.9 0,7.1 5.8,12.9 12.9,12.9 7.1,0 12.9,-5.8 12.9,-12.9 0,-7.1 -5.8,-12.9 -12.9,-12.9 -3.8,0 -7.2,1.6 -9.5,4.2 l -22.3,-12.9 c 0.4,-1.2 0.6,-2.6 0.6,-3.9 0,-1.4 -0.2,-2.7 -0.6,-3.9 l 22.3,-12.9 c 2.4,2.6 5.8,4.2 9.6,4.2 z"/>
<!--  </defs>-->
</svg>
