<?xml version="1.0" encoding="UTF-8"?>
<svg width="128" height="128" version="1.1" viewBox="0 0 128 128" xmlns="http://www.w3.org/2000/svg">

  <!-- NOTE: To add a new icon here, it is better to be 128 × 128 (to make all icons uniform) -->

  <symbol id="search" viewBox="0 0 128 128" stroke-width="10">
    <path d="m123 123-39-39" stroke-linecap="round"/>
    <circle cx="51" cy="51" r="46"/>
  </symbol>

  <symbol id="share" viewBox="0 0 128 128">
    <circle cx="101" cy="21" r="21"/>
    <path d="m102 21-75 43" stroke-linecap="round" stroke-width="10"/>
    <circle cx="27" cy="64" r="21"/>
    <path d="m101 107-74-43" stroke-linecap="round" stroke-width="10"/>
    <circle cx="101" cy="107" r="21"/>
  </symbol>

  <symbol id="logout" viewBox="0 0 128 128" stroke-width="10" stroke-linecap="round" stroke-linejoin="round">
    <path d="m90.711 113.36a57 57 0 0 1-72.165-12.725 57 57 0 0 1 1e-6 -73.278 57 57 0 0 1 72.165-12.725"/>
    <path d="m56 64h67m-21-21 21 21-21 21"/>
  </symbol>

  <symbol id="pin" viewBox="0 0 128 128">
    <path d="m94 0c2 0 3.552 1.584 3 6-1 8-5 14-11 19v29c11 5 18 17 20 31 0.294 2.058-0.76393 4-3 4h-34v34c0 3-2 5-5 5s-5-2-5-5v-34h-34c-2.2361 0-3.294-1.942-3-4 2-14 9-26 20-31v-29c-6-5-10-11-11-19-0.552-4.416 1-6 3-6h30z"/>
  </symbol>

  <symbol id="rss" fill="#f80" viewBox="0 0 128 128">
    <path d="m74.667 128c-5.8987 0-10.667-4.7787-10.667-10.667v-10.667c0-23.531-19.136-42.667-42.667-42.667h-10.667c-5.8987 0-10.667-4.7787-10.667-10.667s4.768-10.667 10.667-10.667h10.667c35.296 0 64 28.704 64 64v10.667c0 5.888-4.768 10.667-10.667 10.667z"/>
    <path d="m21.333 128c-11.765 0-21.333-9.568-21.333-21.333 0-11.765 9.568-21.333 21.333-21.333 11.765 0 21.333 9.568 21.333 21.333 0 11.765-9.568 21.333-21.333 21.333z"/>
    <path d="m117.33 128c-5.8987 0-10.667-4.7787-10.667-10.667v-10.667c0-47.051-38.283-85.333-85.333-85.333h-10.667c-5.8987 0-10.667-4.7787-10.667-10.667 0-5.888 4.768-10.667 10.667-10.667h10.667c58.816 0 106.67 47.851 106.67 106.67v10.667c0 5.888-4.768 10.667-10.667 10.667z"/>
  </symbol>

  <symbol id="facebook" viewBox="0 0 128 128">
    <path fill="#3b5998" d="m95.996 0.026633-16.599-0.026633c-18.648 0-30.699 12.364-30.699 31.501v14.524h-16.689c-1.4422 0-2.61 1.1692-2.61 2.6113v21.044c0 1.4422 1.1692 2.61 2.61 2.61h16.689v53.1c0 1.4422 1.1678 2.61 2.61 2.61h21.775c1.4422 0 2.61-1.1692 2.61-2.61v-53.1h19.514c1.4422 0 2.61-1.1678 2.61-2.61l8e-3 -21.044c0-0.69245-0.27565-1.3556-0.76435-1.8456-0.48872-0.49004-1.1545-0.76569-1.847-0.76569h-19.52v-12.312c0-5.9178 1.4102-8.9219 9.119-8.9219l11.182-4e-3c1.4408 0 2.6087-1.1692 2.6087-2.61v-19.54c0-1.4395-1.1665-2.6073-2.606-2.61z"/>
  </symbol>

  <symbol id="twitter" viewBox="0 0 128 128">
    <path fill="#1da1f2" d="m125.96 23.15c-2.844 1.2611-5.7962 2.256-8.8256 2.9763 3.338-3.172 5.8477-7.1394 7.2636-11.568 0.40414-1.2642-0.969-2.3574-2.1106-1.6805-4.2143 2.4997-8.7538 4.375-13.493 5.5743-0.27494 0.06959-0.55862 0.10486-0.84323 0.10486-0.86321 0-1.7024-0.3205-2.3624-0.90222-5.0419-4.4437-11.527-6.891-18.259-6.891-2.9132 0-5.8546 0.45407-8.7425 1.3497-8.9479 2.7753-15.852 10.156-18.018 19.263-0.81265 3.4157-1.0327 6.8345-0.65443 10.161 0.04338 0.3823-0.13731 0.64912-0.24872 0.77426-0.19567 0.21939-0.47311 0.34516-0.76116 0.34516-0.03214 0-0.06522-0.0016-0.09799-0.0047-19.587-1.8197-37.249-11.256-49.734-26.57-0.63664-0.78113-1.8575-0.68532-2.3649 0.18506-2.4448 4.1943-3.7368 8.9916-3.7368 13.873 0 7.4811 3.0056 14.531 8.2264 19.671-2.1955-0.52054-4.3204-1.3404-6.2943-2.4367-0.95496-0.53053-2.1299 0.15136-2.1433 1.2436-0.13669 11.114 6.3701 21.003 16.118 25.456-0.1963 0.0047-0.39259 0.0069-0.5892 0.0069-1.5451 0-3.1095-0.14917-4.6493-0.44346-1.0754-0.20535-1.9789 0.81483-1.645 1.8575 3.1638 9.8776 11.669 17.158 21.846 18.811-8.4467 5.6701-18.283 8.6611-28.521 8.6611l-3.1916-2e-3c-0.98336 0-1.815 0.64101-2.0656 1.5935-0.24685 0.9381 0.20784 1.9277 1.0464 2.4155 11.536 6.7138 24.695 10.262 38.059 10.262 11.698 0 22.641-2.3215 32.524-6.8997 9.0605-4.1971 17.067-10.197 23.797-17.832 6.2696-7.1129 11.172-15.324 14.572-24.405 3.2403-8.6561 4.953-17.892 4.953-26.71v-0.42006c-3.1e-4 -1.4159 0.64007-2.7482 1.7573-3.655 4.2396-3.4422 7.9314-7.4942 10.973-12.043 0.80298-1.2012-0.46343-2.7066-1.7848-2.1206z"/>
  </symbol>

  <symbol id="hot" viewBox="0 0 128 128">
    <path d="m74.008-4.8393e-7s-8.2148 5.5168-7.0172 16.112c1.1278 9.9854 5.45 14.916 5.45 14.916s6.6731-4.5028 3.1047-16.616c-1.5687-5.3248-2.7292-5.8965-1.5374-14.413z"/>
    <path d="m84.23 18.947s0.6272 3.254-1.6242 8.3883c-2.2556 5.1314 3.1246 9.637 3.1246 9.637s8.138-8.8889-1.5004-18.025z"/>
    <path d="m110.41 74.763c-6.5081 20.781-13.769 23.91-13.769 23.91 20.405-38.428-16.398-63.216-16.398-63.216 17.152 24.159 4.2553 44.817 4.2553 44.817s8.0114-17.152-12.518-35.176c-22.905-21.157-11.517-38.555-11.517-38.555-20.15 6.8836-20.777 25.037-16.651 32.296 11.894 19.777 7.2633 29.42 7.2633 29.42-0.25173-4.3833-3.5044-7.6388-13.767-15.024-10.267-7.3856-3.8869-20.905-3.8869-20.905-6.629 4.1316-12.514 17.65-4.5028 27.041 14.646 18.276 2.5031 28.79 2.5031 28.79 4.8825-20.279-13.897-24.786-13.897-24.786 14.522 11.767 1.1307 20.531 3.3806 34.297 4.2553 32.425 41.56 30.3 41.56 30.3 1.0624-0.01 2.0651-0.0754 3.0805-0.128-14.03-0.0356-17.934-8.7964-14.468-12.149 0 0 5.6946-4.9337-1.1762-13.507-3.7589-4.4103-0.99698-10.752 2.1134-12.688 0 0-2.9938 6.3417 1.8219 9.8076 4.8171 3.466 6.3445 4.9906 6.4597 7.0471 0 0 2.1732-4.5255-3.4076-13.801-1.9356-3.4034-1.6427-11.922 7.8137-15.151 0 0-5.3447 8.1607 5.4016 18.091 9.6313 8.4523 5.8752 16.503 5.8752 16.503s6.0487-9.691-1.9982-21.029c0 0 17.27 11.634 7.6971 29.66 0 0-2.2315 5.1072-10.66 6.7214 42.813-5.9065 39.391-52.587 39.391-52.587z"/>
  </symbol>

  <symbol id="category" viewBox="0 0 128 128">
    <path d="m129 7.9879c0-4.408-3.584-7.9879-7.9999-7.9879l-52 0.048c-1.604 0-2.752 0.528-4.332 2.108l-61.512 61.432c-2.876 2.872-2.876 7.5199 0 10.392l52.56 51.864c2.876 2.876 7.5319 2.876 10.412 0l61-61.312c1.584-1.576 1.872-3.208 1.872-4.608zm-27.952 32.012c-6.628 0-12.016-5.38-12.016-12 0-6.6199 5.388-12 12.016-12s12.012 5.38 12.012 12c0 6.6199-5.384 12-12.012 12z" stroke-width="4"/>
  </symbol>

</svg>
