<svg xmlns="http://www.w3.org/2000/svg" viewBox="0 0 992 32" width="992" height="32"><g fill="none" stroke="#FF9800" stroke-width="4.567638" stroke-linecap="round" stroke-linejoin="round"><path d="M12.942 27.619c-5.329 0-10.658-3.807-10.658-10.658 0-6.852 5.329-10.658 10.658-10.658 4.567 0 8.754.995 12.941-1.903" stroke-dasharray="0,47.04088142906621" stroke-dashoffset="47.040881"/><path d="M14.084 16.123c2.701-1.924 5.857-2.055 6.851-2.055.994 0 4.15-.131 6.851-2.055M15.987 23.736c2.701-1.924 5.857-2.055 6.851-2.055.995 0 4.15-.131 6.852-2.056" stroke-dasharray="0,14.526999619995522" stroke-dashoffset="14.527"/></g><g fill="none" stroke="#FF9800" stroke-width="4.567638" stroke-linecap="round" stroke-linejoin="round"><path d="M44.942 27.619c-5.329 0-10.658-3.807-10.658-10.658 0-6.852 5.329-10.658 10.658-10.658 4.567 0 8.754.995 12.941-1.903" stroke-dasharray="0.11644821427351343,46.9244332147927" stroke-dashoffset="47.040881"/><path d="M46.084 16.123c2.701-1.924 5.857-2.055 6.851-2.055.994 0 4.15-.131 6.851-2.055M47.987 23.736c2.701-1.924 5.857-2.055 6.851-2.055.995 0 4.15-.131 6.852-2.056" stroke-dasharray="0,14.526999619995522" stroke-dashoffset="14.527"/></g><g fill="none" stroke="#FF9800" stroke-width="4.567638" stroke-linecap="round" stroke-linejoin="round"><path d="M76.942 27.619c-5.329 0-10.658-3.807-10.658-10.658 0-6.852 5.329-10.658 10.658-10.658 4.567 0 8.754.995 12.941-1.903" stroke-dasharray="0.500550487548523,46.54033094151769" stroke-dashoffset="47.040881"/><path d="M78.084 16.123c2.701-1.924 5.857-2.055 6.851-2.055.994 0 4.15-.131 6.851-2.055M79.987 23.736c2.701-1.924 5.857-2.055 6.851-2.055.995 0 4.15-.131 6.852-2.056" stroke-dasharray="0,14.526999619995522" stroke-dashoffset="14.527"/></g><g fill="none" stroke="#FF9800" stroke-width="4.567638" stroke-linecap="round" stroke-linejoin="round"><path d="M108.942 27.619c-5.329 0-10.658-3.807-10.658-10.658 0-6.852 5.329-10.658 10.658-10.658 4.567 0 8.754.995 12.941-1.903" stroke-dasharray="1.2166190169051323,45.82426241216108" stroke-dashoffset="47.040881"/><path d="M110.084 16.123c2.701-1.924 5.857-2.055 6.851-2.055.994 0 4.15-.131 6.851-2.055m-11.799 11.723c2.701-1.924 5.857-2.055 6.851-2.055.995 0 4.15-.131 6.852-2.056" stroke-dasharray="0,14.526999619995522" stroke-dashoffset="14.527"/></g><g fill="none" stroke="#FF9800" stroke-width="4.567638" stroke-linecap="round" stroke-linejoin="round"><path d="M140.942 27.619c-5.329 0-10.658-3.807-10.658-10.658 0-6.852 5.329-10.658 10.658-10.658 4.567 0 8.754.995 12.941-1.903" stroke-dasharray="2.3487891697377745,44.69209225932843" stroke-dashoffset="47.040881"/><path d="M142.084 16.123c2.701-1.924 5.857-2.055 6.851-2.055.994 0 4.15-.131 6.851-2.055m-11.799 11.723c2.701-1.924 5.857-2.055 6.851-2.055.995 0 4.15-.131 6.852-2.056" stroke-dasharray="0,14.526999619995522" stroke-dashoffset="14.527"/></g><g fill="none" stroke="#FF9800" stroke-width="4.567638" stroke-linecap="round" stroke-linejoin="round"><path d="M172.942 27.619c-5.329 0-10.658-3.807-10.658-10.658 0-6.852 5.329-10.658 10.658-10.658 4.567 0 8.754.995 12.941-1.903" stroke-dasharray="4.003436869170324,43.03744455989589" stroke-dashoffset="47.040881"/><path d="M174.084 16.123c2.701-1.924 5.857-2.055 6.851-2.055.994 0 4.15-.131 6.851-2.055m-11.799 11.723c2.701-1.924 5.857-2.055 6.851-2.055.995 0 4.15-.131 6.852-2.056" stroke-dasharray="0,14.526999619995522" stroke-dashoffset="14.527"/></g><g fill="none" stroke="#FF9800" stroke-width="4.567638" stroke-linecap="round" stroke-linejoin="round"><path d="M204.942 27.619c-5.329 0-10.658-3.807-10.658-10.658 0-6.852 5.329-10.658 10.658-10.658 4.567 0 8.754.995 12.941-1.903" stroke-dasharray="6.300974364161083,40.739907064905125" stroke-dashoffset="47.040881"/><path d="M206.084 16.123c2.701-1.924 5.857-2.055 6.851-2.055.994 0 4.15-.131 6.851-2.055m-11.799 11.723c2.701-1.924 5.857-2.055 6.851-2.055.995 0 4.15-.131 6.852-2.056" stroke-dasharray="0,14.526999619995522" stroke-dashoffset="14.527"/></g><g fill="none" stroke="#FF9800" stroke-width="4.567638" stroke-linecap="round" stroke-linejoin="round"><path d="M236.942 27.619c-5.329 0-10.658-3.807-10.658-10.658 0-6.852 5.329-10.658 10.658-10.658 4.567 0 8.754.995 12.941-1.903" stroke-dasharray="9.335830208569497,37.70505122049671" stroke-dashoffset="47.040881"/><path d="M238.084 16.123c2.701-1.924 5.857-2.055 6.851-2.055.994 0 4.15-.131 6.851-2.055m-11.799 11.723c2.701-1.924 5.857-2.055 6.851-2.055.995 0 4.15-.131 6.852-2.056" stroke-dasharray="0,14.526999619995522" stroke-dashoffset="14.527"/></g><g fill="none" stroke="#FF9800" stroke-width="4.567638" stroke-linecap="round" stroke-linejoin="round"><path d="M268.942 27.619c-5.329 0-10.658-3.807-10.658-10.658 0-6.852 5.329-10.658 10.658-10.658 4.567 0 8.754.995 12.941-1.903" stroke-dasharray="13.079883476652121,33.96099795241409" stroke-dashoffset="47.040881"/><path d="M270.084 16.123c2.701-1.924 5.857-2.055 6.851-2.055.994 0 4.15-.131 6.851-2.055m-11.799 11.723c2.701-1.924 5.857-2.055 6.851-2.055.995 0 4.15-.131 6.852-2.056" stroke-dasharray="0,14.526999619995522" stroke-dashoffset="14.527"/></g><g fill="none" stroke="#FF9800" stroke-width="4.567638" stroke-linecap="round" stroke-linejoin="round"><path d="M300.942 27.619c-5.329 0-10.658-3.807-10.658-10.658 0-6.852 5.329-10.658 10.658-10.658 4.567 0 8.754.995 12.941-1.903" stroke-dasharray="17.277913862886194,29.762967566180016" stroke-dashoffset="47.040881"/><path d="M302.084 16.123c2.701-1.924 5.857-2.055 6.851-2.055.994 0 4.15-.131 6.851-2.055m-11.799 11.723c2.701-1.924 5.857-2.055 6.851-2.055.995 0 4.15-.131 6.852-2.056" stroke-dasharray="0,14.526999619995522" stroke-dashoffset="14.527"/></g><g fill="none" stroke="#FF9800" stroke-width="4.567638" stroke-linecap="round" stroke-linejoin="round"><path d="M332.942 27.619c-5.329 0-10.658-3.807-10.658-10.658 0-6.852 5.329-10.658 10.658-10.658 4.567 0 8.754.995 12.941-1.903" stroke-dasharray="21.509524875959684,25.531356553106527" stroke-dashoffset="47.040881"/><path d="M334.084 16.123c2.701-1.924 5.857-2.055 6.851-2.055.994 0 4.15-.131 6.851-2.055m-11.799 11.723c2.701-1.924 5.857-2.055 6.851-2.055.995 0 4.15-.131 6.852-2.056" stroke-dasharray="0,14.526999619995522" stroke-dashoffset="14.527"/></g><g fill="none" stroke="#FF9800" stroke-width="4.567638" stroke-linecap="round" stroke-linejoin="round"><path d="M364.942 27.619c-5.329 0-10.658-3.807-10.658-10.658 0-6.852 5.329-10.658 10.658-10.658 4.567 0 8.754.995 12.941-1.903" stroke-dasharray="25.42349830172508,21.61738312734113" stroke-dashoffset="47.040881"/><path d="M366.084 16.123c2.701-1.924 5.857-2.055 6.851-2.055.994 0 4.15-.131 6.851-2.055m-11.799 11.723c2.701-1.924 5.857-2.055 6.851-2.055.995 0 4.15-.131 6.852-2.056" stroke-dasharray="0,14.526999619995522" stroke-dashoffset="14.527"/></g><g fill="none" stroke="#FF9800" stroke-width="4.567638" stroke-linecap="round" stroke-linejoin="round"><path d="M396.942 27.619c-5.329 0-10.658-3.807-10.658-10.658 0-6.852 5.329-10.658 10.658-10.658 4.567 0 8.754.995 12.941-1.903" stroke-dasharray="28.86403771604099,18.17684371302522" stroke-dashoffset="47.040881"/><path d="M398.084 16.123c2.701-1.924 5.857-2.055 6.851-2.055.994 0 4.15-.131 6.851-2.055m-11.799 11.723c2.701-1.924 5.857-2.055 6.851-2.055.995 0 4.15-.131 6.852-2.056" stroke-dasharray="0,14.526999619995522" stroke-dashoffset="14.527"/></g><g fill="none" stroke="#FF9800" stroke-width="4.567638" stroke-linecap="round" stroke-linejoin="round"><path d="M428.942 27.619c-5.329 0-10.658-3.807-10.658-10.658 0-6.852 5.329-10.658 10.658-10.658 4.567 0 8.754.995 12.941-1.903" stroke-dasharray="31.819380533666564,15.221500895399645" stroke-dashoffset="47.040881"/><path d="M430.084 16.123c2.701-1.924 5.857-2.055 6.851-2.055.994 0 4.15-.131 6.851-2.055m-11.799 11.723c2.701-1.924 5.857-2.055 6.851-2.055.995 0 4.15-.131 6.852-2.056" stroke-dasharray="0,14.526999619995522" stroke-dashoffset="14.527"/></g><g fill="none" stroke="#FF9800" stroke-width="4.567638" stroke-linecap="round" stroke-linejoin="round"><path d="M460.942 27.619c-5.329 0-10.658-3.807-10.658-10.658 0-6.852 5.329-10.658 10.658-10.658 4.567 0 8.754.995 12.941-1.903" stroke-dasharray="34.338309577784536,12.702571851281677" stroke-dashoffset="47.040881"/><path d="M462.084 16.123c2.701-1.924 5.857-2.055 6.851-2.055.994 0 4.15-.131 6.851-2.055m-11.799 11.723c2.701-1.924 5.857-2.055 6.851-2.055.995 0 4.15-.131 6.852-2.056" stroke-dasharray="0.943387481679707,13.583612138315814" stroke-dashoffset="14.527"/></g><g fill="none" stroke="#FF9800" stroke-width="4.567638" stroke-linecap="round" stroke-linejoin="round"><path d="M492.942 27.619c-5.329 0-10.658-3.807-10.658-10.658 0-6.852 5.329-10.658 10.658-10.658 4.567 0 8.754.995 12.941-1.903" stroke-dasharray="36.48308767718819,10.557793751878023" stroke-dashoffset="47.040881"/><path d="M494.084 16.123c2.701-1.924 5.857-2.055 6.851-2.055.994 0 4.15-.131 6.851-2.055m-11.799 11.723c2.701-1.924 5.857-2.055 6.851-2.055.995 0 4.15-.131 6.852-2.056" stroke-dasharray="3.620090337675428,10.906909282320093" stroke-dashoffset="14.527"/></g><g fill="none" stroke="#FF9800" stroke-width="4.567638" stroke-linecap="round" stroke-linejoin="round"><path d="M524.942 27.619c-5.329 0-10.658-3.807-10.658-10.658 0-6.852 5.329-10.658 10.658-10.658 4.567 0 8.754.995 12.941-1.903" stroke-dasharray="38.311597074811644,8.729284354254565" stroke-dashoffset="47.040881"/><path d="M526.084 16.123c2.701-1.924 5.857-2.055 6.851-2.055.994 0 4.15-.131 6.851-2.055m-11.799 11.723c2.701-1.924 5.857-2.055 6.851-2.055.995 0 4.15-.131 6.852-2.056" stroke-dasharray="5.6388354145880735,8.888164205407447" stroke-dashoffset="14.527"/></g><g fill="none" stroke="#FF9800" stroke-width="4.567638" stroke-linecap="round" stroke-linejoin="round"><path d="M556.942 27.619c-5.329 0-10.658-3.807-10.658-10.658 0-6.852 5.329-10.658 10.658-10.658 4.567 0 8.754.995 12.941-1.903" stroke-dasharray="39.87270124881755,7.168180180248664" stroke-dashoffset="47.040881"/><path d="M558.084 16.123c2.701-1.924 5.857-2.055 6.851-2.055.994 0 4.15-.131 6.851-2.055m-11.799 11.723c2.701-1.924 5.857-2.055 6.851-2.055.995 0 4.15-.131 6.852-2.056" stroke-dasharray="7.275403392330777,7.251596227664745" stroke-dashoffset="14.527"/></g><g fill="none" stroke="#FF9800" stroke-width="4.567638" stroke-linecap="round" stroke-linejoin="round"><path d="M588.942 27.619c-5.329 0-10.658-3.807-10.658-10.658 0-6.852 5.329-10.658 10.658-10.658 4.567 0 8.754.995 12.941-1.903" stroke-dasharray="41.20630256423665,5.834578864829559" stroke-dashoffset="47.040881"/><path d="M590.084 16.123c2.701-1.924 5.857-2.055 6.851-2.055.994 0 4.15-.131 6.851-2.055m-11.799 11.723c2.701-1.924 5.857-2.055 6.851-2.055.995 0 4.15-.131 6.852-2.056" stroke-dasharray="8.63775963608098,5.889239983914542" stroke-dashoffset="14.527"/></g><g fill="none" stroke="#FF9800" stroke-width="4.567638" stroke-linecap="round" stroke-linejoin="round"><path d="M620.942 27.619c-5.329 0-10.658-3.807-10.658-10.658 0-6.852 5.329-10.658 10.658-10.658 4.567 0 8.754.995 12.941-1.903" stroke-dasharray="42.344703679624615,4.696177749441597" stroke-dashoffset="47.040881"/><path d="M622.084 16.123c2.701-1.924 5.857-2.055 6.851-2.055.994 0 4.15-.131 6.851-2.055m-11.799 11.723c2.701-1.924 5.857-2.055 6.851-2.055.995 0 4.15-.131 6.852-2.056" stroke-dasharray="9.78579392518652,4.741205694809002" stroke-dashoffset="14.527"/></g><g fill="none" stroke="#FF9800" stroke-width="4.567638" stroke-linecap="round" stroke-linejoin="round"><path d="M652.942 27.619c-5.329 0-10.658-3.807-10.658-10.658 0-6.852 5.329-10.658 10.658-10.658 4.567 0 8.754.995 12.941-1.903" stroke-dasharray="43.31410445105567,3.726776978010538" stroke-dashoffset="47.040881"/><path d="M654.084 16.123c2.701-1.924 5.857-2.055 6.851-2.055.994 0 4.15-.131 6.851-2.055m-11.799 11.723c2.701-1.924 5.857-2.055 6.851-2.055.995 0 4.15-.131 6.852-2.056" stroke-dasharray="10.757960214127671,3.769039405867851" stroke-dashoffset="14.527"/></g><g fill="none" stroke="#FF9800" stroke-width="4.567638" stroke-linecap="round" stroke-linejoin="round"><path d="M684.942 27.619c-5.329 0-10.658-3.807-10.658-10.658 0-6.852 5.329-10.658 10.658-10.658 4.567 0 8.754.995 12.941-1.903" stroke-dasharray="44.135894711721754,2.9049867173444586" stroke-dashoffset="47.040881"/><path d="M686.084 16.123c2.701-1.924 5.857-2.055 6.851-2.055.994 0 4.15-.131 6.851-2.055m-11.799 11.723c2.701-1.924 5.857-2.055 6.851-2.055.995 0 4.15-.131 6.852-2.056" stroke-dasharray="11.581140352539007,2.945859267456514" stroke-dashoffset="14.527"/></g><g fill="none" stroke="#FF9800" stroke-width="4.567638" stroke-linecap="round" stroke-linejoin="round"><path d="M716.942 27.619c-5.329 0-10.658-3.807-10.658-10.658 0-6.852 5.329-10.658 10.658-10.658 4.567 0 8.754.995 12.941-1.903" stroke-dasharray="44.82768623955354,2.213195189512666" stroke-dashoffset="47.040881"/><path d="M718.084 16.123c2.701-1.924 5.857-2.055 6.851-2.055.994 0 4.15-.131 6.851-2.055m-11.799 11.723c2.701-1.924 5.857-2.055 6.851-2.055.995 0 4.15-.131 6.852-2.056" stroke-dasharray="12.275217819382874,2.2517818006126475" stroke-dashoffset="14.527"/></g><g fill="none" stroke="#FF9800" stroke-width="4.567638" stroke-linecap="round" stroke-linejoin="round"><path d="M748.942 27.619c-5.329 0-10.658-3.807-10.658-10.658 0-6.852 5.329-10.658 10.658-10.658 4.567 0 8.754.995 12.941-1.903" stroke-dasharray="45.404112642997504,1.6367687860687061" stroke-dashoffset="47.040881"/><path d="M750.084 16.123c2.701-1.924 5.857-2.055 6.851-2.055.994 0 4.15-.131 6.851-2.055m-11.799 11.723c2.701-1.924 5.857-2.055 6.851-2.055.995 0 4.15-.131 6.852-2.056" stroke-dasharray="12.855507198739643,1.6714924212558788" stroke-dashoffset="14.527"/></g><g fill="none" stroke="#FF9800" stroke-width="4.567638" stroke-linecap="round" stroke-linejoin="round"><path d="M780.942 27.619c-5.329 0-10.658-3.807-10.658-10.658 0-6.852 5.329-10.658 10.658-10.658 4.567 0 8.754.995 12.941-1.903" stroke-dasharray="45.87744365543297,1.1634377736332424" stroke-dashoffset="47.040881"/><path d="M782.084 16.123c2.701-1.924 5.857-2.055 6.851-2.055.994 0 4.15-.131 6.851-2.055m-11.799 11.723c2.701-1.924 5.857-2.055 6.851-2.055.995 0 4.15-.131 6.852-2.056" stroke-dasharray="13.334170093006884,1.192829526988637" stroke-dashoffset="14.527"/></g><g fill="none" stroke="#FF9800" stroke-width="4.567638" stroke-linecap="round" stroke-linejoin="round"><path d="M812.942 27.619c-5.329 0-10.658-3.807-10.658-10.658 0-6.852 5.329-10.658 10.658-10.658 4.567 0 8.754.995 12.941-1.903" stroke-dasharray="46.25805698227966,0.7828244467865507" stroke-dashoffset="47.040881"/><path d="M814.084 16.123c2.701-1.924 5.857-2.055 6.851-2.055.994 0 4.15-.131 6.851-2.055m-11.799 11.723c2.701-1.924 5.857-2.055 6.851-2.055.995 0 4.15-.131 6.852-2.056" stroke-dasharray="13.721098338280516,0.8059012817150053" stroke-dashoffset="14.527"/></g><g fill="none" stroke="#FF9800" stroke-width="4.567638" stroke-linecap="round" stroke-linejoin="round"><path d="M844.942 27.619c-5.329 0-10.658-3.807-10.658-10.658 0-6.852 5.329-10.658 10.658-10.658 4.567 0 8.754.995 12.941-1.903" stroke-dasharray="46.554802482968476,0.48607894609773566" stroke-dashoffset="47.040881"/><path d="M846.084 16.123c2.701-1.924 5.857-2.055 6.851-2.055.994 0 4.15-.131 6.851-2.055m-11.799 11.723c2.701-1.924 5.857-2.055 6.851-2.055.995 0 4.15-.131 6.852-2.056" stroke-dasharray="14.024494430747122,0.5025051892483996" stroke-dashoffset="14.527"/></g><g fill="none" stroke="#FF9800" stroke-width="4.567638" stroke-linecap="round" stroke-linejoin="round"><path d="M876.942 27.619c-5.329 0-10.658-3.807-10.658-10.658 0-6.852 5.329-10.658 10.658-10.658 4.567 0 8.754.995 12.941-1.903" stroke-dasharray="46.775285260237546,0.2655961688286636" stroke-dashoffset="47.040881"/><path d="M878.084 16.123c2.701-1.924 5.857-2.055 6.851-2.055.994 0 4.15-.131 6.851-2.055m-11.799 11.723c2.701-1.924 5.857-2.055 6.851-2.055.995 0 4.15-.131 6.852-2.056" stroke-dasharray="14.251269097616388,0.2757305223791328" stroke-dashoffset="14.527"/></g><g fill="none" stroke="#FF9800" stroke-width="4.567638" stroke-linecap="round" stroke-linejoin="round"><path d="M908.942 27.619c-5.329 0-10.658-3.807-10.658-10.658 0-6.852 5.329-10.658 10.658-10.658 4.567 0 8.754.995 12.941-1.903" stroke-dasharray="46.92608751836243,0.11479391070378464" stroke-dashoffset="47.040881"/><path d="M910.084 16.123c2.701-1.924 5.857-2.055 6.851-2.055.994 0 4.15-.131 6.851-2.055m-11.799 11.723c2.701-1.924 5.857-2.055 6.851-2.055.995 0 4.15-.131 6.852-2.056" stroke-dasharray="14.407322965847014,0.11967665414850706" stroke-dashoffset="14.527"/></g><g fill="none" stroke="#FF9800" stroke-width="4.567638" stroke-linecap="round" stroke-linejoin="round"><path d="M940.942 27.619c-5.329 0-10.658-3.807-10.658-10.658 0-6.852 5.329-10.658 10.658-10.658 4.567 0 8.754.995 12.941-1.903" stroke-dasharray="47.01294392747299,0.027937501593224258" stroke-dashoffset="47.040881"/><path d="M942.084 16.123c2.701-1.924 5.857-2.055 6.851-2.055.994 0 4.15-.131 6.851-2.055m-11.799 11.723c2.701-1.924 5.857-2.055 6.851-2.055.995 0 4.15-.131 6.852-2.056" stroke-dasharray="14.49775179697578,0.029247823019740892" stroke-dashoffset="14.527"/></g><g fill="none" stroke="#FF9800" stroke-width="4.567638" stroke-linecap="round" stroke-linejoin="round"><path d="M972.942 27.619c-5.329 0-10.658-3.807-10.658-10.658 0-6.852 5.329-10.658 10.658-10.658 4.567 0 8.754.995 12.941-1.903"/><path d="M974.084 16.123c2.701-1.924 5.857-2.055 6.851-2.055.994 0 4.15-.131 6.851-2.055m-11.799 11.723c2.701-1.924 5.857-2.055 6.851-2.055.995 0 4.15-.131 6.852-2.056"/></g></svg>
